<svg width="570" height="570" viewBox="0 0 570 570" fill="none" xmlns="http://www.w3.org/2000/svg">
<rect width="570" height="570" rx="285" fill="#E86E34"/>
<path d="M283.4 122.419C281.4 123.513 280.8 130.809 281 153.79C281.2 170.205 280.8 184.979 280 186.621C279.4 188.262 266.4 195.193 251.4 201.942C236.4 208.508 222.6 214.891 221 215.803C219.4 216.715 216.6 217.992 215 218.539C213.4 219.086 210.6 220.363 209 221.275C207.4 222.187 204.8 223.281 203.6 223.829C202.2 224.376 199.8 225.105 198.6 225.653C196 226.564 193.8 227.659 186 231.671C183.8 232.948 180.6 234.407 179 234.954C177.4 235.502 174.6 236.596 173 237.508C164 242.25 141.4 252.099 139.6 252.099C138.4 252.099 136.4 253.376 135 254.835C133.6 256.294 131 257.571 129 257.571C127 257.571 124.4 258.848 123 260.307C121.6 261.766 119 263.043 117.2 263.043C115.4 263.225 112 264.684 109.4 266.691L105 269.974L105.4 337.276L106 404.396H156H206L207 353.327L208 302.257H285H362L363 353.327L364 404.396H414H464L464.6 337.276L465 269.974L460.6 266.691C458 264.684 454.6 263.225 452.8 263.043C451 263.043 448.4 261.766 447 260.307C445.6 258.848 442.8 257.571 440.8 257.571C438.8 257.571 436.8 256.842 436.2 255.93C435.2 254.653 412.8 244.256 403 240.426C401.4 239.879 398.4 238.602 396.6 237.508C394.6 236.596 391.4 234.772 389.6 233.86C387.6 232.766 384.6 231.489 383 230.942C381.4 230.395 378.6 229.118 377 228.206C375.4 227.294 372.6 226.017 371 225.47C369.4 224.923 366.6 223.646 365 222.734C363.4 221.822 360.6 220.546 359 219.998C357.4 219.451 354.6 218.357 353 217.445C342 211.791 297.2 191.91 295.4 191.91C291.2 191.91 288.4 183.702 288.4 172.029C288.6 165.828 289.4 159.809 290.4 159.079C291.2 158.168 296.6 158.35 302 159.262C314.2 161.451 332 159.809 339.6 155.796C344.8 152.878 345 152.149 345 138.104C345 129.897 344.4 122.784 343.8 122.054C343 121.507 340.2 122.419 337.4 124.06C330.2 128.255 299.6 128.255 292.4 123.878C286.4 120.23 286.8 120.412 283.4 122.419ZM299.6 216.715C308.6 220.91 312.8 224.741 317.2 232.401C329 253.376 311.2 279.458 285 279.458C259 279.458 241 253.376 252.8 232.401C261.8 216.168 283 209.055 299.6 216.715Z" fill="white"/>
<path d="M280 232.766C279.4 234.407 278.6 236.778 278.2 238.238C277.6 239.697 275.2 241.156 272.6 241.521C265.8 242.25 266.2 250.64 273 252.099C276 252.829 278.2 254.835 279 257.571C279.8 260.854 281.6 262.131 285 262.131C288.4 262.131 290.2 260.854 291 257.571C291.8 254.835 294 252.829 297 252.099C300.6 251.37 302 249.728 302 246.628C302 243.527 300.6 241.885 297 241.156C294 240.426 291.8 238.42 291 235.684C289.6 230.395 281.6 228.388 280 232.766Z" fill="white"/>
<path d="M272.6 328.703C267.2 333.628 266.6 335.269 267.6 341.653C268.6 348.402 268.2 348.949 262 351.32C251.4 355.515 249 360.257 249 377.949C249 393.088 249.2 393.452 255 397.1L260.8 400.748L261.4 424.459L262 448.17H285H308L308.6 424.277L309.2 400.566L315 397.283C321 394.182 321 394 321 378.314C321 360.257 318.6 355.515 308 351.32C301.8 348.949 301.4 348.402 302.4 341.653C303.4 335.269 302.8 333.628 297.4 328.703C293.2 324.873 289.4 323.232 285 323.232C280.6 323.232 276.8 324.873 272.6 328.703Z" fill="white"/>
<path d="M105.801 418.622C105.201 420.082 105.001 427.195 105.401 434.673L106.001 448.17H156.001H206.001V432.667V417.163L156.401 416.616C116.201 416.251 106.801 416.616 105.801 418.622Z" fill="white"/>
<path d="M363.801 418.622C363.201 420.082 363.001 427.195 363.401 434.673L364.001 448.17H414.001H464.001V432.667V417.163L414.401 416.616C374.201 416.251 364.801 416.616 363.801 418.622Z" fill="white"/>
</svg>
