<svg width="570" height="570" viewBox="0 0 570 570" fill="none" xmlns="http://www.w3.org/2000/svg">
<rect width="570" height="570" rx="285" fill="#E86E34"/>
<path d="M239.953 63.0562C225.213 66.2031 211.797 70.0125 204.344 73.1594C183.309 82.1031 165.091 93.5312 151.675 105.787C145.713 111.253 124.844 135.6 124.844 137.091C124.844 137.753 122.691 141.231 120.041 145.206C117.391 149.181 112.919 157.131 109.938 163.094C106.956 169.056 103.975 175.184 103.147 176.675C101.159 180.484 96.8531 192.409 95.0312 198.703C94.3688 201.353 92.8781 205.825 91.8844 208.641C80.7875 241.269 75.1562 288.472 75.1562 348.594C75.1562 386.688 75.4875 393.478 78.1375 399.937C85.7563 419.481 94.0375 427.597 113.913 435.547C119.213 437.534 129.481 438.031 171.716 438.031H223.059L231.175 443C235.481 445.816 240.119 447.969 241.278 447.969C242.438 447.969 244.094 448.631 245.088 449.625C248.4 452.938 271.588 457.906 283.844 457.906C296.1 457.906 319.288 452.938 322.6 449.625C323.594 448.631 325.25 447.969 326.409 447.969C327.403 447.969 332.206 445.65 336.844 443L345.291 438.031H396.303C438.372 438.031 448.475 437.534 453.775 435.547C473.65 427.597 481.931 419.481 489.55 399.937C492.2 393.478 492.531 386.688 492.531 347.766C492.531 294.434 489.053 261.144 479.116 221.062C476.134 209.303 466.197 182.803 460.897 173.031C447.978 148.85 442.016 140.569 426.447 125C403.094 101.812 383.881 91.2125 355.228 85.7469C352.081 85.25 346.45 82.7656 342.806 80.2812C329.722 71.6687 319.784 67.5281 301.731 63.0562C287.984 59.7437 256.35 59.7437 239.953 63.0562ZM340.156 193.569C354.234 198.869 359.203 202.016 368.147 210.794C388.188 230.669 392.991 246.237 393.156 290.791C393.156 319.941 392.991 322.259 389.181 330.706C381.066 348.925 365.497 358.531 343.8 358.531H331.378L325.747 351.906C308.356 331.7 280.2 335.344 266.784 359.691C260.822 370.456 264.797 389.172 275.066 398.447C290.303 412.359 309.516 411.2 324.588 395.466C331.047 388.509 331.709 388.344 341.481 388.344C348.106 388.344 351.75 389.006 351.75 390.166C351.75 393.478 332.538 410.869 323.263 416.169C295.603 431.903 272.084 431.903 244.425 416.169C233.659 410.041 218.588 395.631 210.141 383.375C202.853 373.106 189.438 347.434 189.438 344.287C189.438 343.128 188.444 339.65 187.119 336.669C179.5 318.616 174.531 289.134 174.531 261.144V238.95L179.334 234.147C183.972 229.675 185.131 229.344 197.222 229.344C204.344 229.344 214.613 228.516 220.078 227.687C225.544 226.694 235.316 225.203 241.609 224.375C271.256 220.4 312 206.156 326.906 194.562C331.875 190.753 332.703 190.587 340.156 193.569ZM437.378 252.034C446.322 256.009 455.763 265.45 459.572 273.897C462.056 279.528 462.719 284.828 462.719 298.906C462.719 312.984 462.056 318.284 459.572 323.916C453.444 337.828 437.709 348.594 423.963 348.594C415.847 348.594 414.356 347.6 416.344 343.791C421.809 333.522 422.969 324.247 422.969 288.141C422.969 267.934 423.466 250.875 424.128 250.378C425.95 248.391 430.919 249.053 437.378 252.034Z" fill="white"/>
<path d="M220.906 275.719C215.275 281.35 214.281 283.337 214.281 289.3C214.281 295.097 215.275 297.084 220.906 302.55C226.372 307.684 228.856 308.844 234.156 308.844C239.622 308.844 241.941 307.684 247.406 302.219C252.872 296.753 254.031 294.434 254.031 288.969C254.031 283.669 252.872 281.184 247.738 275.719C242.272 270.087 240.284 269.094 234.488 269.094C228.525 269.094 226.538 270.087 220.906 275.719Z" fill="white"/>
<path d="M320.281 275.719C314.65 281.35 313.656 283.337 313.656 289.3C313.656 295.097 314.65 297.084 320.281 302.55C325.747 307.684 328.231 308.844 333.531 308.844C338.997 308.844 341.316 307.684 346.781 302.219C352.247 296.753 353.406 294.434 353.406 288.969C353.406 283.669 352.247 281.184 347.113 275.719C341.647 270.087 339.659 269.094 333.863 269.094C327.9 269.094 325.913 270.087 320.281 275.719Z" fill="white"/>
</svg>
