<svg width="270" height="184" viewBox="0 0 270 184" fill="none" xmlns="http://www.w3.org/2000/svg">
<path d="M4.15385 4.11172L0 8.22346V88.9162C0 166.114 0.115385 169.815 2.19231 173.515C4.73077 177.832 7.15385 179.991 12.3462 182.355C15.6923 183.794 27.5769 184 135 184C242.423 184 254.308 183.794 257.654 182.355C262.846 179.991 265.269 177.832 267.808 173.515C269.885 169.815 270 166.114 270 88.9162V8.22346L265.846 4.11172C263.538 1.85028 260.769 0 259.615 0C258.577 0 256.038 1.64468 253.962 3.59776C252 5.55083 249.808 7.19553 249.231 7.19553C248.654 7.19553 246.462 5.55083 244.5 3.59776C242.423 1.64468 239.885 0 238.846 0C237.808 0 235.269 1.64468 233.192 3.59776C231.231 5.55083 229.038 7.19553 228.462 7.19553C227.885 7.19553 225.692 5.55083 223.731 3.59776C221.654 1.64468 219.115 0 218.077 0C217.038 0 214.5 1.64468 212.423 3.59776C210.462 5.55083 208.269 7.19553 207.692 7.19553C207.115 7.19553 204.923 5.55083 202.962 3.59776C200.885 1.64468 198.346 0 197.308 0C196.269 0 193.731 1.64468 191.654 3.59776C189.692 5.55083 187.5 7.19553 186.923 7.19553C186.346 7.19553 184.154 5.55083 182.192 3.59776C180.115 1.64468 177.577 0 176.538 0C175.5 0 172.962 1.64468 170.885 3.59776C168.923 5.55083 166.731 7.19553 166.154 7.19553C165.577 7.19553 163.385 5.55083 161.423 3.59776C159.346 1.64468 156.808 0 155.769 0C154.731 0 152.192 1.64468 150.115 3.59776C148.154 5.55083 145.962 7.19553 145.385 7.19553C144.808 7.19553 142.615 5.55083 140.654 3.59776C138.577 1.64468 136.038 0 135 0C133.962 0 131.423 1.64468 129.346 3.59776C127.385 5.55083 125.192 7.19553 124.615 7.19553C124.038 7.19553 121.846 5.55083 119.885 3.59776C117.808 1.64468 115.269 0 114.231 0C113.192 0 110.654 1.64468 108.577 3.59776C106.615 5.55083 104.423 7.19553 103.846 7.19553C103.269 7.19553 101.077 5.55083 99.1154 3.59776C97.0385 1.64468 94.5 0 93.4615 0C92.4231 0 89.8846 1.64468 87.8077 3.59776C85.8462 5.55083 83.6538 7.19553 83.0769 7.19553C82.5 7.19553 80.3077 5.55083 78.3462 3.59776C76.2692 1.64468 73.7308 0 72.6923 0C71.6538 0 69.1154 1.64468 67.0385 3.59776C65.0769 5.55083 62.8846 7.19553 62.3077 7.19553C61.7308 7.19553 59.5385 5.55083 57.5769 3.59776C55.5 1.64468 52.9615 0 51.9231 0C50.8846 0 48.3462 1.64468 46.2692 3.59776C44.3077 5.55083 42.1154 7.19553 41.5385 7.19553C40.9615 7.19553 38.7692 5.55083 36.8077 3.59776C34.7308 1.64468 32.1923 0 31.1538 0C30.1154 0 27.5769 1.64468 25.5 3.59776C23.5385 5.55083 21.3462 7.19553 20.7692 7.19553C20.1923 7.19553 18 5.55083 16.0385 3.59776C13.9615 1.64468 11.4231 0 10.3846 0C9.23077 0 6.46154 1.85028 4.15385 4.11172ZM131.654 48.2101C133.962 50.2659 135 52.219 135 54.4804C135 56.7419 133.962 58.695 131.654 60.7508L128.308 63.7318H83.0769H37.8462L34.5 60.7508C32.1923 58.695 31.1538 56.7419 31.1538 54.4804C31.1538 52.219 32.1923 50.2659 34.5 48.2101L37.8462 45.229H83.0769H128.308L131.654 48.2101ZM218.077 51.9106C218.654 57.7698 218.885 58.181 222.692 59.8257C228.346 62.2927 235.038 68.3575 235.731 71.6469C236.769 76.3754 235.731 77.095 228.115 77.095C221.769 77.095 220.846 76.7866 217.269 73.4972C213.923 70.4134 212.654 69.8994 208.038 69.8994C199.5 69.8994 193.962 76.3754 199.154 80.2816C201.462 81.9263 213 85.3184 216.577 85.3184C220.269 85.3184 228.577 88.4022 231.808 90.8693C235.269 93.6447 238.846 100.326 238.846 104.335C238.846 111.531 231.923 119.857 223.154 123.249C218.192 125.202 218.192 125.305 217.846 131.267L217.5 137.229H207.692H197.885L197.538 131.267C197.192 125.408 197.077 125.202 192.923 123.558C185.654 120.577 181.269 117.184 178.962 112.764C175.846 106.699 176.654 105.877 185.423 105.877C192.462 105.877 193.269 106.185 197.423 109.475C201.231 112.559 202.731 113.073 207.577 113.073C216.577 113.073 222.231 107.419 217.846 102.69C216.115 100.84 205.5 97.6536 200.885 97.5508C196.154 97.5508 188.192 94.1587 184.038 90.5609C179.769 86.8603 178.154 81.1039 179.538 73.4972C180.346 68.2547 185.538 62.9095 192.692 59.8257C196.385 58.181 196.731 57.667 197.077 52.9385C197.538 44.9207 197.308 45.1263 207.923 45.4346L217.5 45.743L218.077 51.9106ZM110.885 85.2156C115.385 89.3274 115.385 93.6447 110.885 97.7564L107.538 100.737H72.6923H37.8462L34.5 97.7564C32.1923 95.7006 31.1538 93.7475 31.1538 91.486C31.1538 89.2246 32.1923 87.2715 34.5 85.2156L37.8462 82.2346H72.6923H107.538L110.885 85.2156ZM72.8077 121.502C75.4615 122.735 79.5 125.408 81.8077 127.566C85.9615 131.473 86.0769 131.473 89.4231 129.931C92.8846 128.286 101.654 128.389 108.692 130.034C111.231 130.65 112.5 130.136 115.962 127.053C126.692 117.493 139.038 116.773 143.077 125.408C144.231 127.875 144.231 129.108 143.077 131.575C141.577 134.659 137.423 137.743 134.538 137.743C132.346 137.743 127.038 143.499 124.5 148.639C122.192 153.676 118.5 156.246 113.769 156.246C111.231 156.246 109.154 155.115 105.462 151.62C102.808 149.05 100.038 146.994 99.2308 146.994C97.0385 146.994 93.4615 150.078 93.4615 152.031C93.4615 153.882 89.1923 160.46 87.2308 161.591C84.9231 163.03 77.8846 162.413 75.4615 160.563C73.8462 159.33 72.3462 155.937 70.9615 150.489C67.9615 138.977 63.2308 134.968 58.2692 139.799C55.6154 142.472 52.0385 151.62 51.9231 156.04C51.9231 160.666 46.6154 165.497 41.5385 165.497C35.8846 165.497 31.1538 160.666 31.1538 155.012C31.1538 149.564 34.8462 138.771 38.7692 132.809C46.7308 120.679 60.9231 115.951 72.8077 121.502Z" fill="#E86E34"/>
</svg>
