<svg width="570" height="570" viewBox="0 0 570 570" fill="none" xmlns="http://www.w3.org/2000/svg">
<rect width="570" height="570" rx="285" fill="#E86E34"/>
<path d="M238 121.204C238 123.126 235.863 125.476 233.3 126.544C230.522 127.826 221.122 133.594 212.363 139.363C203.604 145.131 194.418 151.113 192.068 152.181C180.959 158.163 160.45 171.622 156.391 175.681C154.468 177.603 150.836 183.372 148.486 188.072C144.214 196.617 144 199.608 144 291.258C144 382.053 144.214 385.898 148.273 392.521C153.614 401.066 160.877 406.194 174.977 411.107C194.845 418.371 226.25 414.312 231.591 404.057C232.872 401.921 233.727 368.594 233.727 322.235C233.727 236.994 234.154 233.149 246.332 219.69C249.322 216.485 265.559 204.522 282.222 193.626C316.19 171.194 323.454 164.572 323.454 156.026C323.454 149.831 316.831 143.635 309.995 143.635C307.859 143.635 286.709 156.454 262.995 172.049C204.673 210.717 193.563 216.699 180.745 215.844C170.918 215.203 170.704 214.99 170.064 207.512C169.423 200.462 170.491 198.753 178.823 191.917C183.95 187.644 188.864 184.226 189.504 184.226C190.145 184.226 196.982 179.953 204.673 174.613C212.577 169.272 219.627 164.999 220.695 164.999C221.763 164.999 223.686 163.503 225.182 161.794C226.677 160.085 229.454 158.59 231.591 158.59C233.727 158.59 236.504 160.085 238 161.794C241.632 166.281 251.459 165.853 255.731 161.154C260.645 155.813 260.859 130.39 256.159 126.544C254.45 125.049 252.954 122.485 252.954 120.99C252.954 119.067 250.391 117.999 245.477 117.999C240.136 117.999 238 118.854 238 121.204Z" fill="white"/>
<path d="M318.114 183.37C304.014 193.198 290.982 201.957 289.059 202.811C280.3 207.084 259.364 224.602 253.809 232.293L247.614 240.838L246.973 331.847L246.332 423.07L253.382 432.042C259.577 439.947 263.423 442.938 276.882 449.56C279.018 450.415 289.273 451.27 299.955 451.27C316.618 451.27 320.25 450.629 329.223 445.501C339.05 440.16 411.259 386.752 421.086 377.565L426 373.292V285.061C426 198.325 426 197.043 421.513 192.557C414.25 185.293 407.413 188.498 374.086 213.493C357.423 225.884 343.323 236.779 342.682 237.634C342.041 238.275 335.204 243.402 327.514 248.956C312.559 259.425 294.614 267.543 286.496 267.543C279.018 267.543 272.182 261.561 272.182 254.938C272.182 247.247 280.086 239.984 310.636 219.475C335.204 202.811 335.204 202.811 341.186 206.443C349.304 210.929 351.654 210.716 357.209 204.948C364.045 197.684 364.045 176.32 356.995 169.698C354.218 167.134 350.159 164.998 347.809 165.211C345.673 165.211 332.214 173.329 318.114 183.37ZM399.295 274.166V285.702L375.795 303.434C362.977 313.261 349.518 323.515 346.1 326.506C338.195 333.343 335.845 330.993 336.7 317.534L337.341 307.279L365.113 286.129C380.495 274.593 393.313 264.125 393.741 263.056C393.954 261.775 395.45 261.347 396.945 261.775C398.227 262.202 399.295 267.329 399.295 274.166Z" fill="white"/>
</svg>
