<svg width="570" height="570" viewBox="0 0 570 570" fill="none" xmlns="http://www.w3.org/2000/svg">
<rect width="570" height="570" rx="285" fill="#E86E34"/>
<path d="M254.733 127.933C244.6 131.933 237.8 138.333 233.133 148.333C224.866 165.667 228.733 181 245.933 199C250.733 204.067 261.933 216.067 270.866 225.667C301.533 258.6 304.066 261 309 261C313.933 261 316.066 259.133 347.666 225.133C356.866 215.4 367.266 204.333 370.733 200.467C388.333 181.933 392.6 167.933 386.066 150.733C380.333 135.933 364.733 125 349 125C339 125 328.333 129.8 318.866 138.6C314.333 142.867 309.933 146.333 309 146.333C308.066 146.333 303.666 142.867 299.133 138.6C285.133 125.667 269.933 121.933 254.733 127.933Z" fill="white"/>
<path d="M430.333 263.133C422.2 266.867 403.533 276.333 389.667 283.667C362.733 297.933 365 295.933 365 307C365 316.333 361.8 328.733 358.467 332.067C357.667 332.867 357 334.067 357 334.733C357 336.467 344.733 349 343 349C342.2 349 340.867 349.667 340.067 350.467C339.133 351.4 335.267 353.133 331.4 354.467C325.267 356.733 320.067 357 288.6 357H252.733L248.867 353.133C243.667 347.8 243.667 342.2 248.867 336.867L252.733 333H287.667C319.133 333 322.867 332.733 327.4 330.467C339.267 324.333 344.467 310.067 338.6 299.267C335.533 293.667 331.4 289 329.533 289C328.733 289 326.2 288.067 324.2 287C321.133 285.4 314.2 285 289 285C257.667 285 246.6 283.933 225.4 279C214.467 276.333 195.8 276.467 186.467 279.133C165.267 285.267 147.133 298.333 130.2 319.667C120.333 332.2 109 352.333 109 357.667C109 360.333 116.2 371 137 399C139.267 401.933 147.267 412.867 155 423.267C169.267 442.733 171.667 445 177.667 445C181.667 445 189 438.467 189 435C189 429.667 198.2 419.133 205.933 415.533C212.867 412.333 227.267 412.2 249.4 415C257.933 416.067 272.067 417.933 280.733 419C314.867 423.4 325.533 421.533 343.667 407.933C355.933 398.867 411.133 343.8 446.467 305.4C461 289.533 464.067 280.467 458.067 271C452.067 261.933 440.333 258.6 430.333 263.133Z" fill="white"/>
</svg>
