<svg width="570" height="570" viewBox="0 0 570 570" fill="none" xmlns="http://www.w3.org/2000/svg">
<rect width="570" height="570" rx="285" fill="#E86E34"/>
<path d="M229.353 82.603C223.059 88.7311 222.728 94.6936 228.193 101.484C232.003 106.287 232.831 106.453 247.737 107.281L263.14 108.109V117.219V126.328L209.312 127.156C154.987 128.15 146.706 128.978 139.584 134.94C138.259 136.1 136.106 137.094 135.112 137.094C132.628 137.094 114.906 154.981 114.906 157.631C114.906 158.625 114.078 160.447 113.084 161.44C108.943 165.581 105.134 181.15 104.968 193.406V205.994L95.6934 209.14C84.7621 212.784 72.8371 224.047 68.3652 234.978C64.059 245.412 63.8934 284.997 68.034 296.756C72.1746 308.35 83.6027 319.281 95.5277 323.422L104.968 326.569V344.125C105.134 361.35 108.281 376.256 113.084 381.059C114.078 382.053 114.906 383.875 114.906 384.869C114.906 387.519 132.628 405.406 135.112 405.406C136.106 405.406 138.259 406.4 139.584 407.559C144.221 411.369 160.121 415.344 172.046 415.84L183.64 416.172L184.468 446.812C185.462 481.262 186.456 485.237 196.89 491.365C204.012 495.506 212.459 495.837 219.415 492.194C222.231 490.869 246.909 472.981 274.072 452.444L323.759 415.344H361.356C393.487 415.178 400.278 414.847 407.731 412.197C412.534 410.54 417.337 408.387 418.497 407.228C419.49 406.234 421.312 405.406 422.472 405.406C425.122 405.406 442.843 387.684 442.843 385.034C442.843 383.875 443.672 382.053 444.665 381.059C449.468 376.256 452.615 361.35 452.781 344.125V326.569L462.222 323.422C474.147 319.281 485.575 308.35 489.715 296.756C493.856 284.997 493.69 245.412 489.384 234.978C484.912 224.047 472.987 212.784 462.056 209.14L452.781 205.994V193.406C452.615 181.15 448.806 165.581 444.665 161.44C443.672 160.447 442.843 158.625 442.843 157.465C442.843 154.815 425.287 137.094 422.637 137.094C421.643 137.094 419.49 136.1 418.165 134.94C411.043 128.978 402.762 128.15 348.437 127.156L294.609 126.328V117.219V108.109L310.012 107.281C324.422 106.453 325.747 106.122 329.556 101.815C335.022 95.3561 334.69 88.3998 328.728 82.2717L323.925 77.4686H279.206H234.487L229.353 82.603ZM237.468 223.219C243.1 228.85 244.093 230.837 244.093 236.634C244.093 242.431 243.1 244.584 237.634 249.884C232.334 255.35 230.181 256.344 224.55 256.344C218.918 256.344 216.6 255.184 210.968 250.05C205.337 244.584 204.343 242.597 204.343 236.965C204.343 231.334 205.503 229.181 211.134 223.384C216.765 217.753 219.084 216.594 224.384 216.594C229.684 216.594 232.003 217.753 237.468 223.219ZM346.781 223.384C352.247 229.015 353.406 231.334 353.406 236.634C353.406 241.934 352.247 244.253 346.781 249.719C341.315 255.184 338.997 256.344 333.531 256.344C328.231 256.344 325.747 255.184 320.281 250.05C314.65 244.584 313.656 242.597 313.656 236.8C313.656 230.837 314.65 228.85 320.281 223.219C325.747 217.753 328.065 216.594 333.531 216.594C339.162 216.594 341.15 217.587 346.781 223.384ZM251.381 303.381C260.656 313.153 266.784 315.969 278.875 315.969C290.965 315.969 297.093 313.153 306.368 303.381C314.815 294.272 321.275 293.609 328.728 300.897C335.022 307.356 334.856 312.987 328.231 322.925C307.362 353.4 250.387 353.4 229.518 322.925C222.893 312.987 222.728 307.356 229.021 300.897C236.475 293.609 242.934 294.272 251.381 303.381Z" fill="white"/>
</svg>
