<svg width="570" height="570" viewBox="0 0 570 570" fill="none" xmlns="http://www.w3.org/2000/svg">
<rect width="570" height="570" rx="285" fill="#E86E34"/>
<path d="M159.578 98.3426C143.396 105.345 137.016 110.168 130.948 119.815C124.102 130.552 123.168 135.375 122.234 162.605L121.456 189.057L105.118 189.835C88.3138 190.768 84.8906 191.858 76.6439 199.171C67.4635 207.262 66.2188 213.019 66.2188 245.85C66.2188 278.215 66.9967 282.261 75.3991 291.441C81.7786 298.443 88.7806 300.933 105.896 301.866L121.456 302.644L122.234 329.096C123.168 356.326 124.102 361.149 130.948 371.886C136.861 381.377 144.796 387.446 158.645 392.891C167.669 396.47 375.549 396.47 384.574 392.891C402.624 385.734 410.404 378.265 417.717 360.994C419.273 357.259 420.362 347.145 420.829 329.096L421.762 302.644H434.988H448.214L448.681 353.992C449.148 413.742 448.681 417.009 436.544 428.99C424.252 441.283 420.673 441.905 369.792 441.905H325.602L320.312 435.681C303.974 416.698 277.522 420.121 264.919 442.994C257.294 456.998 265.697 478.16 282.035 485.628C295.105 491.541 307.864 488.429 319.223 476.604L325.602 469.913H371.815C409.314 469.913 418.962 469.446 423.63 467.579C426.586 466.334 430.165 465.245 431.254 465.245C434.055 465.245 448.525 456.531 454.283 451.397C459.573 446.573 472.332 427.59 472.332 424.322C472.332 423.078 473.421 419.499 474.666 416.543C476.689 411.719 477 396.626 477 313.847C477 221.11 476.844 216.442 474.044 209.907C470.932 203.061 465.641 197.304 458.328 192.947C455.839 191.546 448.37 190.457 438.1 189.835L421.762 189.057L420.984 162.605C420.362 145.489 419.273 134.286 418.028 130.707C413.204 118.726 404.958 108.923 395.311 103.789C381.307 96.1642 385.508 96.4754 270.987 96.631C197.544 96.631 162.223 97.2534 159.578 98.3426ZM219.017 205.395C223.84 210.53 224.93 212.863 224.93 217.843C224.93 222.977 223.84 225.156 218.706 230.291C213.571 235.425 211.393 236.515 206.258 236.515C201.279 236.515 198.945 235.425 193.81 230.602C188.52 225.467 187.586 223.6 187.586 218.154C187.586 212.552 188.52 210.685 193.81 205.395C199.1 200.104 200.967 199.171 206.569 199.171C212.015 199.171 213.882 200.104 219.017 205.395ZM349.72 205.395C354.544 210.53 355.633 212.863 355.633 217.843C355.633 222.977 354.544 225.156 349.409 230.291C344.274 235.425 342.096 236.515 336.961 236.515C331.982 236.515 329.648 235.425 324.513 230.602C319.223 225.467 318.289 223.6 318.289 218.154C318.289 212.552 319.223 210.685 324.513 205.395C329.803 200.104 331.671 199.171 337.272 199.171C342.718 199.171 344.585 200.104 349.72 205.395ZM121.456 245.85V273.08H108.23H95.0046L94.5378 247.406C94.3822 233.403 94.5378 220.955 95.0046 219.71C95.4714 218.309 99.0501 217.843 108.542 218.154L121.456 218.621V245.85ZM448.214 245.85V273.08H434.988H421.762L421.296 247.406C421.14 233.403 421.296 220.955 421.762 219.71C422.229 218.309 425.808 217.843 435.299 218.154L448.214 218.621V245.85ZM221.195 287.395C248.892 306.845 294.794 306.845 322.023 287.551C329.959 281.794 335.872 281.949 341.784 287.707C348.475 294.397 348.008 300.777 340.229 308.246C336.805 311.358 330.737 315.559 326.536 317.426C322.49 319.293 317.822 321.472 316.422 322.25C309.731 325.673 284.68 329.874 271.609 329.874C245.158 329.874 216.216 320.694 203.146 308.401C195.21 300.777 194.743 294.553 201.434 287.707C207.347 281.949 213.26 281.794 221.195 287.395Z" fill="white"/>
</svg>
