<svg width="570" height="570" viewBox="0 0 570 570" fill="none" xmlns="http://www.w3.org/2000/svg">
<rect width="570" height="570" rx="285" fill="#E86E34"/>
<path d="M146.466 160.868C138.333 164.201 128.866 173.935 125.933 181.801C123.799 187.801 123.666 196.601 123.666 285.935C123.666 368.201 123.933 383.668 125.533 383.668C126.466 383.668 127.666 382.335 128.066 380.601C128.466 379.001 130.066 374.335 131.666 370.335C133.266 366.335 134.999 361.535 135.666 359.668C136.333 357.801 138.066 353.001 139.666 349.001C141.266 345.001 142.866 340.468 143.266 339.001C143.666 337.535 144.733 334.468 145.666 332.335C146.599 330.068 148.333 325.801 149.533 322.601C150.733 319.535 152.599 314.601 153.666 311.668C154.733 308.735 156.466 304.068 157.533 301.268C165.933 278.468 169.133 271.268 172.866 266.201C176.599 261.001 182.466 255.801 187.666 252.868C198.733 246.868 194.066 247.135 313.666 246.335L426.999 245.668L427.399 237.668C428.066 226.335 424.599 216.868 416.866 209.268C405.799 198.335 406.733 198.468 341.799 198.468L284.733 198.335L279.133 194.068C276.199 191.668 269.799 186.468 264.999 182.335C251.266 170.335 242.199 164.068 234.599 161.135C228.066 158.468 224.999 158.335 189.933 158.468C156.999 158.468 151.666 158.735 146.466 160.868Z" fill="white"/>
<path d="M200.334 273.401C195.134 276.334 188.467 284.601 187.267 289.667C186.867 291.134 185.267 295.667 183.667 299.667C182.067 303.667 180.334 308.467 179.667 310.334C179 312.201 177.267 317.001 175.667 321.001C174.067 325.001 172.334 329.801 171.667 331.667C171 333.534 169.267 338.334 167.667 342.334C166.067 346.334 164.334 351.134 163.667 353.001C163 354.867 161.267 359.667 159.667 363.667C158.067 367.667 156.334 372.467 155.667 374.334C155 376.201 153.267 381.001 151.534 385.001C149.934 389.001 148.334 394.867 148.067 398.067C147.4 403.267 147.8 404.201 152.734 409.001L158.067 414.334H279.8H401.667L407 411.267C412.2 408.334 418.867 400.067 420.067 395.001C420.467 393.534 422.067 389.001 423.667 385.001C425.267 381.001 427 376.201 427.667 374.334C428.334 372.467 430.067 367.667 431.667 363.667C433.267 359.667 435 354.867 435.667 353.001C436.334 351.134 438.067 346.334 439.667 342.334C441.267 338.334 443 333.534 443.667 331.667C444.334 329.801 446.067 325.001 447.667 321.001C449.267 317.001 451 312.201 451.667 310.334C452.334 308.467 454.067 303.667 455.8 299.667C457.4 295.667 459 289.801 459.267 286.601C459.934 281.401 459.534 280.467 454.6 275.667L449.267 270.334H327.534H205.667L200.334 273.401Z" fill="white"/>
</svg>
