<svg width="318" height="305" viewBox="0 0 318 305" fill="none" xmlns="http://www.w3.org/2000/svg">
<path d="M129.632 38.1547L129.632 38.1538C130.167 37.1941 131.53 34.0638 132.775 31.1476C133.942 28.2569 135.389 24.8221 136.021 23.542C137.946 19.1975 138.771 17.2887 140.008 14.3271C140.126 14.043 140.254 13.7358 140.387 13.4154C141.017 11.8967 141.77 10.0824 142.289 9.03011C144.343 4.44053 145.028 2.80136 145.435 1.69931C145.568 1.24778 145.825 0.882202 146.204 0.674965C146.588 0.464756 147.027 0.455971 147.44 0.587795L147.456 0.59317L147.473 0.59972C147.596 0.649048 147.694 0.739067 147.74 0.783257C147.803 0.843143 147.872 0.917229 147.943 0.999214C148.086 1.16424 148.264 1.38941 148.471 1.66293C148.884 2.21162 149.43 2.98035 150.071 3.91046C151.353 5.77209 153.026 8.29739 154.801 11.0409C158.349 16.5254 162.317 22.9016 164.391 26.6101L164.392 26.6109C164.77 27.2905 165.411 28.3148 166.002 29.259C166.257 29.6666 166.502 30.0593 166.714 30.4029C167.098 30.9397 167.497 31.5552 167.827 32.1041C168.145 32.6321 168.417 33.1288 168.542 33.4385C168.812 33.9493 169.398 34.8773 169.9 35.4185C170.245 35.7899 170.5 36.3135 170.651 36.8405C170.803 37.3653 170.868 37.9475 170.787 38.4638C170.71 39.1528 170.5 39.7295 169.9 40.1002C169.367 40.43 168.591 40.5456 167.57 40.6108C166.097 40.7138 164.679 40.5098 163.609 40.0911C163.075 39.8821 162.604 39.6101 162.258 39.2739C161.91 38.9354 161.664 38.5047 161.664 38.0013C161.664 38.0023 161.664 38.0028 161.664 38.0028C161.664 38.0028 161.663 37.9854 161.651 37.9466C161.638 37.9034 161.616 37.846 161.581 37.7745C161.511 37.6309 161.404 37.4542 161.26 37.2553C160.973 36.8586 160.568 36.4076 160.111 36.0014C159.698 35.6382 159.404 35.3972 159.083 35.223C158.774 35.0547 158.417 34.9378 157.875 34.8696C156.752 34.7283 154.949 34.8055 151.379 35.0046C148.761 35.1531 146.763 35.2844 145.203 35.4549C143.64 35.6258 142.548 35.8332 141.729 36.1228C140.925 36.4073 140.387 36.7707 139.932 37.2651C139.464 37.773 139.068 38.4343 138.57 39.3553L136.988 42.4502L136.849 42.7227H136.543H132.824C131.787 42.7227 130.949 42.6861 130.31 42.5715C129.69 42.4604 129.136 42.256 128.819 41.8132C128.486 41.3488 128.519 40.7799 128.683 40.2185C128.848 39.6506 129.182 38.9657 129.632 38.1547ZM153.268 26.5749L153.268 26.5749L153.269 26.5706C153.285 26.4771 153.276 26.279 153.198 25.9576C153.124 25.6507 153 25.279 152.833 24.8638C152.501 24.0374 152.016 23.0751 151.478 22.1727C150.889 21.2755 150.349 20.3754 149.954 19.6363C149.757 19.2662 149.592 18.9294 149.475 18.6498C149.416 18.5101 149.367 18.3779 149.331 18.2586C149.298 18.1474 149.267 18.0141 149.267 17.8837C149.267 17.7155 149.24 17.6412 149.224 17.6131C149.196 17.6115 149.115 17.6153 148.961 17.6903C148.515 17.9073 147.875 18.5323 147.389 19.4943L147.388 19.4963C146.232 21.7608 145.376 23.4506 144.833 24.7168C144.562 25.3493 144.376 25.8598 144.27 26.2722C144.163 26.6899 144.148 26.9684 144.181 27.153C144.21 27.3141 144.276 27.4108 144.389 27.4901C144.523 27.5837 144.748 27.669 145.12 27.7254C145.87 27.8391 146.99 27.8065 148.574 27.7398C149.694 27.6903 150.553 27.6453 151.219 27.5866C151.89 27.5275 152.334 27.4566 152.635 27.3651C152.927 27.2763 153.039 27.1821 153.097 27.1039C153.166 27.0132 153.219 26.8713 153.268 26.5749ZM149.214 17.5987C149.214 17.5988 149.215 17.6002 149.218 17.6025C149.215 17.5996 149.214 17.5985 149.214 17.5987Z" fill="#E86E34" stroke="#E86E34"/>
<path d="M179.236 22.6739C179.478 21.3829 179.806 19.7795 180.125 18.2308C180.149 18.111 180.174 17.9915 180.198 17.8725C180.491 16.4502 180.768 15.0992 180.958 14.0993C181.372 11.9218 181.92 8.83605 182.124 7.20467C182.231 6.35634 182.408 5.4901 182.613 4.77134C182.716 4.41216 182.828 4.08252 182.944 3.8068C183.055 3.54611 183.186 3.29369 183.343 3.11549C183.783 2.58849 184.486 2.32027 185.207 2.20632C185.945 2.08969 186.781 2.12103 187.582 2.26474C188.382 2.40843 189.174 2.66949 189.818 3.03372C190.446 3.38856 191.006 3.88277 191.22 4.52917C191.319 4.79983 191.351 5.17774 191.354 5.57359C191.357 5.99459 191.328 6.50252 191.271 7.06201C191.157 8.18027 190.929 9.53483 190.616 10.871C190.489 11.479 190.34 12.1835 190.18 12.9432C189.643 15.4885 188.976 18.653 188.553 20.8817C188.277 22.3344 187.932 24.1001 187.605 25.7736L187.535 26.1317C187.234 27.672 186.953 29.1072 186.762 30.116L186.761 30.1235L186.759 30.1309C186.281 32.2887 185.732 35.6365 185.457 37.545C185.3 38.7131 185.101 39.6856 184.827 40.4726C184.553 41.2604 184.194 41.8918 183.699 42.3462C182.679 43.2823 181.267 43.3134 179.48 42.9109L179.48 42.9109L179.476 42.91C178.849 42.7638 178.333 42.6414 177.933 42.4946C177.527 42.3452 177.177 42.1492 176.926 41.8172C176.679 41.4896 176.577 41.0918 176.526 40.642C176.476 40.1946 176.473 39.6288 176.473 38.9272V38.9168L176.473 38.9064C176.543 37.225 176.961 33.966 177.447 31.5722C177.54 31.1135 177.646 30.5936 177.76 30.0353C178.235 27.7008 178.848 24.694 179.236 22.6739ZM179.236 22.6739C179.236 22.6743 179.236 22.6747 179.236 22.6751L179.728 22.7672L179.237 22.6728C179.237 22.6732 179.236 22.6735 179.236 22.6739Z" fill="#E86E34" stroke="#E86E34"/>
<path d="M101.079 10.0799L101.09 10.0769L101.101 10.0744C102.231 9.81989 104.815 8.9103 106.887 8.11652C108.956 7.32402 111.655 6.46053 112.866 6.18583C114.023 5.8592 115.484 5.34708 116.195 4.97753C117.294 4.36272 118.783 4.10723 120.052 4.15929C120.691 4.18551 121.305 4.29076 121.807 4.48835C122.294 4.68014 122.765 4.99568 122.96 5.50029C123.495 6.86953 123.648 8.05797 123.204 9.11495C122.765 10.1624 121.79 10.9576 120.376 11.6685L120.376 11.6687C119.628 12.0441 118.777 12.3832 118.015 12.6293C117.272 12.8693 116.552 13.041 116.088 13.041C115.495 13.041 114.856 13.4693 114.417 14.1544C113.982 14.835 113.846 15.612 114.068 16.1679C114.359 16.7999 114.843 18.1949 115.123 19.3291C115.469 20.3881 116.354 22.9294 117.169 24.8805C118 26.8698 118.9 29.3877 119.251 30.5286C119.594 31.5794 120.483 34.1341 121.302 36.0936L121.303 36.0969C122.307 38.5494 123.057 40.7343 123.469 42.3992C123.675 43.2291 123.802 43.9494 123.829 44.5178C123.842 44.8016 123.832 45.0666 123.785 45.2973C123.74 45.5215 123.649 45.7657 123.459 45.9477C123.342 46.0599 123.151 46.1813 122.959 46.2935C122.751 46.4146 122.492 46.5534 122.203 46.7002C121.625 46.9941 120.909 47.3283 120.212 47.6288L120.203 47.6324L120.195 47.6357L120.172 47.6446C119.554 47.8844 119.06 48.0763 118.665 48.1917C118.27 48.3066 117.89 48.3731 117.53 48.2804C117.147 48.1816 116.883 47.9295 116.666 47.6314C116.46 47.3502 116.253 46.9664 116.009 46.5142L115.994 46.4862C114.8 44.3337 112.998 39.8145 112.096 36.7576L112.093 36.7466L112.09 36.7354C111.825 35.6582 110.877 33.1875 110.048 31.2023C109.224 29.2289 108.25 26.6358 107.961 25.5379C106.93 22.0831 105.97 19.8038 105.021 18.5381C104.549 17.9089 104.115 17.5772 103.722 17.4457C103.349 17.3206 102.948 17.3548 102.476 17.6013L102.468 17.6053L102.46 17.6091C101.745 17.9515 99.7286 18.7498 97.9189 19.2838C97.153 19.5445 96.5495 19.7472 96.0632 19.8775C95.5779 20.0076 95.1617 20.0795 94.781 20.0474C93.9662 19.9785 93.476 19.4399 92.8508 18.7466C92.0556 17.8666 91.5158 17.0149 91.3807 16.1693C91.2382 15.277 91.5584 14.4831 92.2684 13.7842C92.9578 13.1057 94.0324 12.4947 95.472 11.9014C96.9202 11.3047 98.7809 10.7088 101.079 10.0799Z" fill="#E86E34" stroke="#E86E34"/>
<path d="M207.314 12.4458L207.31 12.4539C206.664 13.8071 205.57 15.9959 204.427 18.2824C203.622 19.893 202.793 21.5521 202.079 23.0018L202.077 23.0051C200.357 26.5629 197.536 32.2306 195.815 35.5914C194.95 37.2495 194.17 38.8923 193.605 40.1985C193.323 40.8512 193.092 41.4249 192.931 41.877C192.851 42.1027 192.786 42.3039 192.74 42.4727C192.698 42.6284 192.66 42.799 192.66 42.9446C192.66 43.6713 193.015 44.3378 193.506 44.8837C194.001 45.4332 194.667 45.9005 195.382 46.2406C196.097 46.5808 196.885 46.8055 197.636 46.8479C198.38 46.89 199.133 46.7539 199.723 46.3162C199.918 46.1753 200.132 45.9419 200.342 45.6811C200.562 45.4087 200.804 45.0713 201.051 44.695C201.545 43.9435 202.073 43.0165 202.497 42.103C205.807 35.2348 207.924 31.152 209.318 29.1295C209.665 28.6265 209.955 28.269 210.196 28.0324C210.446 27.7864 210.596 27.718 210.659 27.7051C210.661 27.7048 210.662 27.7042 210.664 27.7035C210.672 27.7 210.681 27.696 210.723 27.7418C210.8 27.8236 210.9 27.9994 211.005 28.3227C211.005 28.3229 211.005 28.3232 211.005 28.3235L211.481 28.1697C212.032 29.8846 213.822 34.3039 214.856 36.6125L207.314 12.4458ZM207.314 12.4458L207.318 12.4379C207.912 11.3014 208.544 10.2576 209.095 9.4916C209.369 9.1103 209.632 8.78487 209.869 8.54938C209.986 8.43221 210.109 8.3254 210.232 8.24466C210.345 8.17157 210.518 8.07982 210.723 8.07982C211.125 8.07982 211.453 8.31898 211.724 8.62362C212.001 8.93452 212.292 9.39597 212.621 10.0209C213.28 11.2762 214.15 13.3115 215.389 16.4429L215.39 16.4445C216.007 18.0194 216.89 20.0331 217.424 20.9944C217.718 21.489 217.971 22.0623 218.152 22.5802C218.327 23.0841 218.455 23.5959 218.455 23.9483C218.455 24.1612 218.536 24.5596 218.705 25.069C218.868 25.5616 219.098 26.1116 219.359 26.6134C219.927 27.6348 220.829 29.6976 221.383 31.1552C222.83 34.8183 223.736 37.0259 224.355 38.3174C224.666 38.9675 224.891 39.3539 225.06 39.5725C225.083 39.6025 225.104 39.6276 225.123 39.6485C225.193 39.5626 225.28 39.4461 225.384 39.2967C225.666 38.8902 226.034 38.292 226.467 37.5418C227.33 36.0448 228.426 33.9769 229.56 31.7071C230.528 29.7406 231.48 27.8299 232.28 26.2222C233.367 24.0397 234.176 22.4155 234.371 21.9679L234.378 21.9517L234.386 21.936C235 20.7605 236.162 20.156 237.454 20.1095C238.739 20.0632 240.163 20.5614 241.413 21.5823L241.414 21.5831L243.342 23.1661L243.652 23.4206L243.471 23.7784L240.166 30.3069C240.166 30.3072 240.166 30.3075 240.166 30.3077C235.827 38.9472 231.557 47.5207 228.39 53.9178L228.39 53.9181L225.772 59.1948L225.437 59.8715L224.945 59.2982L223.365 57.4563C222.902 56.9434 222.471 56.3773 222.153 55.8638C221.994 55.6065 221.857 55.3541 221.759 55.1223C221.666 54.9017 221.587 54.6544 221.587 54.4215C221.587 54.3484 221.568 54.1999 221.515 53.97C221.464 53.7493 221.389 53.4808 221.293 53.1806C221.101 52.5808 220.832 51.8732 220.53 51.1976C218.6 46.9725 217.701 44.8545 216.459 41.7485L207.314 12.4458ZM225.232 39.7481C225.232 39.748 225.231 39.7475 225.229 39.7467C225.231 39.7478 225.232 39.7482 225.232 39.7481Z" fill="#E86E34" stroke="#E86E34"/>
<path d="M73.1125 61.7456C76.6251 66.2308 78.6914 69.4628 78.4847 70.0564C77.796 71.7054 74.0768 74.014 72.9748 73.4203C71.4596 72.5629 48.4555 42.8812 48.8688 42.2216C49.282 41.562 57.5469 41.9578 66.7761 43.211C78.4159 44.794 83.6503 44.926 84.1324 43.8046L73.1125 61.7456ZM73.1125 61.7456C66.5695 53.4347 65.3986 51.5219 66.2251 50.7963L73.1125 61.7456ZM75.219 21.7645L75.219 21.7644L75.2245 21.7626C75.7582 21.5812 76.2515 21.4362 76.7294 21.4299C77.2367 21.4232 77.6934 21.5714 78.1616 21.9016C78.6115 22.2188 79.0749 22.706 79.619 23.3775C80.1663 24.0528 80.8195 24.9457 81.6447 26.0982C82.3654 27.0842 83.0676 28.0189 83.6227 28.7305C83.9007 29.0869 84.1395 29.3842 84.3241 29.6029C84.4166 29.7125 84.4926 29.7989 84.5513 29.8618C84.6052 29.9194 84.6301 29.9413 84.6327 29.944C84.6334 29.9447 84.6327 29.9443 84.6307 29.9429C84.6961 29.9898 84.7628 30.0612 84.8012 30.1024C84.8535 30.1587 84.9188 30.2321 84.9948 30.3198C85.1473 30.4957 85.353 30.7403 85.6046 31.0443C86.1083 31.653 86.8031 32.5085 87.6387 33.548C89.3101 35.6272 91.5492 38.4478 93.9601 41.5153C96.8553 45.1462 98.9984 47.9926 100.368 49.9854C101.052 50.9796 101.552 51.7739 101.856 52.3527C102.006 52.6388 102.121 52.8949 102.183 53.108C102.213 53.2131 102.238 53.3353 102.236 53.4596C102.233 53.5804 102.202 53.7741 102.041 53.9277C101.896 54.0672 101.705 54.1348 101.554 54.1741C101.389 54.2171 101.194 54.2451 100.979 54.2628C100.547 54.2984 99.9755 54.2973 99.2781 54.2639C97.8798 54.197 95.918 53.997 93.4334 53.6665L93.4271 53.6656C89.3815 53.0746 84.3121 52.6157 82.2647 52.5495C80.161 52.5485 75.8022 52.1495 72.5598 51.6871L72.5598 51.6872L72.55 51.6856C70.9465 51.4242 69.4316 51.2614 68.2888 51.1966C67.7161 51.1641 67.2464 51.1567 66.9098 51.1721C66.7401 51.1799 66.6173 51.1929 66.5373 51.2076C66.5308 51.2088 66.5248 51.21 66.5193 51.2112C66.5098 51.2254 66.5045 51.2393 66.5006 51.2549C66.4912 51.2929 66.4832 51.3753 66.5194 51.5311C66.5952 51.8562 66.8294 52.3637 67.329 53.161C68.3193 54.7416 70.2297 57.2756 73.5054 61.4363L73.5062 61.4373C75.2677 63.6865 76.6725 65.629 77.6136 67.0895C78.0832 67.8181 78.4445 68.4378 78.6771 68.9215C78.7928 69.1621 78.8837 69.3836 78.9384 69.5766C78.9853 69.7424 79.0374 69.9897 78.957 70.2208L78.952 70.2351L78.9461 70.2491C78.7347 70.7552 78.3155 71.2655 77.8324 71.7239C77.3414 72.1897 76.7491 72.635 76.1466 73.0053C75.546 73.3745 74.9173 73.6801 74.3512 73.8548C74.0682 73.9421 73.7863 74.0013 73.5225 74.0133C73.2629 74.0252 72.9838 73.9931 72.7377 73.8605L72.7376 73.8606L72.7285 73.8555C72.6264 73.7977 72.5215 73.7074 72.4317 73.6244C72.3328 73.5329 72.217 73.4167 72.0875 73.2804C71.8279 73.0074 71.4974 72.6374 71.1087 72.1875C70.3304 71.2868 69.3054 70.0498 68.1226 68.5915C65.7562 65.6741 62.749 61.8597 59.8032 58.0528C56.8574 54.246 53.9706 50.4435 51.845 47.5501C50.7828 46.1042 49.9075 44.8811 49.3096 43.9964C49.0115 43.5555 48.7768 43.1905 48.6215 42.9208C48.545 42.788 48.4795 42.6641 48.4357 42.5589C48.4146 42.5082 48.3901 42.4421 48.3759 42.3708L48.3755 42.3688C48.3674 42.3278 48.3299 42.14 48.4451 41.9562C48.5612 41.7708 48.7499 41.685 48.8564 41.6439C48.9847 41.5943 49.1347 41.5585 49.2918 41.5309C49.6085 41.4752 50.0277 41.4404 50.5248 41.4221C51.5237 41.3852 52.9009 41.4128 54.5429 41.4997C57.8303 41.6737 62.2176 42.0874 66.8434 42.7156L66.8435 42.7156C72.6602 43.5067 76.8576 43.9324 79.6544 44.0222C81.0562 44.0672 82.0813 44.0268 82.7736 43.9141C83.1207 43.8575 83.3588 43.7866 83.5113 43.7143C83.6149 43.6651 83.6554 43.6268 83.6688 43.6113C83.7052 43.4671 83.691 43.1846 83.5492 42.7844C83.4061 42.3803 83.1607 41.9369 82.8517 41.551C80.8467 39.2 77.8479 35.4365 75.3517 32.2134C74.1021 30.5999 72.976 29.1187 72.1614 28.0147C71.7545 27.4633 71.4228 27.0026 71.1916 26.6652C71.0766 26.4973 70.9824 26.3541 70.9154 26.2429C70.8824 26.1882 70.851 26.133 70.8263 26.0822C70.8141 26.0571 70.7995 26.0249 70.7869 25.9891C70.7781 25.964 70.7529 25.8906 70.7529 25.7978C70.7529 25.5686 70.8627 25.357 70.95 25.2139C71.0497 25.0504 71.1847 24.8758 71.3369 24.7003C71.6429 24.3476 72.0557 23.9491 72.5018 23.5641C72.9492 23.1781 73.4402 22.797 73.9072 22.4806C74.3665 22.1694 74.8307 21.9015 75.219 21.7645Z" fill="#E86E34" stroke="#E86E34"/>
<path d="M248.47 81.1086L248.469 81.1078L245.503 48.5526L245.157 48.1915C245.157 48.1912 245.157 48.191 245.158 48.1908C251.728 41.8988 255.377 38.4524 257.522 36.6894C258.585 35.816 259.329 35.3116 259.906 35.098C260.206 34.9867 260.49 34.9426 260.767 34.9865C261.043 35.0302 261.26 35.1538 261.439 35.2919C262.074 35.7625 263.659 37.1989 265.649 39.0648C267.657 40.9473 270.107 43.2953 272.48 45.6054C274.853 47.9153 277.153 50.1895 278.86 51.9245C279.713 52.7914 280.421 53.5267 280.917 54.0657C281.164 54.3343 281.364 54.5596 281.504 54.7305C281.573 54.8149 281.635 54.8945 281.681 54.964C281.704 54.9981 281.73 55.0398 281.753 55.0849L281.753 55.0862C281.767 55.1142 281.817 55.2155 281.817 55.3464C281.817 55.5892 281.7 55.8268 281.599 55.9988C281.486 56.1935 281.33 56.4067 281.153 56.6244C280.798 57.0614 280.322 57.5566 279.824 58.0207C279.327 58.4848 278.794 58.9294 278.321 59.2616C278.086 59.4272 277.855 59.5716 277.645 59.6767C277.452 59.7733 277.213 59.8699 276.978 59.8699C276.829 59.8699 276.702 59.8069 276.657 59.7847L276.656 59.7842C276.587 59.7499 276.513 59.7054 276.439 59.6573C276.29 59.5601 276.103 59.4234 275.887 59.2564C275.453 58.9208 274.873 58.4402 274.19 57.8525C272.823 56.6758 271.026 55.0547 269.128 53.2701C267.274 51.527 265.42 49.867 263.938 48.6033C263.196 47.9711 262.551 47.4406 262.046 47.0494C261.793 46.8536 261.579 46.6954 261.408 46.5777C261.229 46.4544 261.122 46.3931 261.075 46.3726L261.067 46.369L261.059 46.3652C260.825 46.2534 260.643 46.2061 260.475 46.2028C260.309 46.1995 260.12 46.2384 259.872 46.3569C259.35 46.6072 258.663 47.1621 257.554 48.1908C256.817 48.8968 256.151 49.6638 255.673 50.335C255.433 50.6715 255.247 50.9752 255.123 51.2285C254.991 51.4967 254.956 51.6551 254.956 51.7186C254.956 51.7182 254.961 51.779 255.028 51.9257C255.09 52.0621 255.19 52.2365 255.331 52.4495C255.612 52.8751 256.034 53.4158 256.583 54.0561C257.68 55.3344 259.252 56.9715 261.141 58.8133C261.141 58.8136 261.142 58.8138 261.142 58.814L267.477 64.947L267.798 65.2582L267.525 65.6121L266.147 67.393L266.145 67.3965C265.417 68.3207 264.808 69.0782 264.203 69.5427C263.891 69.7825 263.559 69.9618 263.19 70.0446C262.817 70.1283 262.439 70.1061 262.047 69.9908C261.29 69.7687 260.45 69.189 259.404 68.3034C258.346 67.4072 257.017 66.1421 255.281 64.48C253.5 62.7738 251.773 61.268 250.403 60.1919C249.716 59.653 249.127 59.2278 248.669 58.9399C248.439 58.7955 248.251 58.6915 248.107 58.6252C247.991 58.5719 247.931 58.5568 247.914 58.5524C247.908 58.5507 247.908 58.5507 247.913 58.5507C247.613 58.5507 247.124 58.7283 246.506 59.1107C245.909 59.4801 245.261 59.9969 244.66 60.572C244.06 61.1472 243.521 61.7675 243.136 62.3374C242.736 62.9309 242.559 63.3882 242.559 63.6572C242.559 63.6719 242.567 63.743 242.632 63.8903C242.694 64.0304 242.793 64.2084 242.938 64.4265C243.226 64.8623 243.667 65.4196 244.267 66.0957C245.464 67.4459 247.258 69.2301 249.628 71.4015L249.63 71.4031C251.633 73.2549 253.448 75.0258 254.764 76.3859C255.421 77.0652 255.959 77.6467 256.335 78.0869C256.522 78.3059 256.675 78.4979 256.785 78.6537C256.839 78.7309 256.889 78.8092 256.928 78.8838C256.956 78.9362 257.023 79.067 257.023 79.2236C257.023 79.3638 256.983 79.4932 256.944 79.5911C256.903 79.6957 256.847 79.8032 256.784 79.9092C256.659 80.1214 256.487 80.3622 256.285 80.6152C255.881 81.1221 255.333 81.7147 254.736 82.2862L252.673 84.3281L252.334 84.6637L251.983 84.3406L248.47 81.1086Z" fill="#E86E34" stroke="#E86E34"/>
<path d="M45.7898 72.6283L45.7898 72.6283L45.783 72.6255C44.8366 72.2327 43.0011 71.9538 40.9336 71.8635C38.8824 71.7738 36.6864 71.873 35.0507 72.1927L35.0507 72.1928L35.0417 72.1944C34.4939 72.291 33.8124 72.6218 33.0581 73.1651C32.3117 73.7027 31.5284 74.4233 30.7803 75.2524C29.2796 76.9157 27.9648 78.9658 27.3725 80.7595C26.8515 82.4227 26.6225 83.2679 26.6302 84.0728C26.6379 84.8736 26.8804 85.6684 27.4359 87.2311C28.2224 89.3923 28.8716 90.7482 29.7668 91.8705C30.6625 92.9933 31.8295 93.9142 33.7121 95.16C35.0412 96.0084 35.9548 96.4869 36.9407 96.7632C37.9309 97.0408 39.0277 97.124 40.7402 97.124C44.8417 97.124 48.2096 95.8854 50.546 93.766C52.8782 91.6506 54.2217 88.6232 54.2217 84.9598C54.2217 79.4955 50.9061 74.6645 45.7898 72.6283ZM25.1787 69.159C27.1615 67.2937 28.8904 66.0046 30.7175 65.1255C32.548 64.2446 34.4497 63.7885 36.761 63.5536C42.029 62.9565 46.4751 63.3425 49.4213 64.718C63.6277 71.1855 67.2458 88.0071 56.8101 99.2173C55.0909 101.07 52.3342 102.769 49.3879 104.005C46.4395 105.241 43.2381 106.039 40.6025 106.039C37.713 106.039 34.1594 105.02 30.9608 103.501C27.7674 101.984 24.8439 99.9293 23.2589 97.7913C21.2995 95.1906 20.1661 93.5152 19.5431 91.6391C18.9204 89.7634 18.8203 87.7245 18.8203 84.4321C18.8203 80.7157 19.148 78.0315 20.1246 75.6974C21.1031 73.359 22.7121 71.4217 25.1787 69.159Z" fill="#E86E34" stroke="#E86E34"/>
<path d="M115.81 72.6371L115.807 72.6386C100.086 80.0668 83.0583 95.9016 75.7696 109.925C74.8817 111.561 73.9225 113.332 73.6381 113.876C72.4097 115.997 70.6613 120.148 69.2248 124.053C68.5034 126.014 67.8562 127.925 67.3884 129.502C67.1546 130.291 66.9642 131.001 66.8318 131.595C66.7017 132.179 66.6198 132.684 66.6198 133.048C66.6198 133.386 66.5102 134.131 66.3194 135.094C66.1323 136.039 65.8767 137.149 65.6039 138.194C65.2282 139.55 64.9551 141.757 64.7744 144.352C64.5926 146.961 64.502 149.998 64.502 153.033C64.502 156.068 64.5926 159.106 64.7744 161.715C64.9551 164.31 65.2282 166.516 65.6039 167.872C65.8767 168.918 66.1323 170.028 66.3194 170.972C66.5102 171.936 66.6198 172.68 66.6198 173.019C66.6198 173.556 66.811 174.475 67.1049 175.576C67.4045 176.698 67.8277 178.07 68.3249 179.544C69.319 182.491 70.6165 185.871 71.8306 188.529C72.3147 189.589 72.928 190.96 73.1284 191.472L73.1314 191.479L73.1314 191.479C73.5285 192.447 74.7225 194.544 76.1812 196.919C77.6485 199.308 79.4098 202.02 80.966 204.239C83.5132 207.947 88.798 213.517 94.097 218.435C96.7517 220.899 99.4204 223.209 101.766 225.05C104.093 226.877 106.14 228.272 107.549 228.88C108.086 229.138 109.503 229.914 110.58 230.623L110.587 230.628L110.594 230.632C115.979 233.926 123.132 236.909 130.376 239.07C137.617 241.23 144.986 242.578 150.802 242.578C152.311 242.578 153.569 242.52 154.537 242.42C155.479 242.322 156.216 242.179 156.63 241.973C156.738 241.919 156.859 241.845 156.956 241.738C157.059 241.625 157.157 241.45 157.138 241.227C157.12 241.017 157.006 240.867 156.91 240.774C156.813 240.68 156.695 240.606 156.578 240.547C156.13 240.319 155.322 240.117 154.187 239.935L154.185 239.935C150.863 239.416 145.841 237.864 140.822 235.939C135.811 234.016 130.853 231.738 127.653 229.783C126.533 229.047 125.072 228.247 124.501 227.974L124.479 227.963L124.455 227.954C124.218 227.869 123.955 227.737 123.723 227.599C123.485 227.457 123.316 227.332 123.254 227.272C123.119 227.143 122.654 226.79 122.054 226.361C121.437 225.92 120.639 225.371 119.804 224.838C105.491 215.524 89.8544 197.133 83.1448 181.528L83.143 181.524C78.7064 171.458 76.9216 158.748 78.0181 145.555L115.81 72.6371ZM115.81 72.6371C124.523 68.5976 125.723 68.1929 138.62 64.7586M115.81 72.6371L116.021 73.0907C124.699 69.0672 125.87 68.6714 138.749 65.2415M176.495 77.5297L176.5 77.5311C180.182 78.5198 183.017 79.3259 185.108 79.9745C187.211 80.6265 188.535 81.1107 189.216 81.4527L189.229 81.4588L189.241 81.4642C189.549 81.5984 190.034 81.8227 190.61 82.0892C190.729 82.1443 190.852 82.2012 190.979 82.2594C191.71 82.5972 192.54 82.978 193.302 83.31C197.536 85.2069 202.533 88.1559 206.639 91.1708L206.641 91.1725C209.024 92.9005 212.466 95.9164 215.628 98.9528C218.796 101.995 221.637 105.013 222.846 106.749C223.37 107.519 223.911 108.237 224.347 108.788C224.773 109.327 225.121 109.734 225.254 109.861C225.316 109.921 225.446 110.081 225.593 110.308C225.737 110.529 225.873 110.779 225.961 111.002L225.97 111.027L225.983 111.051C226.213 111.491 226.801 112.444 227.375 113.375C227.517 113.604 227.657 113.831 227.791 114.049L227.8 114.064L227.811 114.079C228.174 114.585 228.506 115.141 228.745 115.607C228.865 115.84 228.958 116.044 229.02 116.204C229.066 116.323 229.083 116.39 229.09 116.417C229.083 116.428 229.072 116.445 229.055 116.467C228.988 116.553 228.871 116.668 228.698 116.807C228.354 117.082 227.852 117.398 227.268 117.707C226.094 118.33 224.686 118.879 223.731 119.032C222.968 119.151 222.323 119.379 221.96 119.81C221.765 120.043 221.664 120.322 221.67 120.626C221.675 120.917 221.778 121.198 221.931 121.46C222.23 121.974 222.784 122.517 223.527 123.078C224.279 123.647 225.261 124.262 226.463 124.912C227.368 125.404 228.294 125.902 229.145 126.359C230.708 127.199 232.021 127.904 232.502 128.198C233.276 128.669 234.53 129.336 235.286 129.731L235.302 129.739L235.318 129.746C236.04 130.06 237.871 131.098 239.39 132.023L239.396 132.027L239.402 132.031C240.3 132.543 241.039 132.938 241.649 133.202C242.249 133.462 242.781 133.621 243.249 133.605C243.764 133.587 244.163 133.358 244.453 132.956C244.717 132.589 244.886 132.088 245.026 131.518L245.028 131.509L245.03 131.501C245.229 130.544 245.839 128.593 246.323 127.137C246.805 125.686 247.771 122.714 248.394 120.527C249.08 118.36 250.108 115.339 250.659 113.758C250.992 112.851 251.2 112.076 251.268 111.441C251.335 110.822 251.28 110.242 250.969 109.821C250.63 109.363 250.099 109.23 249.543 109.279C249 109.327 248.355 109.551 247.629 109.907M176.495 77.5297L247.846 110.358M176.495 77.5297C172.094 76.2977 169.682 76.1631 158.034 76.1631C151.211 76.1631 147.197 76.2462 143.645 76.7194C140.101 77.1914 137.002 78.0538 132.014 79.6353C121.617 82.9763 109.906 89.9283 102.041 97.4601M176.495 77.5297L102.041 97.4601M247.629 109.907C247.628 109.908 247.627 109.908 247.626 109.909L247.846 110.358M247.629 109.907C247.629 109.907 247.63 109.907 247.63 109.907L247.846 110.358M247.629 109.907C246.555 110.421 244.744 111.061 243.566 111.249L243.551 111.251L243.536 111.255C243.011 111.372 242.669 111.435 242.393 111.428C242.15 111.423 241.96 111.362 241.745 111.197C241.508 111.016 241.234 110.703 240.86 110.16C240.489 109.623 240.045 108.898 239.459 107.923L239.457 107.92C234.055 99.0999 225.199 89.1574 217.912 83.6413L217.909 83.6389C216.981 82.9474 216.087 82.2727 215.4 81.7467C214.731 81.2337 214.29 80.8863 214.182 80.7895M247.846 110.358C246.744 110.885 244.885 111.545 243.645 111.743C241.579 112.204 241.372 112.073 239.03 108.181C233.658 99.4084 224.842 89.5145 217.61 84.0399C215.751 82.6548 214.029 81.3356 213.822 81.1377M214.182 80.7895C214.194 80.8027 214.205 80.8161 214.216 80.8294L213.822 81.1377M214.182 80.7895C214.176 80.7845 214.172 80.7802 214.168 80.7766L213.822 81.1377M214.182 80.7895C214.115 80.7157 214.028 80.6453 213.959 80.5911C213.862 80.5152 213.738 80.4248 213.592 80.3231C213.301 80.119 212.908 79.8576 212.441 79.5554C211.506 78.9506 210.263 78.1734 208.919 77.3482M213.822 81.1377C213.616 80.8739 211.343 79.4228 208.657 77.7738M208.657 77.7738L208.922 77.3498C208.921 77.3493 208.92 77.3487 208.919 77.3482M208.657 77.7738C200.529 72.6949 187.443 67.2203 180.418 65.9671C178.903 65.7032 176.423 65.1756 174.908 64.7798C171.258 63.8564 156.588 63.3947 148.392 63.9883M208.657 77.7738L208.918 77.3477C208.919 77.3479 208.919 77.348 208.919 77.3482M208.919 77.3482C200.755 72.247 187.611 66.7423 180.506 65.4749L180.504 65.4745C179.001 65.2127 176.535 64.6879 175.035 64.2961L175.031 64.2951C173.143 63.8175 168.505 63.4716 163.37 63.3154C158.214 63.1585 152.481 63.1911 148.36 63.4893M148.36 63.4893C148.361 63.4892 148.363 63.4892 148.364 63.4891L148.392 63.9883M148.36 63.4893C148.358 63.4894 148.357 63.4895 148.355 63.4896L148.392 63.9883M148.36 63.4893C144.765 63.6881 140.389 64.284 138.62 64.7586M148.392 63.9883C144.81 64.1862 140.471 64.7798 138.749 65.2415M138.749 65.2415L138.62 64.7584C138.62 64.7585 138.62 64.7585 138.62 64.7586M138.749 65.2415L138.62 64.7586M102.041 97.4601C87.5858 111.435 79.5221 127.552 78.0181 145.555L102.041 97.4601Z" fill="#E86E34" stroke="#E86E34"/>
<path d="M264.914 83.5251L264.914 83.5252C262.713 84.5957 261.039 85.4119 259.786 86.0731C258.541 86.73 257.673 87.2538 257.108 87.7448C256.526 88.251 256.218 88.7663 256.188 89.3957C256.161 89.9653 256.372 90.5667 256.605 91.2041L256.606 91.2067L256.606 91.2067C256.969 92.1831 257.321 92.9805 257.754 93.5592C258.204 94.1603 258.754 94.5423 259.489 94.6518C260.189 94.7561 261.001 94.6038 261.97 94.28C262.945 93.9538 264.138 93.4318 265.62 92.7389L264.914 83.5251ZM264.914 83.5251L264.924 83.5205C268.045 82.0858 274.291 79.0193 279.542 76.4409C280.072 76.1805 280.592 75.9251 281.098 75.6768C283.861 74.321 286.522 73.1128 288.591 72.2508C289.624 71.8201 290.515 71.4735 291.2 71.2378C291.541 71.1202 291.838 71.0277 292.08 70.9663C292.298 70.9106 292.537 70.862 292.726 70.8785L292.736 70.8793L292.745 70.8805C292.98 70.9099 293.189 71.041 293.349 71.1638C293.522 71.2969 293.704 71.474 293.892 71.6795C294.267 72.0915 294.703 72.662 295.173 73.3406C296.116 74.701 297.231 76.5429 298.337 78.538C300.542 82.5138 302.754 87.1738 303.496 89.9086C304.456 93.25 304.176 96.4315 302.77 99.1755C301.366 101.916 298.861 104.181 295.438 105.735L295.436 105.736C290.794 107.824 287.131 108.049 283.185 106.332L283.185 106.332L283.177 106.328C282.488 106.014 281.748 105.778 281.12 105.645C280.807 105.579 280.53 105.54 280.308 105.529C280.11 105.518 279.99 105.531 279.931 105.545C279.918 105.554 279.892 105.576 279.85 105.617C279.775 105.689 279.679 105.796 279.563 105.938C279.332 106.222 279.045 106.621 278.723 107.112C278.081 108.092 277.316 109.411 276.601 110.845L276.601 110.845L276.598 110.849C275.873 112.271 275.148 113.644 274.56 114.721C273.982 115.778 273.515 116.591 273.317 116.858L273.308 116.869L273.3 116.879C272.968 117.276 272.561 117.547 272.079 117.594C271.601 117.641 271.15 117.459 270.747 117.156C269.962 116.566 269.196 115.395 268.467 113.8C268.467 113.799 268.467 113.799 268.466 113.798L267.09 110.833L266.988 110.612L267.099 110.395L270.542 103.667L270.543 103.665C272.447 99.986 273.376 97.8143 273.529 96.1721C273.674 94.6144 273.121 93.4931 271.779 91.886L270.516 90.4562L265.62 92.7386L264.914 83.5251ZM291.982 83.7094L291.981 83.7088C291.665 83.1942 291.252 82.7231 290.835 82.3689C290.418 82.0149 290.046 81.8183 289.795 81.7673C289.789 81.7673 289.778 81.7675 289.762 81.7686C289.731 81.7709 289.689 81.7759 289.635 81.785C289.527 81.8034 289.387 81.8353 289.217 81.8818C288.876 81.9748 288.439 82.1184 287.932 82.3022C286.92 82.6692 285.659 83.186 284.388 83.7479C283.116 84.3096 281.841 84.9131 280.801 85.4524C279.792 85.9754 279.059 86.4108 278.741 86.6775C278.741 86.6779 278.741 86.6784 278.741 86.6788C278.734 86.7347 278.735 86.832 278.757 86.9802C278.801 87.2751 278.918 87.6819 279.103 88.1818C279.473 89.1758 280.084 90.4528 280.81 91.7728C281.534 93.0906 282.364 94.4368 283.163 95.5684C283.97 96.7111 284.716 97.5919 285.271 98.0217C287.8 99.9083 291.779 99.108 294.858 95.6471L294.859 95.6459C295.755 94.6445 296.062 93.3411 295.63 91.4312C295.193 89.4951 294.007 86.997 291.982 83.7094ZM278.746 86.6505C278.747 86.649 278.747 86.6481 278.747 86.648C278.747 86.6479 278.747 86.6487 278.746 86.6505Z" fill="#E86E34" stroke="#E86E34"/>
<path d="M141.445 109.072L141.451 109.054L141.459 109.037C141.722 108.433 142.267 108.106 143.073 107.924C143.865 107.746 145.017 107.681 146.67 107.681H146.712C147.95 107.681 148.941 107.681 149.7 107.795C150.482 107.912 151.12 108.164 151.556 108.748C151.969 109.302 152.137 110.076 152.214 111.064C152.293 112.064 152.283 113.387 152.266 115.109C152.267 117.585 152.677 121.562 153.283 123.885C153.916 126.308 154.401 130.573 154.401 133.443C154.401 135.87 154.439 137.149 154.719 138.167C154.992 139.16 155.503 139.932 156.57 141.317L156.57 141.317L156.576 141.324L158.78 144.292L158.878 144.425V144.591V165.368V186.145V186.456L158.599 186.593L156.193 187.779C156.192 187.779 156.191 187.779 156.191 187.78C154.863 188.449 152.37 189.51 150.629 190.111C150.015 190.346 149.374 190.586 148.768 190.814C147.655 191.232 146.662 191.605 146.18 191.814L146.173 191.817L146.166 191.82C144.328 192.551 142.387 193.231 140.703 193.747C139.034 194.257 137.576 194.619 136.724 194.69L136.713 194.691L136.702 194.691L134.98 194.757L134.461 194.777V194.258V169.193V144.129V143.956L134.567 143.821L136.836 140.923C136.837 140.922 136.838 140.921 136.838 140.921C137.871 139.569 138.363 138.831 138.628 137.841C138.9 136.821 138.938 135.508 138.938 132.982C138.938 129.98 139.423 125.783 139.986 123.559C140.524 121.433 140.935 117.586 141.004 114.968C141.004 113.672 141.056 112.376 141.135 111.326C141.174 110.801 141.22 110.333 141.27 109.956C141.318 109.593 141.375 109.274 141.445 109.072Z" fill="#E86E34" stroke="#E86E34"/>
<path d="M173.699 116.378L173.694 116.367L173.69 116.356C173.179 115.134 172.895 113.571 172.842 112.192C172.815 111.5 172.846 110.837 172.941 110.273C173.034 109.727 173.198 109.202 173.492 108.851C173.881 108.386 174.558 108.11 175.385 107.94C176.233 107.765 177.338 107.682 178.697 107.682C179.846 107.682 180.78 107.71 181.507 107.856C182.247 108.005 182.846 108.291 183.241 108.863C183.619 109.412 183.75 110.143 183.768 111.038C183.786 111.943 183.688 113.101 183.533 114.567L183.532 114.572C183.429 115.467 183.358 116.12 183.345 116.637C183.332 117.149 183.377 117.487 183.479 117.761C183.579 118.03 183.749 118.278 184.057 118.584C184.372 118.897 184.804 119.246 185.412 119.728C189.392 122.859 191.374 126.752 191.936 132.538C192.076 133.914 192.111 135.354 192.067 136.571C192.024 137.762 191.904 138.811 191.7 139.358C191.552 139.755 191.455 140.307 191.439 140.895C191.423 141.482 191.489 142.065 191.638 142.524L191.643 142.538L191.647 142.552C191.94 143.677 191.953 145.302 191.493 146.418C191.188 147.306 191.121 148.707 191.437 149.861C191.626 150.482 191.715 151.257 191.715 152.012C191.715 152.768 191.626 153.545 191.436 154.167C191.123 155.246 191.188 156.576 191.555 157.523C192.089 158.702 192.086 160.018 191.704 161.114L191.704 161.114L191.7 161.124C191.552 161.521 191.455 162.074 191.439 162.654C191.423 163.234 191.489 163.795 191.635 164.215L191.64 164.23L191.645 164.245C191.799 164.798 191.87 165.507 191.87 166.193C191.87 166.88 191.799 167.588 191.645 168.141C191.527 168.563 191.474 169.246 191.499 170.019C191.524 170.782 191.624 171.585 191.785 172.236C192.171 173.682 192.218 174.879 191.659 175.795C191.096 176.717 190.018 177.198 188.571 177.469C183.586 178.45 174.055 181.601 169.13 183.894C168.373 184.255 167.13 184.535 166.299 184.535C165.988 184.535 165.614 184.517 165.294 184.314C164.951 184.097 164.77 183.74 164.661 183.308C164.553 182.88 164.496 182.298 164.463 181.524C164.43 180.742 164.422 179.731 164.422 178.429C164.422 176.895 164.509 175.293 164.657 173.954C164.732 173.285 164.822 172.675 164.926 172.169C165.027 171.678 165.149 171.243 165.302 170.947C165.605 170.334 165.713 169.961 165.713 169.706C165.713 169.497 165.642 169.323 165.403 169.094C164.752 168.47 164.458 167.409 164.431 166.497C164.416 166.029 164.47 165.557 164.606 165.151C164.739 164.754 164.974 164.356 165.371 164.139C165.591 164.018 165.815 163.608 165.791 162.845C165.768 162.13 165.522 161.282 165.058 160.569C164.685 160.032 164.465 159.526 164.5 158.925C164.533 158.358 164.792 157.776 165.172 157.082C165.55 156.391 165.704 155.983 165.723 155.66C165.739 155.373 165.651 155.089 165.338 154.639L165.331 154.629L165.325 154.619C164.777 153.745 164.474 152.911 164.474 152.045C164.474 151.179 164.777 150.345 165.325 149.471L165.325 149.471L165.33 149.463C165.662 148.954 165.765 148.661 165.765 148.417C165.765 148.173 165.662 147.88 165.33 147.371C164.763 146.503 164.459 145.474 164.431 144.575C164.403 143.721 164.627 142.779 165.371 142.372L165.382 142.366L165.393 142.36C165.393 142.36 165.424 142.341 165.475 142.264C165.528 142.183 165.585 142.064 165.635 141.911C165.737 141.604 165.799 141.213 165.799 140.832C165.799 140.451 165.737 140.06 165.635 139.753C165.585 139.599 165.528 139.481 165.475 139.4C165.424 139.323 165.393 139.304 165.393 139.303L165.375 139.295L165.357 139.284C165.082 139.122 164.935 138.81 164.847 138.568C164.747 138.294 164.671 137.956 164.612 137.584C164.494 136.838 164.435 135.889 164.43 134.906C164.426 133.92 164.476 132.884 164.581 131.961C164.685 131.049 164.845 130.206 165.078 129.63C165.411 128.801 165.884 127.314 166.158 126.333C166.23 126.007 166.417 125.614 166.655 125.205C166.905 124.778 167.235 124.291 167.622 123.777C168.396 122.75 169.412 121.592 170.499 120.551C171.801 119.305 172.684 118.326 173.198 117.585C173.455 117.214 173.603 116.925 173.671 116.708C173.739 116.491 173.711 116.402 173.699 116.378Z" fill="#E86E34" stroke="#E86E34"/>
<path d="M40.4409 115.583L40.4409 115.583L40.4446 115.587C42.1493 117.753 43.2712 119.568 43.9597 121.572C44.648 123.575 44.8908 125.731 44.8908 128.561C44.8908 131.833 44.49 134.462 43.4825 136.844C42.4747 139.227 40.8759 141.326 38.538 143.565C36.1346 145.867 34.0123 147.382 31.5505 148.313C29.093 149.243 26.3379 149.574 22.6954 149.574C20.1485 149.574 18.5192 149.509 17.1395 149.235C15.7451 148.957 14.6285 148.47 13.099 147.672C5.86362 143.971 0.5 135.898 0.5 128.561C0.5 122.509 4.38302 115.377 9.93152 111.274C10.8516 110.592 11.6372 110.067 12.315 109.71C12.9867 109.355 13.5961 109.141 14.1543 109.131C14.7434 109.12 15.2344 109.337 15.6348 109.751C16.0149 110.144 16.3024 110.703 16.5517 111.368L16.5517 111.368L16.5547 111.376C17.1343 113.009 17.4482 114.161 17.0279 115.339C16.8217 115.917 16.452 116.467 15.9272 117.067C15.403 117.666 14.7008 118.342 13.805 119.167L13.8047 119.167C10.4488 122.252 8.93094 125.84 9.13556 129.282C9.34015 132.722 11.2721 136.106 14.9968 138.774C16.4835 139.833 17.2958 140.358 18.3113 140.645C19.343 140.936 20.6136 140.989 23.0361 140.989C25.2443 140.956 26.5896 140.889 27.6438 140.662C28.6718 140.441 29.4386 140.063 30.4727 139.36L30.4786 139.356L30.4846 139.353C32.207 138.253 33.4491 137.169 34.3854 135.942C35.3198 134.717 35.9673 133.327 36.471 131.592C36.8936 130.032 36.897 128.202 36.5404 126.486C36.1826 124.765 35.4732 123.208 34.5184 122.172L34.516 122.169C33.7189 121.291 33.3519 120.017 33.3703 118.718C33.3889 117.413 33.7948 116.028 34.6146 114.884C35.0208 114.293 35.4234 113.815 35.8521 113.5C36.2963 113.173 36.7842 113.009 37.323 113.085C37.8391 113.157 38.3322 113.439 38.8227 113.852C39.3164 114.267 39.8479 114.848 40.4409 115.583Z" fill="#E86E34" stroke="#E86E34"/>
<path d="M291.565 131.764L291.565 131.764L291.565 131.758C291.911 126.991 292.674 123.559 294.143 121.169C295.634 118.743 297.817 117.442 300.846 116.86C302.038 116.592 303.429 116.392 303.988 116.325L303.998 116.324L304.008 116.323C308.817 115.937 312.911 119.486 315.268 124.371C317.635 129.276 318.344 135.682 316.295 141.331L316.294 141.334C315.5 143.483 314.557 144.943 313.252 145.423C311.906 145.917 310.434 145.293 308.829 143.989L308.829 143.99L308.821 143.983C308.377 143.607 308.014 143.29 307.745 142.999C307.473 142.704 307.264 142.399 307.171 142.035C307.077 141.669 307.115 141.305 307.219 140.92C307.32 140.543 307.498 140.105 307.72 139.58L307.72 139.58L307.724 139.571C308.402 138.056 308.713 135.539 308.653 133.085C308.624 131.867 308.503 130.687 308.3 129.681C308.096 128.666 307.816 127.875 307.493 127.396C306.153 125.505 304 124.862 302.348 125.71L302.348 125.71L302.335 125.716C302.145 125.807 301.899 126.048 301.629 126.623C301.364 127.189 301.106 128.009 300.851 129.15C300.341 131.428 299.862 134.882 299.311 139.894C299.066 142.306 298.572 144.252 297.725 145.892C296.875 147.538 295.682 148.849 294.079 150.009L294.079 150.009L294.069 150.015C293.166 150.638 292.364 151.034 291.234 151.264C290.129 151.49 288.723 151.555 286.623 151.555L286.493 151.555C284.067 151.555 282.702 151.555 281.617 151.191C280.482 150.81 279.675 150.041 278.287 148.711L278.287 148.712L278.279 148.704C277.513 147.936 276.794 147.148 276.263 146.487C275.999 146.157 275.774 145.851 275.612 145.589C275.531 145.459 275.461 145.33 275.409 145.209C275.361 145.098 275.309 144.948 275.309 144.789C275.309 144.742 275.294 144.629 275.243 144.442C275.195 144.264 275.123 144.05 275.033 143.813C274.851 143.34 274.603 142.8 274.339 142.328L274.339 142.328L274.338 142.325C273.943 141.605 273.677 140.363 273.504 138.94C273.328 137.493 273.239 135.78 273.235 134.063C273.23 132.346 273.31 130.614 273.475 129.127C273.638 127.658 273.89 126.371 274.253 125.583L274.254 125.582C274.798 124.41 275.341 123.044 275.542 122.466C276.037 120.967 277.685 120.521 279.193 120.704C280.74 120.891 282.435 121.745 283.391 123.21L283.395 123.217L283.399 123.224C283.682 123.687 283.836 124.176 283.825 124.714C283.815 125.243 283.645 125.781 283.349 126.35C281.268 130.498 280.959 135.1 281.92 138.45C282.401 140.126 283.189 141.45 284.188 142.263C285.17 143.063 286.384 143.392 287.815 143.049C288.827 142.807 289.643 142.044 290.275 140.268C290.913 138.475 291.324 135.748 291.565 131.764Z" fill="#E86E34" stroke="#E86E34"/>
<path d="M197.619 160.691L197.619 160.689C197.482 149.067 197.609 146.368 198.686 143.682C199.407 141.776 199.964 140.534 200.693 139.64C201.441 138.721 202.34 138.203 203.644 137.663C206.389 136.522 210.547 136.504 213.983 137.147C215.709 137.47 217.296 137.968 218.467 138.604C219.595 139.218 220.521 140.066 220.521 141.159C220.521 141.436 220.619 141.883 220.801 142.392C220.979 142.887 221.219 143.392 221.468 143.782C222.003 144.537 222.26 145.645 222.388 147.875C222.519 150.138 222.518 153.669 222.449 159.37L222.449 159.372L222.243 173.157L222.236 173.614L221.78 173.648L213.86 174.242L213.86 174.242L213.853 174.242C213.429 174.268 212.997 174.294 212.559 174.321C208.512 174.568 204.002 174.843 202.13 174.903L202.13 174.903L202.122 174.903L198.334 174.969L197.833 174.977L197.826 174.476L197.619 160.691Z" fill="#E86E34" stroke="#E86E34"/>
<path d="M243.822 145.246L243.82 145.247C242.55 146.235 242.049 147.667 241.838 150.016M243.822 145.246L242.336 150.061M243.822 145.246C244.972 144.358 246.227 143.945 247.487 144.038C248.743 144.131 249.948 144.721 251.012 145.738C251.837 146.494 252.347 147.105 252.612 148.222C252.861 149.273 252.892 150.775 252.892 153.293C252.892 159.722 251.925 167.166 250.388 171.72C250.117 172.563 249.88 173.438 249.711 174.174C249.538 174.93 249.448 175.487 249.448 175.719C249.448 175.992 249.34 176.397 249.197 176.835C249.045 177.298 248.829 177.875 248.564 178.53C248.034 179.842 247.303 181.492 246.491 183.22C244.871 186.67 242.914 190.47 241.587 192.543M243.822 145.246L241.166 192.275M241.838 150.016L242.336 150.061M241.838 150.016C241.838 150.016 241.838 150.016 241.838 150.016L242.336 150.061M241.838 150.016C240.462 165.375 239.778 169.074 236.913 176.259L236.911 176.264C236.129 178.283 234.83 180.985 233.612 183.285C233.004 184.433 232.419 185.476 231.933 186.277C231.69 186.678 231.474 187.014 231.294 187.271C231.11 187.533 230.986 187.681 230.922 187.74M242.336 150.061C240.959 165.429 240.27 169.189 237.378 176.445C235.793 180.534 232.143 187.328 231.248 188.119M230.922 187.74C230.925 187.738 230.928 187.735 230.93 187.733L231.248 188.119M230.922 187.74C230.92 187.742 230.918 187.743 230.917 187.745L231.248 188.119M230.922 187.74C230.657 187.959 230.406 188.216 230.216 188.475C230.044 188.71 229.855 189.033 229.852 189.365M231.248 188.119C230.766 188.515 230.352 189.043 230.352 189.373C230.352 190.032 228.493 192.209 223.809 197.09M223.809 197.09L223.451 196.741C223.45 196.742 223.45 196.742 223.45 196.742M223.809 197.09C220.09 200.915 214.305 205.467 210.379 207.511M223.809 197.09L223.448 196.744C223.449 196.743 223.449 196.743 223.45 196.742M229.852 189.365C229.853 189.366 229.852 189.368 229.852 189.373C229.852 189.37 229.852 189.368 229.852 189.365ZM229.852 189.365C229.852 189.365 229.847 189.401 229.808 189.487C229.763 189.586 229.688 189.719 229.572 189.894C229.341 190.242 228.977 190.711 228.456 191.324C227.416 192.548 225.79 194.303 223.45 196.742M223.45 196.742C219.757 200.54 214.016 205.052 210.151 207.066M210.379 207.511L210.154 207.065C210.153 207.065 210.152 207.066 210.151 207.066M210.379 207.511C209.07 208.171 207.486 209.094 206.935 209.49C206.384 209.886 204.18 210.875 202.114 211.667C201.382 211.947 200.615 212.244 199.897 212.522C198.587 213.03 197.438 213.475 196.948 213.646C193.16 215.097 187.168 216.416 179.661 217.405C171.671 218.461 170.845 218.461 163.131 217.339C158.585 216.68 153.902 215.756 152.593 215.295M210.379 207.511L210.148 207.068C210.149 207.067 210.15 207.067 210.151 207.066M210.151 207.066C208.834 207.73 207.225 208.666 206.643 209.084C206.416 209.247 205.776 209.574 204.887 209.974C204.018 210.366 202.96 210.807 201.935 211.2C201.193 211.484 200.42 211.783 199.699 212.063C198.398 212.567 197.265 213.006 196.784 213.173L196.777 213.176L196.769 213.179C193.036 214.609 187.09 215.922 179.595 216.91L179.595 216.91C175.594 217.438 173.424 217.697 171.294 217.688C169.166 217.68 167.066 217.406 163.203 216.844L163.203 216.844C160.938 216.516 158.638 216.121 156.744 215.752C154.843 215.381 153.386 215.043 152.768 214.826M152.768 214.826C152.77 214.827 152.773 214.828 152.776 214.829L152.593 215.295M152.768 214.826C152.765 214.825 152.762 214.824 152.76 214.823L152.593 215.295M152.768 214.826C151.398 214.289 150.127 213.975 149.173 213.913C148.703 213.883 148.262 213.91 147.916 214.037C147.74 214.102 147.561 214.204 147.424 214.364C147.279 214.533 147.203 214.741 147.203 214.965C147.203 215.127 147.272 215.249 147.31 215.309C147.355 215.379 147.409 215.439 147.458 215.488C147.558 215.588 147.688 215.693 147.833 215.798C148.127 216.01 148.539 216.266 149.032 216.546C150.02 217.107 151.376 217.789 152.866 218.453M152.593 215.295C149.907 214.239 147.703 214.107 147.703 214.965C147.703 215.295 150.114 216.68 153.075 217.999M153.075 217.999L152.859 218.45C152.861 218.451 152.864 218.452 152.866 218.453M153.075 217.999C155.089 218.963 157.103 219.895 158.327 220.462C158.861 220.709 159.244 220.887 159.412 220.967C161.34 221.824 170.707 224.133 175.322 224.859M153.075 217.999L152.872 218.456C152.87 218.455 152.868 218.454 152.866 218.453M152.866 218.453C154.312 219.146 155.758 219.821 156.911 220.357C157.368 220.569 157.778 220.759 158.124 220.919C158.653 221.164 159.031 221.339 159.196 221.418L159.209 221.424L159.209 221.424C160.222 221.875 163.095 222.676 166.24 223.448C169.405 224.224 172.915 224.986 175.243 225.352M175.243 225.352C175.243 225.352 175.243 225.352 175.242 225.352L175.322 224.859M175.243 225.352C175.244 225.352 175.244 225.352 175.244 225.353L175.322 224.859M175.243 225.352C179.804 226.086 185.648 226.167 190.659 225.778C193.167 225.583 195.48 225.269 197.33 224.855C198.254 224.648 199.073 224.414 199.747 224.153C200.402 223.9 200.958 223.607 201.337 223.26M175.322 224.859C184.344 226.31 198.532 225.188 201.012 222.88M201.012 222.88L201.324 223.271C201.328 223.267 201.332 223.264 201.337 223.26M201.012 222.88C201.425 222.55 202.114 222.286 202.596 222.286C203.56 222.286 212.514 218.197 215.338 216.482C226.633 209.49 235.449 201.245 241.166 192.275M201.012 222.88L201.353 223.246C201.347 223.251 201.342 223.256 201.337 223.26M201.337 223.26C201.493 223.138 201.715 223.018 201.955 222.927C202.204 222.833 202.435 222.786 202.596 222.786C202.723 222.786 202.866 222.756 202.99 222.724C203.126 222.69 203.286 222.641 203.464 222.581C203.82 222.461 204.27 222.291 204.783 222.084C205.812 221.67 207.117 221.102 208.477 220.482C211.189 219.245 214.158 217.783 215.597 216.909L215.601 216.907C226.944 209.886 235.821 201.592 241.587 192.543M241.587 192.543C241.587 192.544 241.587 192.544 241.587 192.544L241.166 192.275M241.587 192.543L241.166 192.275" fill="#E86E34" stroke="#E86E34"/>
<path d="M105.316 152.306L105.357 152.274L105.404 152.252C105.404 152.252 105.404 152.252 105.404 152.252C105.409 152.249 105.446 152.225 105.505 152.142C105.565 152.057 105.628 151.936 105.687 151.783C105.803 151.477 105.878 151.092 105.878 150.724C105.878 150.212 106.019 149.635 106.234 149.115C106.449 148.595 106.759 148.084 107.134 147.725C107.698 147.184 108.432 146.917 109.675 146.789C110.909 146.661 112.732 146.663 115.55 146.728L115.552 146.728L122.509 146.926L122.89 146.937L122.98 147.308L123.461 149.282C123.588 149.766 123.967 150.736 124.5 151.911C125.028 153.079 125.693 154.418 126.374 155.623L126.376 155.627L128.855 160.112L128.918 160.225V160.354V178.097C128.918 182.982 128.849 187.457 128.736 190.737C128.68 192.376 128.613 193.723 128.538 194.675C128.501 195.149 128.461 195.535 128.417 195.814C128.396 195.951 128.371 196.078 128.342 196.18C128.327 196.23 128.307 196.291 128.278 196.35C128.258 196.39 128.193 196.52 128.047 196.604C127.948 196.66 127.821 196.703 127.713 196.735C127.591 196.771 127.441 196.81 127.271 196.85C126.93 196.929 126.485 197.02 125.969 197.115C124.936 197.306 123.603 197.522 122.221 197.72L122.22 197.72C119.381 198.123 115.981 198.105 112.937 197.78C109.914 197.458 107.153 196.824 105.644 195.942L105.635 195.937L105.627 195.932C105.252 195.693 104.789 195.478 104.345 195.323C103.892 195.165 103.506 195.087 103.278 195.087C102.957 195.087 102.64 195.02 102.345 194.844C102.053 194.669 101.818 194.408 101.627 194.075C101.255 193.429 101.01 192.44 100.837 191.037C100.487 188.212 100.402 183.429 100.437 175.59C100.437 168.475 100.471 164.494 100.662 162.071C100.758 160.857 100.895 160.006 101.097 159.335C101.301 158.657 101.567 158.18 101.896 157.706C102.588 156.579 103.458 155.101 103.784 154.35L103.787 154.343L103.791 154.335C103.983 153.931 104.262 153.505 104.534 153.15C104.8 152.802 105.09 152.479 105.316 152.306Z" fill="#E86E34" stroke="#E86E34"/>
<path d="M36.9611 175.593L36.9784 175.585L36.9962 175.579C37.3784 175.446 37.7816 175.311 38.1179 175.21C38.2856 175.159 38.4417 175.115 38.5725 175.083C38.674 175.058 38.8016 175.03 38.9133 175.024C39.3698 174.975 39.7938 175.24 40.1109 175.514C40.4605 175.815 40.8079 176.238 41.1241 176.714C41.7559 177.665 42.3199 178.913 42.5414 180.044L42.5429 180.052L42.5441 180.059C42.7441 181.272 43.3537 183.419 43.8335 184.863C44.037 185.466 44.229 186.034 44.4099 186.569C45.0394 188.431 45.5346 189.896 45.9108 191.054C46.393 192.538 46.6895 193.547 46.8211 194.255C46.9505 194.952 46.947 195.481 46.6787 195.908C46.5491 196.114 46.3792 196.261 46.2151 196.38C46.1096 196.457 45.9821 196.538 45.8586 196.617C45.8066 196.65 45.7554 196.682 45.7068 196.714C45.2408 197.044 44.8297 197.307 44.4614 197.468C44.0894 197.63 43.6994 197.717 43.3089 197.606C42.9186 197.495 42.6317 197.217 42.3997 196.882C42.1686 196.549 41.9542 196.105 41.7282 195.572L41.7281 195.572L41.7252 195.565C40.752 193.169 38.4008 185.688 37.9107 183.276C37.8255 182.868 37.7509 182.583 37.6696 182.381C37.5896 182.182 37.5202 182.107 37.4716 182.072C37.4257 182.039 37.3418 182.001 37.1465 181.996C36.9456 181.99 36.6746 182.019 36.2877 182.083C35.6346 182.217 34.4898 182.41 33.3561 182.6C32.7932 182.695 32.233 182.789 31.7372 182.876C30.7084 183.056 29.9329 183.228 29.3493 183.432C28.7664 183.636 28.4215 183.857 28.21 184.108C28.0059 184.349 27.8831 184.669 27.8492 185.163C27.8145 185.668 27.8754 186.319 28.0122 187.186L28.0134 187.194L28.0144 187.202C28.2148 188.802 28.8902 191.331 29.4317 192.824C30.2084 194.754 30.5068 196.619 30.3305 198.068C30.1572 199.491 29.4797 200.703 28.1439 200.884C27.5142 200.99 26.9159 200.964 26.4458 200.565C26.0072 200.193 25.7939 199.585 25.6535 198.855C25.3765 197.861 24.764 195.71 24.286 194.075C23.7354 192.427 23.1102 190.367 22.8979 189.418C22.7091 188.574 22.1255 187.389 21.6784 186.774C21.2958 186.287 21.051 186.126 20.7532 186.075C20.3975 186.014 19.8844 186.093 18.9132 186.358C17.6635 186.757 14.8448 187.613 12.647 188.271L12.647 188.271L12.6424 188.272C10.4715 188.899 8.82726 189.152 7.64807 188.881C7.03743 188.741 6.53742 188.458 6.16348 188.01C5.79555 187.57 5.58075 187.008 5.46799 186.36L5.46792 186.36L5.46661 186.352C5.43434 186.146 5.42613 185.922 5.48391 185.69C5.5429 185.454 5.66277 185.241 5.84138 185.047C6.17923 184.68 6.74162 184.368 7.55518 184.039C9.19934 183.373 12.1778 182.524 17.3971 181.11C19.4663 180.516 22.5659 179.658 24.2894 179.196C24.5239 179.133 24.7862 179.063 25.0702 178.987C26.875 178.504 29.5529 177.788 31.5114 177.22L31.5113 177.22L31.5244 177.216C33.8088 176.62 36.2466 175.904 36.9611 175.593Z" fill="#E86E34" stroke="#E86E34"/>
<path d="M272.307 186.173L272.307 186.173C271.378 188.809 270.677 190.84 270.205 192.409C269.736 193.968 269.478 195.118 269.464 195.977C269.449 196.868 269.699 197.522 270.304 197.965C270.844 198.362 271.615 198.54 272.474 198.702C273.709 198.965 275.884 199.487 277.367 200.003L277.376 200.006L277.385 200.009C278.9 200.47 282.003 201.395 284.286 201.991L284.422 202.031C286.682 202.687 289.53 203.513 290.795 203.96L290.802 203.962L290.802 203.962C296.097 205.74 300.212 206.881 302.135 207.085L302.142 207.086C302.677 207.136 303.224 207.158 303.74 206.9C304.259 206.64 304.656 206.145 305.043 205.39C305.81 203.896 306.703 201.036 308.313 195.721C308.998 193.556 309.954 190.813 310.43 189.638C310.713 189.026 310.96 188.366 311.138 187.788C311.31 187.227 311.435 186.685 311.435 186.339C311.435 185.893 311.184 185.485 310.91 185.171C310.623 184.842 310.243 184.539 309.843 184.296C309.444 184.053 309.001 183.855 308.58 183.756C308.179 183.661 307.698 183.633 307.306 183.863L307.299 183.868L307.291 183.873C307.143 183.967 307.029 184.124 306.953 184.237C306.864 184.371 306.769 184.538 306.67 184.728C306.471 185.109 306.238 185.616 305.987 186.205C305.485 187.383 304.896 188.919 304.334 190.491C303.773 192.063 303.236 193.68 302.839 195.023C302.64 195.694 302.475 196.301 302.359 196.803C302.247 197.29 302.17 197.72 302.17 198.014C302.17 198.199 302.087 198.514 301.904 198.878C301.727 199.233 301.484 199.579 301.222 199.829C300.742 200.289 300.08 200.525 298.869 200.41C297.636 200.292 295.913 199.817 293.401 198.927L293.398 198.926C292.59 198.646 292.016 198.414 291.615 198.168C291.226 197.929 291.04 197.703 290.952 197.447C290.857 197.172 290.847 196.784 290.973 196.17C291.099 195.558 291.347 194.784 291.708 193.762C291.708 193.762 291.708 193.761 291.708 193.761L291.237 193.594C294.543 184.426 294.75 183.437 293.579 182.315C291.306 180.139 290.411 181.59 287.036 192.473L272.307 186.173ZM272.307 186.173L272.309 186.168C272.579 185.423 272.816 184.662 272.984 184.026C273.158 183.368 273.243 182.9 273.243 182.711C273.243 182.508 273.298 182.247 273.369 181.983C273.443 181.706 273.549 181.379 273.677 181.024C273.933 180.316 274.283 179.477 274.668 178.673C274.996 177.962 275.282 177.39 275.559 176.95C275.835 176.511 276.127 176.162 276.482 175.939C277.238 175.464 278.07 175.687 279.016 176.043L279.018 176.044C279.449 176.209 279.798 176.474 280.038 176.849C280.274 177.219 280.38 177.66 280.39 178.141C280.409 179.086 280.063 180.289 279.436 181.722C278.584 183.714 277.799 185.937 277.227 187.889C276.65 189.862 276.309 191.498 276.309 192.341C276.309 193.139 276.415 193.481 276.656 193.739C276.939 194.04 277.472 194.303 278.59 194.705C279.935 195.155 282.167 195.674 283.45 195.869L285.436 196.086L272.307 186.173Z" fill="#E86E34" stroke="#E86E34"/>
<path d="M61.7538 229.057L61.7533 229.059C59.3405 239.933 46.8954 246.459 35.6962 242.816C33.575 242.128 31.3269 240.662 29.3721 238.849C27.416 237.034 25.7187 234.839 24.721 232.656C23.6844 230.43 23.1769 227.584 23.1857 224.819C23.1944 222.058 23.718 219.316 24.8015 217.307C26.9276 213.171 31.5692 209.132 36.02 207.507C42.9395 204.871 49.7424 206.027 55.4589 210.893C60.8991 215.494 63.2405 222.21 61.7538 229.057ZM29.5417 229.968L29.5422 229.969C31.2535 233.181 32.7357 235.13 34.5769 236.295C36.411 237.456 38.6716 237.883 42.0454 237.883C44.1803 237.85 45.4519 237.767 46.5079 237.502C47.549 237.242 48.4077 236.797 49.7019 235.982C51.307 234.957 53.4606 232.956 54.4521 231.564C55.23 230.462 55.6564 229.694 55.9096 228.755C56.1671 227.799 56.2539 226.636 56.2884 224.725C56.2882 222.923 56.2016 221.735 55.9665 220.757C55.7345 219.792 55.3517 219.004 54.7168 218.011C52.7208 215.018 50.208 213.243 46.6732 212.285C45.9284 212.09 45.1833 211.928 44.575 211.815C43.9786 211.704 43.5537 211.648 43.3821 211.642C38.1616 212.228 33.7011 214.988 31.0507 218.524C28.3941 222.068 27.5921 226.327 29.5417 229.968Z" fill="#E86E34" stroke="#E86E34"/>
<path d="M261.298 210.956L261.299 210.956C262.678 209.8 263.699 209.04 264.6 208.591C265.527 208.129 266.324 207.997 267.239 208.07L267.239 208.07L267.25 208.071C268.108 208.159 268.809 208.382 269.305 208.747C269.818 209.126 270.102 209.654 270.084 210.266C270.066 210.85 269.775 211.434 269.312 211.974C268.845 212.518 268.172 213.055 267.312 213.553L267.311 213.553C264.271 215.3 262.473 216.962 260.8 219.526C259.985 220.787 259.538 223.157 259.538 225.611C259.538 226.824 259.647 228.028 259.863 229.088C260.081 230.154 260.399 231.04 260.796 231.64C262.193 233.71 264.406 235.674 266.82 237.129C269.241 238.589 271.805 239.5 273.887 239.531L273.891 239.531C276.685 239.594 279.927 238.106 282.647 235.784C285.361 233.467 287.466 230.395 288.059 227.406C288.273 226.211 288.295 225.821 288.01 225.409C287.848 225.175 287.566 224.91 287.065 224.546C286.567 224.184 285.893 223.752 284.977 223.172L284.977 223.172L284.972 223.169C283.913 222.482 282.907 221.878 282.127 221.448C281.737 221.232 281.408 221.064 281.161 220.95C281.049 220.899 280.959 220.861 280.891 220.836C280.866 220.855 280.835 220.879 280.8 220.91C280.655 221.032 280.463 221.219 280.236 221.46C279.786 221.939 279.23 222.6 278.688 223.313C277.685 224.671 276.717 225.579 275.75 225.824C275.239 225.953 274.741 225.893 274.281 225.642C273.836 225.399 273.455 224.995 273.12 224.479C272.699 223.867 272.781 223.142 273.162 222.256C273.546 221.364 274.296 220.156 275.464 218.444L275.464 218.444L275.467 218.441C276.303 217.24 277.178 216.132 277.929 215.32C278.304 214.915 278.657 214.573 278.966 214.327C279.121 214.205 279.275 214.099 279.423 214.02C279.562 213.947 279.744 213.873 279.941 213.873H279.971L280 213.877C280.217 213.903 280.509 214.009 280.807 214.136C281.123 214.27 281.504 214.454 281.921 214.672C282.753 215.109 283.749 215.694 284.694 216.331C285.202 216.661 285.779 217.04 286.388 217.439C288.1 218.563 290.059 219.849 291.423 220.671C292.346 221.216 293.187 221.848 293.803 222.438C294.111 222.733 294.374 223.027 294.563 223.304C294.74 223.563 294.905 223.879 294.905 224.201C294.905 224.677 294.733 225.434 294.493 226.259C294.247 227.106 293.911 228.088 293.546 229.046C293.181 230.003 292.783 230.945 292.414 231.709C292.229 232.091 292.049 232.434 291.881 232.716C291.718 232.988 291.547 233.236 291.375 233.401C291.205 233.563 291.045 233.773 290.929 233.973C290.872 234.073 290.83 234.163 290.803 234.238C290.79 234.274 290.782 234.304 290.777 234.327C290.773 234.347 290.772 234.358 290.772 234.359C290.772 234.641 290.662 234.939 290.527 235.21C290.386 235.494 290.188 235.807 289.951 236.135C289.476 236.791 288.819 237.546 288.073 238.311C286.583 239.838 284.691 241.451 283.096 242.435L283.094 242.437C281.572 243.364 280.55 243.913 279.234 244.212C277.939 244.507 276.384 244.555 273.811 244.555C270.78 244.555 268.814 244.442 266.956 243.829C265.101 243.216 263.392 242.117 260.843 240.237C255.32 236.235 252.473 228.91 254.041 222.63C254.669 220.056 255.461 217.992 256.616 216.137C257.771 214.282 259.274 212.661 261.298 210.956ZM280.975 220.781C280.975 220.781 280.972 220.782 280.965 220.786C280.971 220.783 280.975 220.781 280.975 220.781Z" fill="#E86E34" stroke="#E86E34"/>
<path d="M61.8568 256.445L61.8568 256.445C59.3099 259.511 57.5497 261.483 56.2365 262.665C54.9425 263.829 53.9641 264.338 53.0018 264.207C52.317 264.113 51.75 263.855 51.3702 263.411C50.9867 262.962 50.8495 262.389 50.9011 261.781C51.0017 260.596 51.8191 259.174 53.1904 257.759C54.4892 256.384 56.8906 253.624 58.5401 251.65L58.541 251.649C59.3668 250.66 60.1943 249.67 60.8671 248.877C61.5136 248.115 62.0407 247.507 62.2798 247.273C62.6624 246.833 64.6992 244.492 66.7362 242.086C68.7909 239.593 71.0689 237.012 71.7924 236.316C72.128 235.961 72.5148 235.643 72.8587 235.412C73.0321 235.295 73.2026 235.195 73.3571 235.122C73.4903 235.058 73.6808 234.981 73.8696 234.981C73.9863 234.981 74.0871 235.016 74.1386 235.036C74.2025 235.061 74.2683 235.092 74.3318 235.126C74.4594 235.193 74.6125 235.287 74.7828 235.398C75.1251 235.622 75.5704 235.939 76.0835 236.32C77.1115 237.085 78.4347 238.124 79.7981 239.231C82.5128 241.436 85.435 243.949 86.4969 245.102L86.4974 245.102C89.7392 248.63 89.1892 254.941 85.4436 258.464C84.5058 259.395 83.8119 259.982 82.7315 260.299C81.6941 260.604 80.3263 260.649 78.0737 260.649C76.5759 260.666 75.5221 260.68 74.7338 260.826C73.9755 260.968 73.5337 261.22 73.2096 261.676C72.8586 262.17 72.605 262.957 72.3848 264.276C72.176 265.526 72.0072 267.179 71.7814 269.389C71.771 269.491 71.7605 269.594 71.7499 269.698C71.5772 271.417 71.3869 273.008 71.2133 274.197C71.1267 274.79 71.0433 275.29 70.9672 275.657C70.9293 275.84 70.8914 276 70.8534 276.125C70.8345 276.188 70.8127 276.252 70.7871 276.31C70.7692 276.351 70.7269 276.444 70.647 276.526C70.3189 276.869 69.8291 276.888 69.4547 276.839C69.0472 276.786 68.5944 276.63 68.1609 276.422C67.3076 276.014 66.384 275.333 65.9344 274.589L65.9263 274.576L65.9191 274.562C65.3472 273.467 65.391 271.853 65.8722 269.482C66.9412 264.198 67.5196 260.981 67.6804 258.923C67.8414 256.862 67.5682 256.11 67.101 255.612C66.0545 254.513 65.3148 254.167 64.6418 254.263C63.919 254.365 63.0627 254.993 61.8568 256.445ZM81.737 253.646L81.737 253.646L81.7409 253.641C82.1267 253.148 82.485 252.541 82.7453 251.957C83.0117 251.359 83.1497 250.842 83.1497 250.519C83.1497 250.274 83.0231 249.869 82.7068 249.311C82.3997 248.769 81.9466 248.139 81.3739 247.462C80.2302 246.109 78.6413 244.602 76.8791 243.271C76.3392 242.883 75.8015 242.529 75.377 242.274C75.1633 242.146 74.9844 242.046 74.8516 241.98C74.8283 241.969 74.8072 241.959 74.7885 241.95C74.7395 241.983 74.6766 242.029 74.5991 242.092C74.3908 242.26 74.1176 242.509 73.7971 242.822C73.1583 243.446 72.3618 244.294 71.5743 245.179C70.7871 246.064 70.0153 246.979 69.4254 247.735C69.13 248.114 68.8843 248.447 68.7061 248.714C68.6169 248.848 68.5481 248.959 68.4994 249.048C68.4751 249.093 68.4576 249.128 68.4456 249.155C68.4379 249.173 68.4337 249.184 68.4317 249.19C68.433 249.199 68.4371 249.25 68.4786 249.357C68.5354 249.505 68.6377 249.697 68.7866 249.924C69.0818 250.375 69.5224 250.908 70.0211 251.418C72.4228 253.749 74.7963 255.08 76.8395 255.435C78.8554 255.786 80.5542 255.196 81.737 253.646ZM74.684 241.907C74.684 241.907 74.686 241.908 74.69 241.909C74.6859 241.908 74.684 241.907 74.684 241.907Z" fill="#E86E34" stroke="#E86E34"/>
<path d="M240.066 237.372L240.066 237.372L240.071 237.364C240.405 236.902 240.798 236.489 241.182 236.185C241.375 236.033 241.573 235.902 241.769 235.807C241.959 235.715 242.179 235.64 242.405 235.64C242.548 235.64 242.658 235.698 242.695 235.718C242.748 235.747 242.798 235.782 242.839 235.813C242.923 235.876 243.017 235.961 243.118 236.056C243.321 236.25 243.586 236.527 243.9 236.869C244.53 237.557 245.38 238.537 246.376 239.713C248.367 242.067 250.951 245.225 253.531 248.442C256.111 251.66 258.69 254.94 260.672 257.542C261.663 258.842 262.507 259.976 263.128 260.848C263.438 261.283 263.696 261.658 263.889 261.956C264.069 262.237 264.218 262.487 264.288 262.666C264.536 263.258 264.307 263.905 263.99 264.42C263.657 264.963 263.144 265.503 262.572 265.964C261.998 266.426 261.339 266.83 260.697 267.084C260.071 267.332 259.381 267.471 258.788 267.289L258.779 267.287L258.77 267.283C258.237 267.098 257.315 266.844 256.394 266.591C256.042 266.494 255.69 266.397 255.36 266.304C253.06 265.703 247.811 263.917 245.662 263.054C243.549 262.205 239.712 260.958 237.457 260.369L237.449 260.367L237.44 260.365C236.337 260.034 233.508 259.175 231.298 258.448L231.297 258.448L231.289 258.445C230.16 258.052 229.083 257.708 228.256 257.463C227.853 257.343 227.512 257.248 227.255 257.183C227.434 257.547 227.772 258.096 228.318 258.883C229.616 260.756 231.982 263.827 235.772 268.612L235.772 268.612C237.806 271.188 239.652 273.6 240.99 275.41C241.659 276.315 242.204 277.073 242.582 277.628C242.771 277.905 242.922 278.137 243.028 278.313C243.081 278.401 243.127 278.483 243.161 278.555C243.179 278.59 243.197 278.631 243.212 278.674C243.223 278.707 243.249 278.786 243.249 278.882C243.249 279.315 242.983 279.738 242.714 280.064C242.425 280.416 242.042 280.762 241.643 281.057C241.244 281.351 240.808 281.608 240.405 281.768C240.204 281.847 239.995 281.909 239.793 281.932C239.597 281.954 239.36 281.945 239.143 281.831L239.13 281.825L239.118 281.817C238.948 281.716 238.729 281.506 238.502 281.27C238.258 281.017 237.956 280.681 237.605 280.277C236.903 279.467 235.995 278.367 234.957 277.077C232.879 274.497 230.27 271.144 227.724 267.798C225.178 264.453 222.694 261.112 220.866 258.555C219.952 257.278 219.199 256.192 218.684 255.398C218.428 255.002 218.224 254.67 218.089 254.419C218.022 254.295 217.964 254.177 217.925 254.074C217.906 254.023 217.885 253.96 217.874 253.893C217.866 253.847 217.847 253.727 217.894 253.592C217.962 253.376 218.113 253.171 218.261 253.001C218.424 252.815 218.631 252.617 218.863 252.421C219.327 252.029 219.922 251.615 220.533 251.271L220.534 251.271C221.527 250.713 222.197 250.367 223.123 250.357C223.996 250.348 225.076 250.64 226.907 251.16L226.907 251.16L226.914 251.162C228.022 251.493 229.098 251.842 229.943 252.142C230.364 252.292 230.733 252.432 231.021 252.552C231.274 252.658 231.518 252.769 231.667 252.876C232.021 253.096 232.977 253.469 233.896 253.657L233.896 253.657L233.901 253.658C235.001 253.896 238.406 254.962 241.693 256.055C243.344 256.605 244.977 257.164 246.294 257.637C247.585 258.101 248.612 258.494 249.033 258.712C249.331 258.853 249.87 259.024 250.543 259.195C251.21 259.365 251.973 259.527 252.686 259.657C253.254 259.756 253.678 259.822 253.998 259.85C254.332 259.879 254.489 259.859 254.559 259.834C254.563 259.833 254.566 259.832 254.568 259.831C254.581 259.828 254.583 259.827 254.596 259.79C254.627 259.702 254.647 259.539 254.647 259.226C254.647 258.92 254.587 258.665 254.513 258.506C254.488 258.452 254.467 258.42 254.453 258.402C254.363 258.391 254.291 258.361 254.249 258.341C254.188 258.312 254.133 258.277 254.086 258.244C253.992 258.177 253.89 258.09 253.788 257.994C253.581 257.799 253.328 257.527 253.047 257.204C252.485 256.556 251.788 255.671 251.093 254.706C249.717 252.862 246.487 248.65 243.874 245.358C241.622 242.579 240.389 241.028 239.859 239.996C239.586 239.463 239.462 239 239.527 238.538C239.59 238.09 239.823 237.72 240.066 237.372ZM254.434 258.382C254.434 258.383 254.436 258.385 254.441 258.388C254.436 258.383 254.434 258.382 254.434 258.382Z" fill="#E86E34" stroke="#E86E34"/>
<path d="M195.162 262.502L195.162 262.502L195.166 262.492C195.255 262.236 195.461 262.061 195.636 261.947C195.825 261.823 196.057 261.72 196.307 261.637C196.81 261.471 197.448 261.365 198.117 261.365H198.126L198.134 261.365C198.644 261.382 199.117 261.44 199.602 261.6C200.088 261.761 200.56 262.016 201.083 262.403C202.112 263.163 203.384 264.471 205.375 266.673C211.5 273.396 215.216 277.35 222.995 285.394C222.995 285.394 222.996 285.394 222.996 285.394L226.025 288.492L226.512 288.992L225.883 289.293L223.684 290.346C223.071 290.656 222.529 290.909 222.01 291.013C221.457 291.124 220.942 291.067 220.389 290.802C219.861 290.549 219.307 290.111 218.646 289.492C217.982 288.87 217.176 288.031 216.146 286.945C216.145 286.945 216.145 286.944 216.144 286.944L213.821 284.539L209.787 285.949C209.786 285.949 209.786 285.949 209.786 285.95C207.364 286.811 204.321 287.738 203.067 288.072L203.067 288.072L203.055 288.075C200.705 288.638 199.47 289.155 198.753 290.026C198.036 290.897 197.756 292.219 197.653 294.668L197.653 294.669L197.446 299.155L197.425 299.598L196.983 299.63L194.297 299.828L191.611 300.026L190.941 300.075L191.086 299.419L191.568 297.243L191.568 297.243L191.569 297.238C191.698 296.684 191.885 295.123 192.084 293.008C192.281 290.911 192.487 288.311 192.659 285.71C192.935 281.348 193.401 276.048 193.875 271.598C194.112 269.373 194.352 267.358 194.571 265.777C194.788 264.217 194.991 263.031 195.162 262.502ZM209.011 279.113L209.006 279.108L209.002 279.102C208.477 278.348 206.443 276.071 204.575 274.083C203.606 273.089 202.721 272.125 202.075 271.365C201.753 270.985 201.484 270.649 201.294 270.382C201.199 270.25 201.117 270.125 201.057 270.014C201.026 269.959 200.997 269.899 200.973 269.837C200.962 269.806 200.947 269.763 200.937 269.712C200.837 269.673 200.663 269.641 200.441 269.645C200.224 269.648 199.999 269.685 199.814 269.748C199.67 269.798 199.579 269.854 199.527 269.899C199.521 269.922 199.515 269.952 199.508 269.987C199.485 270.102 199.458 270.265 199.428 270.472C199.366 270.884 199.294 271.455 199.217 272.144C199.063 273.522 198.891 275.361 198.754 277.333C198.754 277.333 198.754 277.334 198.754 277.334L198.314 283.898L200.655 283.533C202.215 283.273 204.36 282.691 205.403 282.193C205.943 281.918 206.566 281.663 207.128 281.475C207.67 281.294 208.221 281.152 208.586 281.152C209.3 281.152 209.519 280.897 209.578 280.69C209.659 280.406 209.566 279.864 209.011 279.113ZM200.989 269.738C200.989 269.738 200.987 269.736 200.982 269.733C200.986 269.736 200.989 269.738 200.989 269.738Z" fill="#E86E34" stroke="#E86E34"/>
<path d="M109.681 294.544L109.681 294.544L109.679 294.541C104.171 289.199 102.456 281.663 105.225 274.931C106.586 271.589 108.205 269.015 110.252 267.081C112.302 265.143 114.757 263.87 117.753 263.094C119.885 262.534 121.28 262.222 122.67 262.187C124.066 262.152 125.428 262.397 127.5 262.893C132.043 263.964 134.759 265.389 137.322 268.182C138.078 268.973 138.602 269.624 138.847 270.211C138.975 270.517 139.036 270.824 139.004 271.135C138.972 271.445 138.853 271.721 138.679 271.971C138.314 272.522 137.871 272.938 137.342 273.184C136.808 273.432 136.224 273.488 135.611 273.378C134.413 273.162 133.084 272.302 131.652 270.93C130.565 269.888 129.746 269.252 128.883 268.824C128.023 268.397 127.085 268.159 125.732 267.964C121.946 267.484 118.666 268.225 116.054 270.032C113.439 271.841 111.447 274.751 110.301 278.688C108.519 284.949 111.599 290.973 118.141 293.721L118.143 293.722C119.906 294.469 121.341 294.857 122.609 294.911C123.864 294.965 124.979 294.692 126.108 294.075C127.372 293.369 128.455 293.005 129.429 293.134C130.437 293.268 131.2 293.907 131.86 294.89C132.124 295.27 132.362 295.612 132.497 295.913C132.643 296.239 132.713 296.614 132.506 296.994C132.331 297.315 131.996 297.555 131.622 297.774C131.23 298.003 130.694 298.263 130.011 298.59C123.94 301.531 115.11 299.743 109.681 294.544Z" fill="#E86E34" stroke="#E86E34"/>
<path d="M148.773 303.759L148.764 303.756L148.756 303.752C148.307 303.573 148.083 303.099 147.933 302.551C147.773 301.966 147.647 301.097 147.539 299.843C147.323 297.327 147.168 293.14 146.995 286.284C146.823 280.118 146.754 275.886 146.806 273.102C146.832 271.712 146.888 270.669 146.98 269.922C147.025 269.549 147.081 269.236 147.151 268.985C147.216 268.749 147.307 268.517 147.452 268.344C147.742 267.977 148.203 267.722 148.657 267.574C149.12 267.423 149.649 267.359 150.124 267.44C150.468 267.493 150.846 267.58 151.162 267.864C151.475 268.147 151.657 268.559 151.787 269.094C152.041 270.149 152.163 272.022 152.334 275.362L152.334 275.364L152.655 282.129L161.118 281.879L161.121 281.879C163.94 281.813 166.215 281.698 167.823 281.535C168.629 281.454 169.253 281.361 169.689 281.261C169.908 281.211 170.063 281.162 170.165 281.118C170.192 281.107 170.212 281.097 170.226 281.09C170.232 281.07 170.24 281.041 170.251 280.999C170.277 280.89 170.304 280.739 170.331 280.544C170.384 280.157 170.431 279.632 170.465 279.004C170.533 277.751 170.55 276.118 170.482 274.418L170.482 274.414L170.275 268.148L170.26 267.686L170.72 267.635L172.504 267.438C173.06 267.363 173.643 267.42 174.145 267.559C174.635 267.695 175.12 267.927 175.418 268.26L175.418 268.26L175.426 268.27C175.525 268.387 175.577 268.536 175.606 268.63C175.642 268.745 175.674 268.882 175.703 269.034C175.762 269.339 175.819 269.743 175.874 270.225C175.984 271.192 176.09 272.509 176.189 274.055C176.386 277.148 176.556 281.182 176.673 285.217C176.789 289.252 176.851 293.295 176.833 296.404C176.824 297.958 176.795 299.285 176.741 300.264C176.714 300.753 176.681 301.163 176.64 301.475C176.62 301.631 176.596 301.771 176.568 301.888C176.546 301.979 176.51 302.109 176.441 302.222C176.203 302.655 175.72 302.9 175.277 303.027C174.804 303.162 174.253 303.199 173.738 303.124C173.355 303.076 172.942 303.015 172.595 302.786C172.221 302.54 171.997 302.155 171.838 301.638C171.681 301.128 171.567 300.423 171.458 299.457C171.349 298.483 171.241 297.21 171.103 295.546L171.103 295.546L171.103 295.541C170.965 293.631 170.81 291.806 170.665 290.403C170.592 289.701 170.522 289.109 170.458 288.666C170.425 288.445 170.395 288.265 170.368 288.131C170.355 288.063 170.343 288.011 170.332 287.973C170.327 287.954 170.323 287.941 170.321 287.933C170.32 287.933 170.32 287.933 170.32 287.932C170.282 287.907 170.205 287.868 170.065 287.825C169.785 287.738 169.348 287.662 168.713 287.601C167.447 287.48 165.506 287.43 162.716 287.43C162.029 287.43 161.387 287.428 160.785 287.427C158.796 287.421 157.257 287.417 156.056 287.482C154.469 287.568 153.611 287.773 153.117 288.146C152.667 288.485 152.429 289.04 152.348 290.166C152.287 291.017 152.319 292.098 152.361 293.509C152.375 293.979 152.39 294.485 152.403 295.031L152.403 295.032C152.472 298.024 152.473 299.907 152.34 301.109C152.208 302.294 151.93 302.985 151.281 303.377C150.926 303.626 150.474 303.775 150.05 303.84C149.622 303.905 149.152 303.895 148.773 303.759Z" fill="#E86E34" stroke="#E86E34"/>
</svg>
