<svg width="570" height="570" viewBox="0 0 570 570" fill="none" xmlns="http://www.w3.org/2000/svg">
<rect width="570" height="570" rx="285" fill="#E86E34"/>
<path d="M210.128 103.177C193.728 106.377 169.728 114.377 163.461 118.91C162.395 119.71 159.328 121.577 156.795 122.91C140.795 131.71 119.061 152.777 109.995 168.51C99.1947 187.044 94.3947 203.444 93.1947 225.444C91.728 254.91 101.995 282.644 123.595 307.71C128.661 313.577 132.795 318.91 132.795 319.577C132.795 325.977 117.195 343.977 101.195 356.11C91.328 363.444 90.7947 366.11 97.328 372.244C107.061 381.177 130.128 383.577 156.128 378.377C176.128 374.377 190.795 368.51 203.995 358.91C208.261 355.977 211.328 354.644 212.661 355.177C213.861 355.71 222.528 356.377 231.861 356.777C249.461 357.444 268.661 355.044 279.861 350.91C282.528 349.844 285.728 349.044 286.795 349.044C288.661 349.044 304.128 342.377 308.795 339.71C309.861 339.044 313.061 337.31 315.995 335.71C332.128 326.91 354.395 305.31 363.595 289.444C375.195 269.577 380.128 251.71 380.128 229.044C380.128 184.777 357.061 146.777 314.795 121.577C286.395 104.51 242.928 96.9104 210.128 103.177ZM305.728 199.977C309.595 203.577 309.595 205.977 305.861 209.977L303.061 213.044H236.928C171.061 213.044 170.928 213.044 167.861 210.11C163.995 206.51 163.995 204.11 167.728 200.11L170.528 197.044H236.661C302.528 197.044 302.661 197.044 305.728 199.977ZM249.728 247.977C253.595 251.577 253.595 253.977 249.861 257.977C247.061 261.044 246.928 261.044 208.928 261.044C171.728 261.044 170.928 261.044 167.861 258.11C163.995 254.51 163.995 252.11 167.728 248.11C170.528 245.044 170.661 245.044 208.661 245.044C245.861 245.044 246.661 245.044 249.728 247.977ZM305.728 247.977C309.595 251.577 309.595 253.977 305.861 257.977C303.195 260.777 301.861 261.044 288.928 261.044C276.395 261.044 274.661 260.777 271.861 258.11C267.995 254.51 267.995 252.11 271.728 248.11C274.395 245.31 275.728 245.044 288.661 245.044C301.195 245.044 302.928 245.31 305.728 247.977Z" fill="white"/>
<path d="M394.661 205.844C395.194 207.977 395.994 216.644 396.394 225.044C396.928 236.644 396.528 242.777 394.794 251.044C390.661 269.977 383.861 287.577 376.261 298.777C374.394 301.577 372.794 304.244 372.794 304.644C372.794 305.977 364.394 315.711 355.728 324.644C331.994 348.777 301.461 364.111 262.928 371.177C254.261 372.644 245.461 373.177 231.461 372.777C203.861 372.244 202.128 374.244 215.328 390.777C228.661 407.177 245.328 419.977 267.728 430.777C274.794 434.244 281.594 437.044 282.661 437.044C283.861 437.044 287.061 437.844 289.728 438.911C301.728 443.311 318.794 445.311 337.061 444.777C346.794 444.377 355.728 443.711 356.928 443.177C358.261 442.644 361.328 443.977 365.594 446.911C378.794 456.511 393.461 462.377 413.461 466.377C439.328 471.577 462.261 469.044 472.261 460.111C478.928 454.244 478.261 451.444 468.528 443.977C456.261 434.777 446.661 425.444 442.128 418.511C435.328 408.377 435.328 407.844 446.394 395.177C451.728 388.911 457.328 381.577 458.794 378.777C460.128 375.977 461.994 372.777 462.794 371.711C464.261 369.844 466.661 364.244 470.661 353.311C479.994 328.244 478.661 298.111 466.794 271.044C465.861 268.777 464.661 266.111 464.261 265.044C459.328 253.044 442.661 233.044 428.261 221.844C422.394 217.311 416.528 213.044 415.461 212.644C414.394 212.111 411.728 210.511 409.461 209.044C405.061 206.111 401.728 204.511 396.928 203.044C393.994 202.111 393.861 202.377 394.661 205.844Z" fill="white"/>
</svg>
