<svg width="54" height="59" viewBox="0 0 54 59" fill="none" xmlns="http://www.w3.org/2000/svg">
<path d="M33.625 6.625C33.625 7.45833 33.5 8.54167 33.25 9.875C33 11.125 32.6667 12.5 32.25 14C31.8333 15.5 31.4167 16.9167 31 18.25C30.6667 19.5 30.3333 20.5417 30 21.375C29.75 22.2083 29.625 22.625 29.625 22.625H24.375C24.375 22.625 24.2083 22.2083 23.875 21.375C23.625 20.5417 23.2917 19.5 22.875 18.25C22.5417 16.9167 22.1667 15.5 21.75 14C21.3333 12.5 21 11.125 20.75 9.875C20.5 8.54167 20.375 7.45833 20.375 6.625C20.375 4.79167 21 3.25 22.25 2C23.5833 0.666667 25.1667 0 27 0C28.8333 0 30.375 0.666667 31.625 2C32.9583 3.25 33.625 4.79167 33.625 6.625ZM27 26.625C25.5 26.625 24.2083 27.1667 23.125 28.25C22.125 29.25 21.625 30.5 21.625 32C21.625 33.5 22.125 34.7917 23.125 35.875C24.2083 36.875 25.5 37.375 27 37.375C28.5 37.375 29.75 36.875 30.75 35.875C31.8333 34.7917 32.375 33.5 32.375 32C32.375 30.5 31.8333 29.25 30.75 28.25C29.75 27.1667 28.5 26.625 27 26.625ZM37.875 13.625C38.125 12.625 38.3333 11.6667 38.5 10.75C38.6667 9.83333 38.7917 8.95833 38.875 8.125C41.7917 9.625 44.375 11.5833 46.625 14C48.875 16.3333 50.5833 19.0417 51.75 22.125C53 25.2083 53.625 28.5 53.625 32C53.625 35.6667 52.9167 39.125 51.5 42.375C50.1667 45.5417 48.25 48.375 45.75 50.875C43.3333 53.2917 40.5 55.2083 37.25 56.625C34.0833 57.9583 30.6667 58.625 27 58.625C23.3333 58.625 19.875 57.9583 16.625 56.625C13.4583 55.2083 10.625 53.2917 8.125 50.875C5.70833 48.375 3.79167 45.5417 2.375 42.375C1.04167 39.125 0.375 35.6667 0.375 32C0.375 28.5 0.958333 25.2083 2.125 22.125C3.375 19.0417 5.125 16.3333 7.375 14C9.625 11.5833 12.2083 9.625 15.125 8.125C15.2917 9.70833 15.625 11.5417 16.125 13.625C13.0417 15.4583 10.5 18 8.5 21.25C6.58333 24.5 5.625 28.0833 5.625 32C5.625 34.9167 6.16667 37.6667 7.25 40.25C8.41667 42.8333 9.95833 45.125 11.875 47.125C13.875 49.0417 16.1667 50.5833 18.75 51.75C21.3333 52.8333 24.0833 53.375 27 53.375C29.9167 53.375 32.6667 52.8333 35.25 51.75C37.8333 50.5833 40.0833 49.0417 42 47.125C44 45.125 45.5417 42.8333 46.625 40.25C47.7917 37.6667 48.375 34.9167 48.375 32C48.375 28.0833 47.375 24.5 45.375 21.25C43.4583 18 40.9583 15.4583 37.875 13.625ZM43 32C43 34.9167 42.25 37.5833 40.75 40C39.3333 42.4167 37.4167 44.375 35 45.875C32.5833 47.2917 29.9167 48 27 48C24.0833 48 21.4167 47.2917 19 45.875C16.5833 44.375 14.625 42.4167 13.125 40C11.7083 37.5833 11 34.9167 11 32C11 29.3333 11.5833 26.875 12.75 24.625C14 22.375 15.625 20.5 17.625 19C17.7917 19.75 18 20.5833 18.25 21.5C18.5833 22.3333 18.8333 23.0417 19 23.625C19.25 24.2083 19.375 24.5 19.375 24.5C18.4583 25.5 17.7083 26.6667 17.125 28C16.625 29.25 16.375 30.5833 16.375 32C16.375 34 16.8333 35.7917 17.75 37.375C18.75 38.9583 20.0417 40.25 21.625 41.25C23.2083 42.1667 25 42.625 27 42.625C29 42.625 30.7917 42.1667 32.375 41.25C33.9583 40.25 35.2083 38.9583 36.125 37.375C37.125 35.7917 37.625 34 37.625 32C37.625 30.5833 37.3333 29.25 36.75 28C36.25 26.6667 35.5417 25.5 34.625 24.5C34.625 24.5 34.7083 24.2083 34.875 23.625C35.125 23.0417 35.375 22.3333 35.625 21.5C35.9583 20.5833 36.2083 19.75 36.375 19C38.375 20.5 39.9583 22.375 41.125 24.625C42.375 26.875 43 29.3333 43 32Z" fill="white"/>
</svg>
