<svg width="570" height="570" viewBox="0 0 570 570" fill="none" xmlns="http://www.w3.org/2000/svg">
<rect width="570" height="570" rx="285" fill="#E86E34"/>
<path d="M423.317 96.3672C411.573 100.389 402.646 106.869 402.646 111.561C402.646 116.477 407.814 125.638 411.338 126.978C413.452 127.648 418.385 126.084 422.613 123.627C427.545 120.722 434.357 119.158 441.874 119.158C456.438 119.158 461.37 123.627 461.37 136.586C461.37 144.63 459.726 147.534 447.746 160.27C433.418 175.688 425.196 192.445 426.606 203.394C427.311 208.98 428.25 209.65 436.941 210.32C448.216 211.214 451.505 208.086 453.619 195.797C454.558 189.764 458.552 183.731 467.243 174.794C489.558 151.78 494.256 136.363 484.86 116.477C479.457 104.634 475.229 101.059 461.84 96.1438C449.391 91.4516 437.646 91.675 423.317 96.3672Z" fill="white"/>
<path d="M227.648 116.029C189.83 129.882 169.159 152.003 147.784 200.712C146.139 204.287 143.321 210.99 141.442 215.235C139.327 219.481 136.039 227.524 133.69 233.11C128.522 245.623 114.429 273.106 110.67 278.245C107.617 282.713 111.845 292.321 124.059 307.962C139.093 327.178 173.622 354.213 195.233 363.821C206.977 368.96 207.917 370.524 205.568 380.803C203.924 388.623 201.105 390.634 183.018 396.89C177.85 398.678 169.159 401.806 163.757 403.817C158.119 405.828 149.193 408.956 143.79 410.967C120.301 419.457 117.012 420.574 111.14 421.692C107.617 422.362 102.684 424.82 99.865 426.831L94.6973 430.853L99.6301 441.578C109.261 462.134 100.1 461.017 257.01 461.017C413.921 461.017 404.76 462.134 414.39 441.578L419.323 430.853L414.39 427.054C411.572 424.82 405.934 422.138 401.941 421.021C397.713 419.904 388.552 416.776 381.505 414.095C374.458 411.413 366.002 408.732 362.713 408.062C359.425 407.392 355.901 406.051 354.492 405.157C353.318 404.263 348.385 402.253 343.922 401.135C329.358 396.89 314.795 391.528 311.741 389.07C305.164 383.931 309.392 367.173 317.144 367.173C323.956 367.173 350.499 349.298 367.176 333.881C398.887 303.94 401.941 294.556 393.485 256.348C386.203 223.726 380.8 207.192 371.17 188.423C360.599 167.196 334.996 137.479 322.781 131.893C320.902 130.999 315.734 128.095 311.271 125.637C289.426 113.124 248.554 108.432 227.648 116.029ZM281.909 191.998C284.023 198.701 287.077 204.957 288.721 205.628C292.01 206.745 303.755 201.382 311.741 195.349C314.09 193.338 316.674 192.892 317.848 194.232C322.781 199.818 327.479 221.715 327.479 240.707C327.714 255.007 328.654 262.381 331.002 265.285C336.64 272.435 335.231 282.713 327.479 291.204C323.721 295.449 320.667 299.918 320.432 301.259C320.432 302.376 316.909 309.973 312.915 317.793C299.292 342.595 271.809 367.173 257.01 367.173C242.212 367.173 214.729 342.595 201.105 317.793C197.112 309.973 193.588 302.376 193.588 301.259C193.354 299.918 190.3 295.449 186.542 291.204C178.79 282.713 177.381 272.435 183.018 265.285C185.132 262.604 186.307 255.901 186.542 247.634V234.004L210.736 223.279C234.695 212.331 257.715 197.36 268.755 185.742C271.809 182.167 275.332 179.485 276.272 179.485C277.211 179.485 279.795 185.071 281.909 191.998ZM241.507 383.931C247.614 388.399 265.232 388.176 273.453 383.707C283.788 377.674 286.372 380.356 289.426 399.795C290.835 409.403 291.305 418.117 290.6 419.234C283.554 429.959 230.467 429.959 223.42 419.234C222.011 417.223 225.534 389.963 227.648 383.26C229.058 379.685 235.87 379.909 241.507 383.931Z" fill="white"/>
<path d="M429.894 227.748C423.786 233.334 425.666 248.975 432.712 252.327C440.699 256.125 447.041 253.667 451.504 245.177C455.027 238.027 455.027 237.133 450.33 231.323C444.692 224.173 435.296 222.386 429.894 227.748Z" fill="white"/>
</svg>
