<svg width="240" height="36" viewBox="0 0 240 36" fill="none" xmlns="http://www.w3.org/2000/svg">
<path d="M26.8562 12.0938H20.6346C20.521 11.2888 20.2889 10.5739 19.9386 9.94886C19.5882 9.31439 19.1384 8.77462 18.5891 8.32955C18.0399 7.88447 17.4054 7.54356 16.6857 7.30682C15.9755 7.07008 15.2037 6.9517 14.3704 6.9517C12.8647 6.9517 11.5531 7.32576 10.4357 8.07386C9.3183 8.8125 8.45182 9.89205 7.83629 11.3125C7.22076 12.7235 6.913 14.4375 6.913 16.4545C6.913 18.5284 7.22076 20.2708 7.83629 21.6818C8.46129 23.0928 9.3325 24.1581 10.4499 24.8778C11.5674 25.5975 12.86 25.9574 14.3278 25.9574C15.1516 25.9574 15.9139 25.8485 16.6147 25.6307C17.3249 25.4129 17.9547 25.0956 18.5039 24.679C19.0531 24.2528 19.5077 23.7367 19.8675 23.1307C20.2369 22.5246 20.4925 21.8333 20.6346 21.0568L26.8562 21.0852C26.6952 22.4205 26.2927 23.7083 25.6488 24.9489C25.0143 26.1799 24.1573 27.2831 23.0778 28.2585C22.0077 29.2244 20.7293 29.9915 19.2425 30.5597C17.7653 31.1184 16.0939 31.3977 14.2283 31.3977C11.6336 31.3977 9.31357 30.8106 7.26811 29.6364C5.23213 28.4621 3.62228 26.7623 2.43857 24.5369C1.26432 22.3116 0.677202 19.6174 0.677202 16.4545C0.677202 13.2822 1.27379 10.5833 2.46697 8.35795C3.66016 6.13258 5.27947 4.4375 7.32493 3.27273C9.37038 2.09848 11.6715 1.51136 14.2283 1.51136C15.9139 1.51136 17.4764 1.74811 18.9158 2.22159C20.3647 2.69508 21.6478 3.38636 22.7653 4.29545C23.8827 5.19507 24.7918 6.29829 25.4925 7.60511C26.2028 8.91193 26.6573 10.4081 26.8562 12.0938ZM31.1531 31V9.18182H37.0195V12.9886H37.2468C37.6445 11.6345 38.3121 10.6117 39.2496 9.92045C40.1871 9.2197 41.2667 8.86932 42.4883 8.86932C42.7913 8.86932 43.118 8.88826 43.4684 8.92614C43.8188 8.96402 44.1265 9.0161 44.3917 9.08239V14.4517C44.1076 14.3665 43.7146 14.2907 43.2127 14.2244C42.7108 14.1581 42.2515 14.125 41.8349 14.125C40.9447 14.125 40.1493 14.3191 39.4485 14.7074C38.7572 15.0862 38.208 15.6165 37.8008 16.2983C37.4031 16.9801 37.2042 17.7661 37.2042 18.6562V31H31.1531ZM56.4478 31.4261C54.2035 31.4261 52.2717 30.9716 50.6523 30.0625C49.0425 29.1439 47.802 27.8466 46.9308 26.1705C46.0595 24.4848 45.6239 22.4915 45.6239 20.1903C45.6239 17.946 46.0595 15.9763 46.9308 14.2812C47.802 12.5862 49.0283 11.2652 50.6097 10.3182C52.2006 9.37121 54.0662 8.89773 56.2063 8.89773C57.6457 8.89773 58.9857 9.12973 60.2262 9.59375C61.4762 10.0483 62.5652 10.7348 63.4933 11.6534C64.4308 12.572 65.1599 13.7273 65.6808 15.1193C66.2016 16.5019 66.462 18.1212 66.462 19.9773V21.6392H48.0387V17.8892H60.766C60.766 17.018 60.5766 16.2462 60.1978 15.5739C59.819 14.9015 59.2934 14.3759 58.6211 13.9972C57.9582 13.6089 57.1864 13.4148 56.3058 13.4148C55.3872 13.4148 54.5728 13.6278 53.8626 14.054C53.1618 14.4706 52.6126 15.0341 52.2148 15.7443C51.8171 16.4451 51.6135 17.2263 51.604 18.0881V21.6534C51.604 22.733 51.8029 23.6657 52.2006 24.4517C52.6078 25.2377 53.1808 25.8438 53.9194 26.2699C54.658 26.696 55.534 26.9091 56.5472 26.9091C57.2196 26.9091 57.8351 26.8144 58.3938 26.625C58.9525 26.4356 59.4308 26.1515 59.8285 25.7727C60.2262 25.3939 60.5292 24.9299 60.7376 24.3807L66.3342 24.75C66.0501 26.0947 65.4677 27.2689 64.587 28.2727C63.7158 29.267 62.5889 30.0436 61.2063 30.6023C59.8332 31.1515 58.247 31.4261 56.4478 31.4261ZM78.4506 31.3551C76.7934 31.3551 75.2925 30.929 73.9478 30.0767C72.6126 29.215 71.552 27.9508 70.766 26.2841C69.9895 24.608 69.6012 22.553 69.6012 20.1193C69.6012 17.6193 70.0037 15.5407 70.8086 13.8835C71.6135 12.2169 72.6836 10.9716 74.0188 10.1477C75.3635 9.31439 76.8361 8.89773 78.4364 8.89773C79.658 8.89773 80.676 9.10606 81.4904 9.52273C82.3143 9.92992 82.9772 10.4413 83.479 11.0568C83.9904 11.6629 84.3787 12.2595 84.6438 12.8466H84.8285V1.90909H90.8654V31H84.8995V27.5057H84.6438C84.3597 28.1117 83.9573 28.7131 83.4364 29.3097C82.9251 29.8968 82.2575 30.3845 81.4336 30.7727C80.6192 31.161 79.6249 31.3551 78.4506 31.3551ZM80.3683 26.5398C81.3436 26.5398 82.1675 26.2746 82.8398 25.7443C83.5217 25.2045 84.0425 24.4517 84.4023 23.4858C84.7717 22.5199 84.9563 21.3883 84.9563 20.0909C84.9563 18.7936 84.7764 17.6667 84.4165 16.7102C84.0567 15.7538 83.5359 15.0152 82.854 14.4943C82.1722 13.9735 81.3436 13.7131 80.3683 13.7131C79.3739 13.7131 78.5359 13.983 77.854 14.5227C77.1722 15.0625 76.6561 15.8106 76.3058 16.767C75.9554 17.7235 75.7802 18.8314 75.7802 20.0909C75.7802 21.3598 75.9554 22.482 76.3058 23.4574C76.6656 24.4233 77.1817 25.1809 77.854 25.7301C78.5359 26.2699 79.3739 26.5398 80.3683 26.5398ZM95.8406 31V9.18182H101.892V31H95.8406ZM98.8803 6.36932C97.9807 6.36932 97.2089 6.07102 96.565 5.47443C95.9305 4.86837 95.6133 4.14394 95.6133 3.30114C95.6133 2.4678 95.9305 1.75284 96.565 1.15625C97.2089 0.550188 97.9807 0.247158 98.8803 0.247158C99.7799 0.247158 100.547 0.550188 101.181 1.15625C101.825 1.75284 102.147 2.4678 102.147 3.30114C102.147 4.14394 101.825 4.86837 101.181 5.47443C100.547 6.07102 99.7799 6.36932 98.8803 6.36932ZM118.344 9.18182V13.7273H105.205V9.18182H118.344ZM108.188 3.95455H114.239V24.2955C114.239 24.8542 114.324 25.2898 114.495 25.6023C114.665 25.9053 114.902 26.1184 115.205 26.2415C115.517 26.3646 115.877 26.4261 116.284 26.4261C116.569 26.4261 116.853 26.4025 117.137 26.3551C117.421 26.2983 117.639 26.2557 117.79 26.2273L118.742 30.7301C118.439 30.8248 118.013 30.9337 117.463 31.0568C116.914 31.1894 116.247 31.2699 115.461 31.2983C114.002 31.3551 112.724 31.161 111.625 30.7159C110.536 30.2708 109.689 29.5795 109.083 28.642C108.477 27.7045 108.178 26.5208 108.188 25.0909V3.95455ZM134.956 0.545453L125.581 35.375H120.368L129.743 0.545453H134.956ZM148.298 31H137.985V1.90909H148.383C151.309 1.90909 153.828 2.49148 155.94 3.65625C158.052 4.81155 159.676 6.47348 160.812 8.64205C161.958 10.8106 162.531 13.4053 162.531 16.4261C162.531 19.4564 161.958 22.0606 160.812 24.2386C159.676 26.4167 158.042 28.0881 155.912 29.2528C153.79 30.4176 151.252 31 148.298 31ZM144.136 25.7301H148.042C149.86 25.7301 151.39 25.4081 152.63 24.7642C153.88 24.1108 154.818 23.1023 155.443 21.7386C156.077 20.3655 156.395 18.5947 156.395 16.4261C156.395 14.2765 156.077 12.5199 155.443 11.1562C154.818 9.79261 153.885 8.78883 152.645 8.14489C151.404 7.50095 149.875 7.17898 148.056 7.17898H144.136V25.7301ZM176.917 31.4261C174.672 31.4261 172.74 30.9716 171.121 30.0625C169.511 29.1439 168.271 27.8466 167.4 26.1705C166.528 24.4848 166.093 22.4915 166.093 20.1903C166.093 17.946 166.528 15.9763 167.4 14.2812C168.271 12.5862 169.497 11.2652 171.078 10.3182C172.669 9.37121 174.535 8.89773 176.675 8.89773C178.114 8.89773 179.454 9.12973 180.695 9.59375C181.945 10.0483 183.034 10.7348 183.962 11.6534C184.9 12.572 185.629 13.7273 186.15 15.1193C186.67 16.5019 186.931 18.1212 186.931 19.9773V21.6392H168.507V17.8892H181.235C181.235 17.018 181.045 16.2462 180.667 15.5739C180.288 14.9015 179.762 14.3759 179.09 13.9972C178.427 13.6089 177.655 13.4148 176.775 13.4148C175.856 13.4148 175.042 13.6278 174.331 14.054C173.631 14.4706 173.081 15.0341 172.684 15.7443C172.286 16.4451 172.082 17.2263 172.073 18.0881V21.6534C172.073 22.733 172.272 23.6657 172.669 24.4517C173.077 25.2377 173.65 25.8438 174.388 26.2699C175.127 26.696 176.003 26.9091 177.016 26.9091C177.688 26.9091 178.304 26.8144 178.863 26.625C179.421 26.4356 179.9 26.1515 180.297 25.7727C180.695 25.3939 180.998 24.9299 181.206 24.3807L186.803 24.75C186.519 26.0947 185.936 27.2689 185.056 28.2727C184.185 29.267 183.058 30.0436 181.675 30.6023C180.302 31.1515 178.716 31.4261 176.917 31.4261ZM190.993 31V1.90909H197.044V12.8466H197.229C197.494 12.2595 197.878 11.6629 198.38 11.0568C198.891 10.4413 199.554 9.92992 200.368 9.52273C201.192 9.10606 202.215 8.89773 203.436 8.89773C205.027 8.89773 206.495 9.31439 207.84 10.1477C209.185 10.9716 210.259 12.2169 211.064 13.8835C211.869 15.5407 212.272 17.6193 212.272 20.1193C212.272 22.553 211.879 24.608 211.093 26.2841C210.316 27.9508 209.256 29.215 207.911 30.0767C206.576 30.929 205.079 31.3551 203.422 31.3551C202.248 31.3551 201.249 31.161 200.425 30.7727C199.611 30.3845 198.943 29.8968 198.422 29.3097C197.901 28.7131 197.504 28.1117 197.229 27.5057H196.959V31H190.993ZM196.917 20.0909C196.917 21.3883 197.096 22.5199 197.456 23.4858C197.816 24.4517 198.337 25.2045 199.019 25.7443C199.701 26.2746 200.529 26.5398 201.505 26.5398C202.489 26.5398 203.323 26.2699 204.005 25.7301C204.686 25.1809 205.203 24.4233 205.553 23.4574C205.913 22.482 206.093 21.3598 206.093 20.0909C206.093 18.8314 205.917 17.7235 205.567 16.767C205.217 15.8106 204.701 15.0625 204.019 14.5227C203.337 13.983 202.499 13.7131 201.505 13.7131C200.52 13.7131 199.686 13.9735 199.005 14.4943C198.332 15.0152 197.816 15.7538 197.456 16.7102C197.096 17.6667 196.917 18.7936 196.917 20.0909ZM216.309 31V9.18182H222.36V31H216.309ZM219.349 6.36932C218.449 6.36932 217.678 6.07102 217.034 5.47443C216.399 4.86837 216.082 4.14394 216.082 3.30114C216.082 2.4678 216.399 1.75284 217.034 1.15625C217.678 0.550188 218.449 0.247158 219.349 0.247158C220.249 0.247158 221.016 0.550188 221.65 1.15625C222.294 1.75284 222.616 2.4678 222.616 3.30114C222.616 4.14394 222.294 4.86837 221.65 5.47443C221.016 6.07102 220.249 6.36932 219.349 6.36932ZM238.813 9.18182V13.7273H225.674V9.18182H238.813ZM228.657 3.95455H234.708V24.2955C234.708 24.8542 234.793 25.2898 234.963 25.6023C235.134 25.9053 235.371 26.1184 235.674 26.2415C235.986 26.3646 236.346 26.4261 236.753 26.4261C237.037 26.4261 237.321 26.4025 237.605 26.3551C237.89 26.2983 238.107 26.2557 238.259 26.2273L239.211 30.7301C238.908 30.8248 238.481 30.9337 237.932 31.0568C237.383 31.1894 236.715 31.2699 235.929 31.2983C234.471 31.3551 233.193 31.161 232.094 30.7159C231.005 30.2708 230.158 29.5795 229.551 28.642C228.945 27.7045 228.647 26.5208 228.657 25.0909V3.95455Z" fill="white"/>
</svg>
