<svg width="570" height="570" viewBox="0 0 570 570" fill="none" xmlns="http://www.w3.org/2000/svg">
<rect width="570" height="570" rx="285" fill="#E86E34"/>
<path d="M248.045 66.2043C228.903 70.0695 197.429 80.1927 193.747 83.6898C192.827 84.6101 190.986 85.3464 189.698 85.3464C186.937 85.3464 161.721 100.255 151.414 108.17C141.843 115.164 115.891 141.116 108.896 150.687C102.086 159.706 86.0731 186.026 86.0731 188.419C86.0731 189.155 84.9687 192.284 83.4962 195.229C61.7773 239.772 57.9121 297.014 73.373 345.789C78.8948 363.643 82.5759 373.214 84.4165 375.055C85.3368 376.159 86.0731 377.816 86.0731 379.104C86.0731 382.049 101.35 408.001 108.712 417.572C122.149 435.242 151.046 461.562 165.77 469.661C168.899 471.501 175.157 475.183 179.391 477.943C183.808 480.704 188.41 482.913 189.882 482.913C191.355 482.913 193.011 483.649 193.747 484.754C194.3 485.674 197.429 487.33 200.742 488.251C204.055 489.355 211.601 491.748 217.675 493.956C236.265 500.399 264.058 505 284.856 505C311.913 505 349.461 497.27 369.891 487.698C375.413 485.122 380.567 482.913 381.119 482.913C382.96 482.913 410.2 466.164 418.299 460.09C427.87 453.095 453.822 427.143 460.816 417.572C469.099 406.713 483.64 381.865 483.64 378.92C483.64 377.631 484.376 375.975 485.48 375.239C486.401 374.687 488.057 371.558 488.977 368.244C490.082 364.931 492.474 357.385 494.683 351.311C509.04 310.266 509.04 257.993 494.683 216.948C492.474 210.874 490.082 203.328 488.977 200.015C488.057 196.702 486.401 193.573 485.48 193.021C484.376 192.284 483.64 190.628 483.64 189.339C483.64 186.395 469.099 161.547 460.816 150.687C453.822 141.116 427.87 115.164 418.299 108.17C410.2 102.096 382.96 85.3464 381.119 85.3464C380.567 85.3464 375.413 83.1377 369.891 80.5609C348.357 70.4376 322.22 65.0999 288.538 64.1796C269.579 63.6275 257.8 64.3637 248.045 66.2043ZM303.63 165.596C308.048 167.252 314.122 169.829 317.067 171.302C323.693 174.799 340.074 190.26 340.074 193.021C340.074 194.125 340.994 195.966 342.099 197.07C346.516 201.487 351.117 218.789 351.117 230.937C351.117 257.993 340.81 276.583 314.306 297.75C306.023 304.376 301.606 312.659 301.422 321.494C301.422 326.831 300.133 329.96 296.084 334.01C288.722 341.188 280.991 341.188 273.629 334.01C269.211 329.408 268.291 327.015 268.291 319.469C268.291 314.315 270.132 305.48 272.34 299.407C276.39 288.915 280.807 283.762 301.974 264.067C313.569 253.392 317.987 244.557 317.987 231.673C317.987 216.396 311.729 205.721 299.213 199.279C277.126 188.051 251.726 204.8 251.726 230.753C251.726 238.851 250.806 241.06 246.388 245.661C239.026 252.84 231.295 252.84 223.933 245.661C219.331 240.876 218.595 238.851 218.595 229.464C218.595 218.789 223.381 201.303 227.614 197.07C228.718 195.966 229.639 194.309 229.639 193.389C229.639 190.996 246.572 173.695 248.965 173.695C250.069 173.695 251.91 172.774 253.198 171.486C260.929 163.755 289.642 160.258 303.63 165.596ZM299.949 379.84C305.655 385.914 306.943 388.675 306.943 394.565C306.943 400.639 305.655 403.216 299.581 409.29C293.507 415.363 290.93 416.652 284.856 416.652C278.966 416.652 276.206 415.363 270.132 409.658C263.874 403.584 262.769 401.375 262.769 394.933C262.769 388.307 263.874 386.098 270.132 379.84C276.39 373.582 278.598 372.478 285.224 372.478C291.667 372.478 293.875 373.582 299.949 379.84Z" fill="white"/>
</svg>
