<svg xmlns="http://www.w3.org/2000/svg" width="994" height="291" fill="none" viewBox="0 0 994 291"><path fill="#E86E34" d="M498.662 14.5544C486.041 19.4931 480.772 24.7469 475.614 37.1461C470.346 49.9655 478.029 69.7201 490.979 76.4451C504.808 83.6954 515.564 83.6954 529.393 76.4451C538.831 71.5064 546.404 58.4768 546.404 47.3386C546.404 38.6172 541.795 28.2145 535.209 22.4352C525.222 13.3986 509.747 10.1412 498.662 14.5544Z"/><path fill="#E86E34" d="M471.224 96.307C457.395 100.3 447.188 106.815 439.725 116.272C434.457 123.207 432.591 125.834 431.603 128.146C431.164 128.986 428.75 133.925 426.226 139.179C423.592 144.327 420.409 150.842 419.092 153.679C416.128 159.774 414.702 160.825 390.007 174.905C367.399 187.83 367.289 187.935 364.216 193.504C359.277 202.645 363.118 213.468 373.215 218.512C379.361 221.559 385.069 221.244 392.532 217.356C404.714 210.841 437.201 191.928 439.506 190.036C440.823 188.88 442.469 185.308 443.237 181.945C444.005 178.688 445.322 174.8 446.091 173.329C446.749 171.858 448.505 168.39 449.932 165.658C452.786 160.194 463.98 146.639 465.736 146.534C467.383 146.534 467.712 162.716 466.066 164.607C462.883 168.285 458.273 177.532 456.078 184.992C454.761 189.09 454.212 194.87 454.212 203.906C454.212 211.052 453.773 217.461 453.334 218.092C452.895 218.722 448.615 221.244 443.786 223.766C432.262 229.861 429.189 231.437 426.884 232.698C398.897 248.459 394.398 251.717 390.666 258.442C384.849 269.054 390.227 282.714 402.3 287.968C406.47 289.755 409.543 289.965 433.25 289.965C447.847 289.965 459.7 289.545 459.7 289.124C459.7 288.599 458.602 286.182 457.285 283.555C453.444 276.515 453.773 265.061 457.834 257.391C459.59 254.238 462.224 250.351 463.651 248.88C468.261 244.256 478.029 240.368 487.138 239.423C498.991 238.372 515.454 236.585 529.941 234.799C536.856 233.959 543.88 233.223 545.416 233.223C548.489 233.223 552.989 237.111 552.989 239.738C552.989 244.571 545.526 246.463 517.32 248.88C506.235 249.825 486.26 252.032 482.089 252.767C478.138 253.398 472.431 257.811 469.907 262.119C464.419 271.471 468.261 282.925 478.577 287.968C482.419 289.86 486.041 289.965 548.05 289.965C610.28 289.965 613.682 289.86 618.072 287.968C629.925 282.714 635.084 270 629.816 258.967C627.072 253.188 621.365 248.564 606.878 240.368C592.829 232.382 592.829 232.277 586.244 228.915C583.391 227.339 579.22 225.132 577.135 223.871C575.049 222.715 572.086 221.139 570.55 220.509C569.123 219.983 567.477 218.827 567.038 218.197C566.599 217.461 566.16 211.052 566.16 203.906C566.16 194.87 565.611 189.09 564.294 184.992C562.099 177.532 557.489 168.285 554.306 164.607C552.66 162.716 552.989 146.534 554.636 146.534C556.392 146.639 567.586 160.194 570.44 165.658C571.867 168.39 573.623 171.858 574.281 173.329C575.049 174.8 576.366 178.688 577.135 181.945C577.903 185.308 579.549 188.88 580.866 189.931C583.061 191.928 615.219 210.526 627.84 217.251C635.303 221.244 641.01 221.559 647.157 218.512C657.254 213.468 661.095 202.645 656.156 193.504C653.083 187.935 652.973 187.83 630.364 174.905C605.67 160.825 604.243 159.774 601.28 153.679C594.805 140.229 588.988 128.566 588 127.095C587.451 126.254 586.683 124.783 586.244 123.942C585.915 123.102 583.391 119.634 580.647 116.272C572.964 106.5 562.647 100.09 548.489 96.202C539.819 93.7852 479.565 93.8902 471.224 96.307ZM505.357 178.057C506.454 178.898 508.649 179.528 510.186 179.528C511.723 179.528 513.918 178.898 515.015 178.057C521.381 173.434 533.124 179.844 533.234 187.83C533.234 192.768 530.6 196.971 522.807 204.327C513.808 212.733 511.174 214.099 507.223 212.102C503.272 210.106 491.418 198.758 489.114 194.66C488.016 192.873 487.138 189.826 487.138 187.83C487.248 179.844 498.991 173.434 505.357 178.057Z"/><path fill="#E86E34" d="M152.324 2.28239C140.47 6.69564 131.471 19.3049 131.471 31.3889C131.471 37.7986 135.093 46.9403 139.702 52.1942C141.678 54.4008 146.177 57.5532 149.69 59.2344C155.177 61.8613 157.482 62.3867 164.396 62.3867C171.311 62.3867 173.616 61.8613 178.664 59.4445C186.566 55.5567 189.749 52.5094 193.481 45.2591C206.87 19.5151 180.201 -8.22536 152.324 2.28239Z"/><path fill="#E86E34" d="M43.9997 59.0252C41.1462 60.9166 35.0001 68.3771 32.6953 72.8955C32.366 73.4208 28.7442 78.8849 24.4639 84.9794C20.2933 91.0739 16.3422 96.8531 15.6837 97.7988C15.1349 98.7445 12.7204 102.527 10.5253 105.995C5.5865 113.666 5.03774 118.919 8.87906 124.383C13.3789 131.108 21.281 133.735 28.8539 131.108C31.8172 130.058 33.0245 130.268 38.5121 132.79C47.7313 137.203 47.8411 137.308 44.4387 146.765C42.9022 151.178 41.0364 156.537 40.2682 158.534C38.8414 162.421 37.1951 167.255 35.0001 173.244C34.2318 175.241 33.244 178.288 32.6953 180.075C32.1465 181.756 30.7197 185.854 29.4027 189.006C28.0857 192.158 26.6589 196.256 26.1101 198.043C25.6711 199.934 24.9029 201.931 24.4639 202.666C24.0248 203.402 23.2566 205.398 22.7078 207.29C22.2688 209.076 20.0738 215.275 17.8787 221.055C15.6837 226.834 13.4886 232.928 12.9399 234.715C11.9521 238.182 9.86683 243.857 8.22055 247.849C7.67179 249.321 6.79377 251.842 6.35476 253.629C5.806 255.31 4.37923 259.408 2.95245 262.56C-0.669369 271.282 -0.998626 276.956 2.18418 281.474C7.78154 289.355 16.452 291.982 23.4761 287.884C26.8784 285.888 32.6953 279.478 32.6953 277.797C32.6953 277.271 33.683 274.959 34.7806 272.648C35.9878 270.231 38.1829 265.503 39.8292 262.035C41.4754 258.567 43.451 254.259 44.2192 252.578C45.0973 250.792 47.0728 246.589 48.6093 243.121C51.6824 236.501 54.9749 229.461 57.3895 224.207C58.2675 222.421 60.243 218.218 61.7796 214.75C63.4258 211.283 65.7306 206.344 66.9379 203.717C68.1452 201.09 69.7915 197.728 70.6695 196.151C71.5475 194.68 72.206 192.789 72.206 191.948C72.206 191.213 73.3035 189.216 74.7303 187.64L77.1449 184.698L90.8639 202.246L104.583 219.899L105.9 228.305C106.668 233.034 107.766 241.755 108.314 247.849C108.973 253.944 109.961 261.404 110.619 264.557C111.168 267.604 111.717 272.017 111.717 274.329C111.717 285.888 126.314 293.768 136.411 287.464C144.533 282.42 146.069 275.59 142.996 257.832C142.118 252.578 141.35 245.748 141.35 242.596C141.35 239.443 140.582 232.508 139.704 227.359C138.826 222.105 138.057 216.116 138.057 214.015C138.057 211.808 137.289 208.34 136.301 206.134C134.216 201.615 133.118 199.199 128.289 188.06C124.887 180.39 124.009 176.397 125.765 176.397C126.314 176.397 128.948 177.553 131.582 178.919C147.057 187.115 149.581 187.64 148.484 182.596C148.045 180.81 146.837 177.342 145.74 174.926C143.874 170.933 142.557 170.092 130.265 163.998C122.911 160.425 116.656 157.693 116.326 157.903C115.778 158.534 117.534 163.472 120.277 168.726C123.68 175.241 124.009 175.346 88.1201 157.483C79.1204 152.965 66.6087 146.87 60.4625 143.823C54.2067 140.776 49.1581 137.833 49.1581 137.308C49.1581 136.888 49.9263 135.627 50.9141 134.576C51.7921 133.63 53.4384 131.634 54.5359 130.268L56.5115 127.746L62.6576 130.793C84.3885 141.511 107.766 152.965 110.18 154.225C113.253 155.697 118.302 154.436 118.302 152.124C118.302 151.493 119.838 149.182 121.594 146.975C123.46 144.768 124.887 142.667 124.887 142.247C124.887 141.826 126.204 139.725 127.96 137.623C131.033 133.735 131.801 132.685 136.082 125.749C139.923 119.55 140.252 119.865 145.63 134.366C146.398 136.362 147.386 139.41 147.935 141.196C148.484 142.877 149.471 146.029 150.24 148.026C150.898 150.022 152.106 153.385 152.874 155.381C153.642 157.378 154.849 160.74 155.508 162.737C156.276 164.733 157.264 167.78 157.813 169.567C159.239 174.4 163.52 186.064 166.154 191.843C168.239 196.782 175.812 201.615 181.08 201.615C186.129 201.615 191.616 198.463 195.019 193.419C197.762 189.426 197.762 183.332 195.128 176.397C191.836 167.886 190.738 164.838 187.446 154.331C185.47 148.236 183.275 141.616 182.507 139.62C179.105 130.583 178.227 127.746 174.275 114.926C172.849 110.093 170.873 104.839 168.568 99.6902C166.373 94.8567 165.166 93.8059 125.765 66.5908C110.18 55.7678 113.912 56.6084 78.5716 56.7135C48.4996 56.7135 47.402 56.8186 43.9997 59.0252ZM82.5227 88.9723C82.7422 89.3926 80.3277 93.5957 77.0351 98.1141C73.7425 102.737 67.8159 111.039 63.9746 116.713C56.0725 127.851 56.292 127.746 47.7313 123.438C40.8169 119.865 40.4877 118.604 45.0973 112.405C47.2923 109.462 49.1581 106.835 49.1581 106.52C49.1581 106.205 51.3531 102.948 54.0969 99.0598C56.8407 95.277 59.0358 91.8094 59.0358 91.3891C59.0358 88.9723 62.3283 88.1317 71.767 88.1317C77.3644 88.1317 82.1935 88.552 82.5227 88.9723Z"/><path fill="#E86E34" d="M201.274 205.502C196.115 210.02 196.664 212.016 203.908 214.643C210.493 217.165 214.334 220.948 226.956 237.971C243.967 260.878 243.199 259.512 248.467 278.32C250.553 285.571 253.516 289.879 256.699 289.879C257.796 289.879 261.967 287.252 266.137 283.995C270.198 280.842 277.113 275.483 281.283 272.226C285.563 268.968 290.941 264.66 293.356 262.559C303.892 253.522 303.892 253.627 301.148 244.275C300.27 241.333 298.734 235.869 297.636 232.086C295.661 224.941 292.588 220.528 289.624 220.528C287.758 220.528 275.796 218.216 264.601 215.694C260.869 214.959 256.479 214.223 254.723 214.223C253.077 214.223 247.918 213.488 243.419 212.647C238.919 211.701 231.456 210.23 226.956 209.284C218.834 207.708 210.054 204.451 208.737 202.56C207.639 200.878 205.554 201.614 201.274 205.502ZM246.711 225.677C264.381 228.829 271.515 230.405 272.283 231.036C272.832 231.456 269.649 234.608 265.259 237.971C260.979 241.438 256.04 245.221 254.284 246.587L251.211 248.899L248.687 245.536C247.26 243.645 243.199 238.391 239.797 233.978C236.395 229.459 233.541 225.256 233.541 224.626C233.541 223.365 234.199 223.47 246.711 225.677ZM287.1 244.275C287.868 246.902 288.197 249.424 287.868 249.949C286.88 251.526 262.296 270.965 261.308 270.965C260.759 270.965 259.662 268.758 258.894 266.026L257.357 261.088L262.186 256.99C264.82 254.678 270.308 250.265 274.369 247.217C278.43 244.065 282.051 241.123 282.381 240.492C283.917 238.181 285.893 239.652 287.1 244.275Z"/><path fill="#E86E34" d="M795.5 15.41C781.232 19.9283 769.708 29.2802 762.794 41.7844C760.379 45.9875 757.087 58.7019 757.087 63.8507C757.087 68.8944 760.708 82.4494 762.574 84.2357C763.123 84.7611 763.672 86.1271 763.672 87.1779C763.672 88.649 762.794 89.0693 760.16 89.0693C755.77 89.1743 742.599 92.4318 737.331 94.8485C721.417 101.994 711.1 114.813 706.491 133.307C701.991 151.59 704.845 154.533 722.844 150.435C726.905 149.489 731.624 148.123 733.27 147.282C735.026 146.442 736.892 145.811 737.551 145.811C739.526 145.811 750.392 138.351 755.331 133.517C762.355 126.477 767.733 115.128 769.928 102.414C770.257 100.102 771.135 98.5262 772.013 98.5262C772.891 98.5262 773.549 98.9466 773.549 99.3669C773.549 100.523 782.988 107.038 787.268 108.929C793.524 111.556 804.829 114.288 809.658 114.288C815.145 114.288 825.901 111.766 831.718 109.244C837.206 106.722 847.193 99.3669 850.376 95.3739C857.949 86.022 862.449 74.3584 862.449 63.7456C862.449 57.3359 860.363 47.7738 858.058 43.886C857.51 43.0453 855.973 40.3133 854.766 37.8965C851.803 32.3274 840.059 21.7146 833.803 18.9826C819.865 12.9932 807.134 11.8373 795.5 15.41Z"/><path fill="#E86E34" d="M914.032 59.1235C912.496 59.9641 910.191 60.5946 908.984 60.6997C907.667 60.6997 906.02 61.4352 905.252 62.2758C904.484 63.1165 903.277 63.852 902.508 63.852C900.643 63.852 890.106 73.7293 888.789 76.7765C888.131 78.0375 887.253 79.8238 886.704 80.6644C881.107 90.0163 880.997 107.144 886.704 116.391C887.253 117.231 888.131 119.018 888.68 120.279C890.216 123.536 898.887 131.627 903.277 133.623C910.63 137.301 919.081 139.508 925.008 139.508C930.605 139.508 939.714 137.406 943.665 135.2C944.543 134.674 946.409 133.834 947.726 133.308C951.129 131.837 959.579 123.536 961.665 119.333C969.677 104.307 969.677 92.7483 961.665 77.7222C959.579 73.5191 951.129 65.218 947.726 63.7469C946.409 63.2215 944.543 62.3809 943.665 61.8555C936.422 57.7575 919.41 56.1814 914.032 59.1235Z"/><path fill="#E86E34" d="M785.293 135.304C759.172 142.239 739.746 160.942 732.831 186.266C730.856 193.516 730.746 197.299 730.965 232.71L731.295 271.379H743.916H756.538L757.086 237.229C757.525 208.122 757.855 202.658 759.391 199.926C761.586 196.143 764.111 193.937 768.83 191.625C775.086 188.578 802.304 189.944 823.486 194.252C826.56 194.882 830.95 195.828 833.364 196.249C835.779 196.774 838.632 197.509 839.62 197.825C841.157 198.455 842.144 197.509 844.12 193.516C850.266 180.802 863.107 166.722 875.07 159.156C878.143 157.265 880.558 155.163 880.558 154.428C880.558 152.431 869.692 144.445 861.9 140.663C848.51 134.358 841.596 133.202 815.804 133.307C797.036 133.412 791.439 133.727 785.293 135.304Z"/><path fill="#E86E34" d="M907.445 159.997C905.36 160.732 902.287 161.468 900.75 161.468C899.214 161.573 897.019 162.308 895.812 163.149C894.714 163.99 893.178 164.725 892.409 164.725C889.226 164.725 877.483 172.606 870.349 179.541C865.959 183.744 862.447 187.527 862.447 187.947C862.447 188.368 861.02 190.89 859.154 193.411C855.313 198.875 854.984 201.502 857.837 203.919C860.032 205.916 865.191 206.336 866.288 204.655C866.618 204.129 868.483 203.184 870.459 202.658C872.434 202.133 877.483 200.557 881.654 199.086C896.909 194.042 916.445 190.995 937.188 190.259C950.578 189.734 952.444 189.944 956.395 191.835C958.7 192.991 961.443 194.777 962.321 195.828C967.26 201.713 967.26 201.713 967.809 237.229L968.358 271.379H980.979H993.601L993.93 245.425C994.149 222.413 993.93 218.525 992.064 211.485C985.04 185.951 965.724 167.247 939.054 160.522C929.615 158.105 913.262 157.79 907.445 159.997Z"/><path fill="#E86E34" d="M772.672 204.97C770.257 207.387 770.257 207.492 770.477 248.892L770.806 290.293H813.06H855.315L855.644 254.146C855.754 231.45 855.535 217.579 854.766 216.844C851.913 214.112 828.206 207.282 815.804 205.706C811.634 205.18 804.939 204.234 800.988 203.604C797.037 203.079 789.574 202.553 784.415 202.553C775.964 202.553 774.757 202.763 772.672 204.97Z"/><path fill="#E86E34" d="M920.068 204.129C915.898 204.865 910.739 205.601 908.654 205.601C902.179 205.811 872.655 214.427 870.131 216.844C869.363 217.579 869.143 231.45 869.253 254.146L869.582 290.293H911.837H954.091L954.421 248.892C954.75 198.56 956.067 202.448 938.836 202.658C932.69 202.658 924.349 203.394 920.068 204.129Z"/></svg>