<svg width="570" height="570" viewBox="0 0 570 570" fill="none" xmlns="http://www.w3.org/2000/svg">
<rect width="570" height="570" rx="285" fill="#E86E34"/>
<path d="M219.421 111.561C202.088 117.294 188.088 129.161 179.688 145.028C176.755 150.361 172.755 166.494 172.755 173.028C172.755 179.428 177.155 196.628 179.421 198.894C180.088 199.561 180.755 201.294 180.755 202.628C180.755 204.494 179.688 205.028 176.488 205.028C171.155 205.161 155.155 209.294 148.755 212.361C129.421 221.428 116.888 237.694 111.288 261.161C105.821 284.361 109.288 288.094 131.155 282.894C136.088 281.694 141.821 279.961 143.821 278.894C145.955 277.828 148.221 277.028 149.021 277.028C151.421 277.028 164.621 267.561 170.621 261.428C179.155 252.494 185.688 238.094 188.355 221.961C188.755 219.028 189.821 217.028 190.888 217.028C191.955 217.028 192.755 217.561 192.755 218.094C192.755 219.561 204.221 227.828 209.421 230.228C217.021 233.561 230.755 237.028 236.621 237.028C243.288 237.028 256.355 233.828 263.421 230.628C270.088 227.428 282.221 218.094 286.088 213.028C295.288 201.161 300.755 186.361 300.755 172.894C300.755 164.761 298.221 152.628 295.421 147.694C294.755 146.628 292.888 143.161 291.421 140.094C287.821 133.028 273.555 119.561 265.955 116.094C249.021 108.494 233.555 107.028 219.421 111.561Z" fill="white"/>
<path d="M363.422 167.027C361.556 168.094 358.756 168.894 357.289 169.027C355.689 169.027 353.689 169.961 352.756 171.027C351.822 172.094 350.356 173.027 349.422 173.027C347.156 173.027 334.356 185.561 332.756 189.427C331.956 191.027 330.889 193.294 330.222 194.361C323.422 206.227 323.289 227.961 330.222 239.694C330.889 240.761 331.956 243.027 332.622 244.627C334.489 248.761 345.022 259.027 350.356 261.561C359.289 266.227 369.556 269.027 376.756 269.027C383.556 269.027 394.622 266.361 399.422 263.561C400.489 262.894 402.756 261.827 404.356 261.161C408.489 259.294 418.756 248.761 421.289 243.427C431.022 224.361 431.022 209.694 421.289 190.627C418.756 185.294 408.489 174.761 404.356 172.894C402.756 172.227 400.489 171.161 399.422 170.494C390.622 165.294 369.956 163.294 363.422 167.027Z" fill="white"/>
<path d="M207.022 263.695C175.289 272.495 151.689 296.228 143.289 328.361C140.889 337.561 140.755 342.361 141.022 387.295L141.422 436.361H156.755H172.089L172.755 393.028C173.289 356.095 173.689 349.161 175.555 345.695C178.222 340.895 181.289 338.095 187.022 335.161C194.622 331.295 227.689 333.028 253.422 338.495C257.155 339.295 262.489 340.495 265.422 341.028C268.355 341.695 271.822 342.628 273.022 343.028C274.889 343.828 276.089 342.628 278.489 337.561C285.955 321.428 301.555 303.561 316.089 293.961C319.822 291.561 322.755 288.895 322.755 287.961C322.755 285.428 309.555 275.295 300.089 270.495C283.822 262.495 275.422 261.028 244.089 261.161C221.289 261.295 214.489 261.695 207.022 263.695Z" fill="white"/>
<path d="M355.422 295.028C352.889 295.961 349.156 296.895 347.289 296.895C345.422 297.028 342.756 297.961 341.289 299.028C339.956 300.095 338.089 301.028 337.156 301.028C333.289 301.028 319.022 311.028 310.356 319.828C305.022 325.161 300.756 329.961 300.756 330.495C300.756 331.028 299.022 334.228 296.756 337.428C292.089 344.361 291.689 347.695 295.156 350.761C297.822 353.295 304.089 353.828 305.422 351.695C305.822 351.028 308.089 349.828 310.489 349.161C312.889 348.495 319.022 346.495 324.089 344.628C342.622 338.228 366.356 334.361 391.556 333.428C407.822 332.761 410.089 333.028 414.889 335.428C417.689 336.895 421.022 339.161 422.089 340.495C428.089 347.961 428.089 347.961 428.756 393.028L429.422 436.361H444.756H460.089L460.489 403.428C460.756 374.228 460.489 369.295 458.222 360.361C449.689 327.961 426.222 304.228 393.822 295.695C382.356 292.628 362.489 292.228 355.422 295.028Z" fill="white"/>
<path d="M191.688 352.095C188.755 355.161 188.755 355.295 189.021 407.828L189.421 460.361H240.755H292.088L292.488 414.495C292.621 385.695 292.355 368.095 291.421 367.161C287.955 363.695 259.155 355.028 244.088 353.028C239.021 352.361 230.888 351.161 226.088 350.361C221.288 349.695 212.221 349.028 205.955 349.028C195.688 349.028 194.221 349.295 191.688 352.095Z" fill="white"/>
<path d="M370.754 351.028C365.687 351.961 359.42 352.895 356.887 352.895C349.02 353.161 313.154 364.095 310.087 367.161C309.154 368.095 308.887 385.695 309.02 414.495L309.42 460.361H360.754H412.087L412.487 407.828C412.887 343.961 414.487 348.895 393.554 349.161C386.087 349.161 375.954 350.095 370.754 351.028Z" fill="white"/>
</svg>
