<svg width="570" height="570" viewBox="0 0 570 570" fill="none" xmlns="http://www.w3.org/2000/svg">
<rect width="570" height="570" rx="285" fill="#E86E34"/>
<path d="M160.689 137.538C154.719 143.792 154.435 146.919 153.867 213.435C153.298 257.495 151.877 283.079 150.171 283.079C148.466 283.079 147.044 261.759 146.476 226.227C145.907 172.786 145.339 169.375 139.654 163.121C131.979 154.878 125.725 154.878 118.05 163.121C112.081 169.659 111.796 171.649 111.796 239.871C111.796 286.49 110.659 310.368 108.669 311.505C106.964 312.642 102.7 310.936 99.2889 307.525C86.7815 295.87 72 303.545 72 321.738C72 329.129 76.8324 337.656 92.7509 358.976C103.837 374.326 118.903 395.361 126.009 405.594C133.116 415.828 143.633 427.198 149.319 431.178C159.268 437.431 162.679 438 199.348 438C238.576 438 238.86 438 250.231 429.756L261.885 421.513L269.844 429.756C279.794 440.274 284.91 440.274 294.859 429.756L302.819 421.513L314.473 429.756C325.844 438 326.128 438 365.071 438C413.111 438 416.522 436.294 440.116 403.036C477.354 350.732 493.272 329.981 495.831 331.687C497.252 332.54 498.389 327.992 498.389 321.738C498.389 313.779 497.252 310.083 494.409 310.083C492.419 310.083 489.008 308.094 487.019 305.819C481.902 299.85 472.806 300.419 465.415 307.525C462.004 310.936 457.74 312.642 456.034 311.505C454.044 310.368 452.907 286.49 452.907 239.303C452.907 169.375 452.907 168.806 446.369 162.837C437.842 154.878 432.725 154.878 425.05 163.121C419.365 169.375 418.796 172.786 418.228 226.227C417.659 261.759 416.238 283.079 414.532 283.079C412.827 283.079 411.406 257.495 410.837 213.435C410.269 146.919 409.984 143.792 404.015 137.538C396.34 129.294 390.086 129.294 382.411 137.538C376.442 143.792 376.157 146.919 375.589 213.435C375.02 258.064 373.599 282.794 371.894 282.51C370.188 281.942 368.767 258.632 368.198 221.394C367.63 164.258 367.345 160.847 361.376 154.594C353.701 146.35 347.447 146.35 339.772 154.594C333.803 160.847 333.519 164.258 332.95 221.394C332.381 259.201 330.96 281.657 329.255 281.657C327.549 281.657 326.128 264.886 325.559 238.45C324.991 198.654 324.422 194.674 318.737 188.705C311.062 180.461 304.808 180.461 297.133 188.705C291.164 194.958 290.88 197.801 290.88 252.663V310.083H282.352H273.824V252.379C273.824 195.527 273.824 194.39 267.286 188.42C258.758 180.461 253.642 180.461 245.967 188.705C240.281 194.674 239.713 198.654 239.144 238.45C238.576 264.886 237.155 281.657 235.449 281.657C233.744 281.657 232.322 259.201 231.754 221.394C231.185 164.258 230.901 160.847 224.931 154.594C221.52 150.898 216.688 148.056 214.13 148.056C211.571 148.056 206.739 150.898 203.328 154.594C197.358 160.847 197.074 164.258 196.506 221.394C195.937 258.632 194.516 281.942 192.81 282.51C191.105 282.794 189.683 258.064 189.115 213.435C188.546 146.919 188.262 143.792 182.293 137.538C178.881 133.843 174.049 131 171.491 131C168.932 131 164.1 133.843 160.689 137.538ZM269.844 325.718C274.961 329.697 280.646 332.824 282.352 332.824C284.057 332.824 289.743 329.697 294.859 325.718C308.219 315.769 319.306 316.337 331.813 328.276C343.183 338.794 345.173 349.88 337.782 360.681C328.118 374.326 287.469 412.417 282.352 412.417C277.235 412.417 236.586 374.326 226.921 360.681C219.815 350.164 221.52 339.078 232.322 328.276C244.261 316.337 256.484 315.484 269.844 325.718Z" fill="white"/>
</svg>
