<svg width="570" height="570" viewBox="0 0 570 570" fill="none" xmlns="http://www.w3.org/2000/svg">
<rect width="570" height="570" rx="285" fill="#E86E34"/>
<path d="M111.4 124.066L101 135L101.4 271.8C101.8 418.333 101.533 412.2 108.333 426.466C112.867 436.2 114.6 438.466 122.2 445.4C136.2 458.066 123.4 457.133 285 457.133C446.6 457.133 433.8 458.066 447.8 445.4C455.4 438.466 457.133 436.2 461.667 426.466C470.867 407.266 470.867 379 461.667 359.8C457.133 350.2 455.4 347.933 448.2 341.266C436.867 330.866 434.2 330.066 410.333 329.133L389.667 328.466L389.267 224.066C389 130.733 388.733 119.4 386.867 116.466C382.733 110.2 378.867 111.8 364.333 126.466C357 133.8 350.2 139.8 349.133 139.8C348.067 139.8 341 133.8 333.667 126.466C324.333 117.4 319.133 113.133 317 113.133C314.867 113.133 309.667 117.4 300.333 126.466C293 133.8 286.067 139.8 285 139.8C283.933 139.8 277 133.8 269.667 126.466C260.333 117.4 255.133 113.133 253 113.133C250.867 113.133 245.667 117.4 236.333 126.466C229 133.8 222.067 139.8 221 139.8C219.933 139.8 213 133.8 205.667 126.466C196.333 117.4 191.133 113.133 189 113.133C186.867 113.133 181.667 117.4 172.333 126.466C165 133.8 158.067 139.8 157 139.8C155.933 139.8 149 133.8 141.667 126.466C132.2 117.266 127.133 113.133 125 113.133C122.733 113.133 118.6 116.466 111.4 124.066ZM260.333 193.133V200.466H205H149.667L149.267 194.6C148.467 184.333 144.067 185 205.267 185.4L260.333 185.8V193.133ZM340.333 193.133V200.466H313H285.667L285.267 194.6C284.467 184.6 283.133 185 313.267 185.4L340.333 185.8V193.133ZM204.333 225.133V232.466H177H149.667L149.267 226.6C148.467 216.6 147.133 217 177.267 217.4L204.333 217.8V225.133ZM340.333 225.133V232.466H285H229.667L229.267 226.6C228.467 216.333 224.067 217 285.267 217.4L340.333 217.8V225.133ZM188.333 257.133V264.466H169H149.667L149.267 258.6C148.6 248.733 148.067 249 169.267 249.4L188.333 249.8V257.133ZM268.333 257.133V264.466H241H213.667L213.267 258.6C212.467 248.6 211.133 249 241.267 249.4L268.333 249.8V257.133ZM340.333 257.133V264.466H317H293.667L293.267 258.6C292.467 248.6 291.533 249 317.267 249.4L340.333 249.8V257.133ZM236.333 289.133V296.466H193H149.667L149.267 290.6C148.467 280.466 145.4 281 193.267 281.4L236.333 281.8V289.133ZM340.333 289.133V296.466H301H261.667L261.267 290.6C260.467 280.466 257.8 281 301.267 281.4L340.333 281.8V289.133ZM159.933 348.6C169.533 354.733 173.8 360.866 178.867 376.333C184.2 392.6 179 419.4 168.467 430.866C163 436.866 154.733 441.133 149 441.133C140.467 441.133 129.133 433 124.2 423.266C116.733 408.6 115 389.666 119.667 374.866C123.8 361.533 127.667 355.8 136.733 349.533C144.867 343.933 152.067 343.666 159.933 348.6ZM431.933 348.6C438.467 352.733 443.933 358.333 442.867 359.933C442.467 360.6 386.733 361.133 316.333 361.133H190.6L187.667 355.4C186.067 352.333 184.067 349.4 183.4 349C177.8 345.4 187.4 345.133 305.133 345.133H426.333L431.933 348.6Z" fill="white"/>
<path d="M141.799 371.933C130.333 380.867 130.333 405.4 141.799 414.333C155.799 425.4 170.999 400.333 162.333 380.733C157.533 369.8 149.133 366.2 141.799 371.933Z" fill="white"/>
</svg>
