<svg width="570" height="570" viewBox="0 0 570 570" fill="none" xmlns="http://www.w3.org/2000/svg">
<rect width="570" height="570" rx="285" fill="#E86E34"/>
<path d="M138.983 179.267C79.9166 223.8 85.1166 219.4 85.1166 224.333C85.1166 230.733 91.6499 235.133 95.3832 231.4C99.3832 227.4 99.7832 232.067 99.7832 289.4V347.133L102.85 350.067C105.917 352.867 106.983 352.867 126.583 352.6L147.117 352.2V331.533C147.117 312.2 146.983 310.867 144.45 309.533C136.983 305.8 131.783 297.267 131.783 288.867C131.783 277.133 132.983 275.933 191.517 232.067C229.117 203.933 245.783 190.6 245.783 188.867C245.783 185.533 191.783 144.867 187.517 145C185.65 145 165.917 159 138.983 179.267Z" fill="white"/>
<path d="M349.117 165.667C330.717 179.667 321.783 187.133 321.783 188.867C321.783 190.6 338.45 203.933 376.05 232.067C434.583 275.933 435.783 277.133 435.783 288.867C435.783 297.267 430.583 305.8 423.117 309.533C420.583 310.867 420.45 312.2 420.45 331.533V352.2L440.983 352.6C460.583 352.867 461.65 352.867 464.717 350.067L467.783 347.133V289.4C467.783 253.933 468.317 231.4 469.117 230.867C469.783 230.467 471.517 230.867 473.117 231.8C475.25 233.133 476.183 233.133 478.183 231.8C479.383 230.867 481.517 229.8 482.85 229.4C485.783 228.333 486.05 220.867 483.117 220.867C482.183 220.867 480.717 220.067 480.183 219.133C479.65 218.067 457.383 201 430.85 181.133C399.383 157.533 381.383 144.867 379.517 145C377.783 145 364.85 153.8 349.117 165.667Z" fill="white"/>
<path d="M215.117 234.201C170.717 267.534 149.384 284.467 148.584 286.734C146.317 292.734 155.117 299.667 159.384 295.401C163.517 291.267 163.784 296.067 163.784 357.401V419.134L166.851 421.934L169.917 424.867L234.584 424.601L299.117 424.201L299.784 372.867L300.451 321.534H327.784H355.117L355.784 372.867L356.451 424.201L376.984 424.601C396.584 424.867 397.651 424.867 400.717 422.067L403.784 419.134V357.401C403.784 296.067 404.051 291.267 408.184 295.401C410.451 297.667 413.784 297.134 416.851 293.801C420.317 290.067 420.451 287.801 417.384 284.067C416.184 282.467 386.184 259.534 350.851 233.001C308.584 201.534 285.384 184.867 283.517 185.001C281.651 185.001 254.051 204.867 215.117 234.201ZM259.117 344.867V368.201H235.784H212.451L212.051 346.201C211.917 334.201 212.051 323.534 212.451 322.601C212.851 321.134 218.051 320.867 236.051 321.134L259.117 321.534V344.867Z" fill="white"/>
</svg>