<svg width="570" height="570" viewBox="0 0 570 570" fill="none" xmlns="http://www.w3.org/2000/svg">
<rect width="570" height="570" rx="285" fill="#E86E34"/>
<path d="M243.107 119.319C173.259 140.59 126.693 200.665 126.693 269.938C126.693 309.605 143.077 348.984 171.534 377.729C181.02 387.501 192.23 397.274 196.254 399.574C233.334 419.407 252.592 425.156 281.337 425.156C365.844 425.156 437.13 354.158 437.13 269.938C437.13 185.143 365.557 114.145 280.762 115.008C268.114 115.008 251.155 117.02 243.107 119.319ZM308.643 143.464C309.218 144.327 311.518 147.776 313.243 151.225C316.692 158.124 323.878 160.136 325.602 154.387C328.477 145.764 359.52 164.735 359.52 175.083C359.52 178.245 361.245 181.694 363.545 182.844C365.844 183.993 368.144 188.305 368.719 192.042C369.868 200.665 376.767 203.827 376.767 195.491C376.767 187.443 381.653 185.431 385.39 192.042C387.69 196.928 387.115 199.228 382.516 203.827C376.479 209.863 374.755 218.199 379.641 218.199C381.366 218.199 383.378 216.187 384.24 213.887C385.39 211.588 387.402 209.576 389.127 209.576C394.876 209.576 402.637 219.061 402.637 225.96C402.637 232.283 398.612 234.87 395.738 230.271C394.876 228.834 387.115 225.96 378.492 223.948C362.97 220.211 362.395 220.498 352.622 227.972C347.161 231.996 340.837 235.445 338.825 235.445C336.813 235.445 329.914 238.895 323.59 242.631C317.267 246.655 310.081 249.817 307.494 249.817C303.182 249.817 284.211 270.226 277.025 282.586C271.276 292.646 272.713 298.97 283.349 309.318C290.535 316.504 293.409 321.678 293.409 328.289C293.409 333.463 294.559 342.373 295.996 348.41C298.583 358.757 298.008 359.907 289.96 364.506C285.361 367.381 273.576 370.83 263.803 371.692C254.317 372.842 242.819 375.716 238.508 378.016C233.909 380.315 227.873 382.04 224.711 382.04C218.387 382.04 190.218 363.356 189.643 358.757C187.918 349.272 188.493 348.984 218.674 349.559C235.346 350.134 254.03 349.272 260.353 348.122C270.126 346.397 271.851 344.96 271.851 338.924C271.851 332.025 270.989 331.738 251.73 330.301C231.897 328.864 219.249 323.69 210.914 313.054C208.614 310.18 207.464 300.694 208.039 285.747L208.614 262.752L227.873 261.89C244.832 261.027 247.993 260.165 253.167 253.554C256.329 249.53 260.066 241.482 261.791 235.733C263.228 229.984 266.39 222.798 268.689 219.636C271.276 216.474 273.288 209.288 273.288 203.252C273.288 194.629 270.989 190.604 260.353 179.682C253.455 172.496 245.981 166.459 243.969 166.459C241.957 166.459 237.071 163.872 233.046 160.711C223.273 153.237 227.873 149.213 247.419 147.776C255.754 147.201 263.803 145.476 265.527 143.752C268.402 140.877 306.344 140.877 308.643 143.464ZM182.169 211.875C184.756 217.911 187.056 225.097 187.056 227.684C187.056 232.571 157.45 250.967 156.012 246.943C153.713 240.332 169.522 201.24 174.409 200.952C175.846 200.952 179.582 205.839 182.169 211.875ZM380.791 349.847C381.653 351.284 377.917 356.458 372.743 361.632C364.407 369.68 362.97 370.255 359.52 366.231C353.484 358.757 360.095 347.547 370.731 347.547C375.33 347.547 379.929 348.697 380.791 349.847Z" fill="white"/>
<path d="M276.162 152.087C269.55 154.099 269.55 154.387 275.299 154.674C278.749 154.962 282.485 156.399 283.348 157.836C284.497 159.848 287.084 159.561 291.109 157.549C295.995 154.962 296.282 153.812 293.121 151.8C288.522 148.925 285.935 148.925 276.162 152.087Z" fill="white"/>
<path d="M283.059 185.145C279.61 194.056 289.67 198.942 295.994 191.469C298.293 188.307 297.431 186.87 291.97 184.283C285.933 181.408 284.209 181.696 283.059 185.145Z" fill="white"/>
<path d="M286.796 217.337C283.347 220.499 284.497 226.822 288.521 226.822C290.246 226.822 293.982 225.385 296.282 223.948C300.019 221.361 300.019 220.786 296.282 218.199C291.108 214.75 289.383 214.75 286.796 217.337Z" fill="white"/>
<path d="M156.011 122.481C141.064 125.356 109.445 165.885 109.445 182.556C109.445 185.431 108.295 190.03 106.571 192.329C104.271 196.066 103.696 196.066 102.547 192.329C101.684 190.03 100.822 184.856 100.247 180.832C99.0972 170.484 94.7856 172.783 89.0368 187.155C83.0005 201.527 81.5633 249.243 86.7373 263.615C88.4619 268.501 89.3242 274.825 88.4619 277.699C87.5996 281.436 86.7373 280.574 85.0126 274.25C83.5754 269.651 80.9885 263.902 78.6889 261.89C76.6768 259.878 74.9522 253.842 74.6648 248.955C74.6648 243.781 73.515 237.17 72.0778 234.008C70.0657 228.834 69.4908 228.834 66.329 236.883C62.0174 247.518 64.8918 280.574 71.2155 295.521C78.9764 313.917 95.9354 346.11 98.8098 347.835C100.247 348.985 100.534 351.284 99.3847 353.009C98.2349 355.308 91.3363 350.709 80.1261 340.361C70.6406 331.451 62.3048 324.84 61.4425 325.702C58.8555 328.289 68.0536 349.272 77.5392 362.782C87.0247 375.717 114.619 399.287 120.655 399.287C122.093 399.287 125.254 401.586 127.266 404.748C129.279 407.623 133.59 410.784 136.752 411.647C139.914 412.797 138.764 412.797 133.878 411.934C121.518 409.922 102.834 406.185 98.2349 404.748C91.0489 402.736 91.9112 410.21 99.9596 417.683C110.595 428.031 141.638 442.403 153.424 442.69C158.31 442.978 165.784 443.84 169.808 444.99C176.706 447.002 176.419 447.289 165.496 450.451C159.172 452.463 149.399 453.901 143.938 453.901L133.878 454.188L142.501 460.512C151.986 467.698 178.718 476.896 190.503 476.896C199.989 476.896 202.863 480.633 197.115 485.519C193.09 488.681 193.09 489.831 197.689 494.717C200.564 497.879 206.313 502.191 210.624 504.49C218.098 508.227 218.673 507.939 230.458 493.567C245.405 475.746 269.837 459.649 281.622 459.649C294.557 459.649 319.852 476.321 333.362 493.567C345.147 508.514 345.434 508.514 353.482 504.203C358.082 501.903 363.83 497.879 366.705 495.292C370.729 490.98 370.729 490.118 366.705 485.519C361.531 479.77 363.543 476.896 373.603 476.896C385.101 476.896 411.833 467.698 421.319 460.512L429.942 454.188L419.881 453.901C414.42 453.901 404.647 452.463 398.323 450.451C387.4 447.289 387.113 447.002 394.012 444.99C398.036 443.84 405.509 442.978 410.396 442.69C430.804 442.116 475.645 413.946 470.183 405.323C469.321 403.598 466.734 403.024 465.01 404.173C463.285 405.323 456.674 407.048 450.063 408.198C443.739 409.635 434.828 411.359 429.942 412.222C423.331 413.371 422.756 413.084 427.067 411.072C430.517 409.635 434.828 406.473 436.84 403.886C438.852 401.299 442.014 399.287 443.451 399.287C444.889 399.287 452.65 394.113 460.985 388.077C478.519 374.567 496.053 352.434 498.928 339.499C499.79 334.325 502.664 330.301 504.964 330.301C509.563 330.301 510.425 325.702 506.401 323.115C504.676 322.253 495.191 329.439 484.843 338.924C464.435 358.183 458.398 357.895 471.046 338.349C478.807 326.277 483.406 317.366 492.604 295.521C498.928 280.574 501.802 247.518 497.49 236.883C494.328 228.834 493.754 228.834 491.742 234.008C490.304 237.17 489.155 243.781 489.155 248.955C488.867 253.842 487.142 259.878 485.13 261.89C482.831 263.902 480.244 269.651 478.807 274.25C477.657 279.137 475.932 281.149 475.357 279.137C474.495 277.124 475.357 269.651 477.082 262.752C482.256 242.632 481.106 204.402 475.07 188.593C472.196 180.832 468.459 174.508 467.022 174.508C465.584 174.221 463.572 179.107 462.71 184.856C460.41 199.515 457.823 200.378 455.811 187.73C450.925 158.124 425.918 127.08 403.21 122.194C393.437 119.894 391.137 122.769 397.748 129.667C441.439 175.37 465.01 261.89 449.775 319.953C435.978 372.267 404.072 407.623 353.77 427.169C302.893 447.002 263.226 447.002 208.612 426.881C173.832 414.234 141.351 385.49 125.542 353.296C116.344 334.613 109.445 303.569 109.445 278.849C109.445 225.96 132.44 164.735 166.071 129.667C168.083 127.655 169.808 124.493 169.808 123.056C169.808 120.469 167.508 120.182 156.011 122.481Z" fill="white"/>
</svg>
