<svg xmlns="http://www.w3.org/2000/svg" width="570" height="570" fill="none" viewBox="0 0 570 570"><rect width="570" height="570" fill="#E86E34" rx="285"/><path fill="#fff" d="M124 138.267C118.133 141.333 115.333 144.133 112.533 149.6C110.133 154.267 110 158.8 110 244C110 329.2 110.133 333.733 112.533 338.4C115.467 344 118.267 346.8 124.267 349.867C128 351.733 136.533 352 197.333 352H266V346.133C266 340 269.733 323.467 273.2 314C278.533 299.467 291.733 279.733 300.667 273.067C302.8 271.6 304.267 269.733 303.867 269.067C303.467 268.533 296.533 268 288.533 268C274 268 273.733 268 269.867 264.133C264.667 258.8 264.667 253.2 270 247.867L273.867 243.867L332.933 244.4C365.467 244.667 393.2 245.2 394.667 245.467C397.333 246 397.333 245.2 397.733 200.267C398 157.6 397.867 154.267 395.467 149.6C392.533 144 389.867 141.2 383.733 138.133C379.867 136.267 367.067 136 253.733 136C141.6 136.133 127.6 136.4 124 138.267ZM204.133 187.467C206.667 189.467 210.667 192 212.933 193.2C221.6 197.6 222.667 200.667 222.667 222.267C222.667 236.133 222.267 241.867 221.067 242.267C220.267 242.533 218.133 245.6 216.533 249.067C214.8 252.533 212.533 256 211.467 256.8C210.133 257.867 209.6 260.533 209.733 266.133C210 274.933 211.067 276.4 222.667 282C226.4 283.733 230.8 286.533 232.4 288C236.667 292 242.267 301.2 241.333 302.667C240.267 304.4 147.733 304.4 146.667 302.667C145.733 301.2 151.333 292 155.6 288C157.2 286.533 161.6 283.733 165.333 282C176.8 276.4 178 274.933 178.267 266.667C178.4 260.267 177.867 258.4 174.267 253.467C171.867 250.267 170 247.067 170 246.267C170 245.6 168.933 244.133 167.733 243.2C165.6 241.733 165.333 239.067 165.333 221.6C165.333 204.4 165.6 201.2 167.733 199.067C168.933 197.6 170 195.867 170 195.067C170 193.467 178.4 187.467 183.333 185.467C185.2 184.8 189.6 184.133 193.067 184.133C198 184 200.533 184.8 204.133 187.467ZM358.133 199.867C363.333 205.2 363.333 210.8 358.133 216.133L354.267 220H314H273.733L269.867 216.133C267.2 213.467 266 210.933 266 208C266 205.067 267.2 202.533 269.867 199.867L273.733 196H314H354.267L358.133 199.867Z"/><path fill="#fff" d="M356.001 270.001C353.068 271.068 349.734 272.001 348.668 272.001C347.601 272.001 342.801 273.868 338.001 276.268C314.934 287.601 298.934 307.201 292.134 332.801C289.468 342.801 289.468 362.668 292.001 370.001C293.068 372.934 294.001 376.134 294.001 376.934C294.001 380.001 302.401 396.534 306.534 402.001C317.601 416.268 334.001 427.734 350.001 432.401C357.201 434.534 388.401 435.068 394.668 433.334C410.801 428.534 423.468 421.201 433.334 411.068C443.734 400.401 452.401 385.334 454.534 374.268C455.068 371.334 456.268 369.334 457.334 369.334C458.934 369.334 459.334 366.401 459.334 352.668C459.334 337.734 459.068 335.734 456.668 333.334C455.201 331.868 454.001 329.468 454.001 328.001C454.001 324.134 446.268 308.268 441.468 302.001C432.134 290.001 422.401 282.134 409.601 276.268C404.668 273.868 399.868 272.001 398.934 272.001C398.134 272.001 394.934 271.068 392.001 270.001C384.934 267.468 363.068 267.468 356.001 270.001ZM418.134 319.868C420.801 322.668 422.001 325.068 422.001 328.134C422.001 332.134 419.201 335.468 394.268 360.268C369.068 385.601 366.134 388.001 362.001 388.001C358.001 388.001 355.734 386.268 341.734 372.268C328.001 358.534 326.001 356.001 326.001 352.134C326.001 346.268 332.134 340.001 338.001 340.001C341.468 340.001 344.001 341.734 351.201 348.668C356.134 353.468 361.068 357.334 362.001 357.334C363.068 357.334 373.201 348.001 384.668 336.668C403.068 318.534 406.001 316.001 409.868 316.001C412.934 316.001 415.334 317.201 418.134 319.868Z"/></svg>