<svg xmlns="http://www.w3.org/2000/svg" width="570" height="570" fill="none" viewBox="0 0 570 570"><rect width="570" height="570" fill="#E86E34" rx="285"/><path fill="#fff" d="M232.514 81.5639C211.541 87.1568 203.501 90.6524 187.421 99.7409C184.625 101.139 178.333 104.285 173.789 106.033C162.952 110.927 111.917 161.962 107.023 172.798C105.275 177.343 102.129 183.635 100.382 186.431C67.8728 241.311 67.8728 327.302 100.382 382.183C102.129 384.979 105.275 391.271 107.023 395.816C111.917 406.652 162.952 457.687 173.789 462.581C178.333 464.329 184.625 467.475 187.421 468.873C203.501 477.962 211.541 481.108 234.262 487.4C304.523 505.926 378.629 484.953 432.461 431.47C485.943 377.639 506.916 303.533 488.39 233.272C482.098 210.55 478.952 202.511 469.863 186.431C468.465 183.635 465.319 177.343 463.571 172.798C458.677 161.962 407.642 110.927 396.806 106.033C392.262 104.285 385.97 101.139 383.173 99.3913C343.324 75.6214 281.103 68.2807 232.514 81.5639ZM295.434 175.595C300.328 184.683 301.027 309.825 295.784 318.913C290.89 328.351 279.704 328.351 274.811 318.913C269.567 309.475 269.567 185.732 274.811 175.944C279.355 167.205 290.89 166.856 295.434 175.595ZM298.231 365.404C308.368 374.842 308.368 381.134 298.58 391.621C289.142 401.758 282.85 401.758 272.364 391.971C262.226 382.532 262.226 376.24 272.014 365.754C281.452 355.617 287.744 355.617 298.231 365.404Z"/></svg>