<svg xmlns="http://www.w3.org/2000/svg" width="570" height="570" fill="none" viewBox="0 0 570 570"><rect width="570" height="570" fill="#E86E34" rx="285"/><path fill="#fff" d="M267.399 86.8673C267.399 88.2006 265.266 89.134 261.132 89.6673C245.132 91.8006 220.332 105.267 205.932 119.534C195.132 130.467 185.266 146.334 178.999 163.001C177.932 165.934 175.932 174.201 174.599 181.401C172.466 192.867 172.332 196.067 173.799 208.734C176.732 234.334 176.999 235.801 182.999 257.001C184.066 261.001 185.799 266.334 186.866 268.734C187.932 271.134 188.732 273.934 188.732 275.001C188.732 275.934 189.532 278.467 190.599 280.601C191.666 282.601 193.532 287.001 194.866 290.334C199.399 302.201 211.132 326.734 220.732 344.334C223.932 350.201 227.266 356.201 228.066 357.667C229.532 360.334 234.732 368.867 237.799 373.667C238.599 375.134 239.799 377.267 240.332 378.334C241.266 380.467 265.666 416.867 271.399 425.001C277.532 433.401 282.466 438.334 284.866 438.334C286.332 438.334 290.066 435.001 293.399 430.734C298.732 423.934 318.866 394.734 320.732 391.001C321.132 390.201 322.999 387.134 325.132 384.067C327.132 380.867 328.732 378.067 328.732 377.801C328.732 377.401 330.332 374.867 332.199 372.067C334.066 369.267 336.199 365.801 336.866 364.334C337.532 362.867 339.266 359.801 340.599 357.667C348.999 344.601 368.066 306.067 374.599 289.001C375.932 285.667 377.799 281.267 378.866 279.267C379.932 277.134 380.732 274.601 380.732 273.667C380.732 272.601 381.532 269.801 382.599 267.401C384.332 263.267 386.199 257.267 390.599 240.601C392.999 231.534 395.399 216.334 396.332 203.001C397.132 192.201 394.066 173.001 389.532 160.334C384.732 147.001 374.066 130.201 363.532 119.534C349.132 105.267 324.332 91.8006 308.466 89.6673C304.199 89.134 302.066 88.2006 302.066 86.8673C302.066 85.4006 298.866 85.0006 284.732 85.0006C270.599 85.0006 267.399 85.4006 267.399 86.8673ZM299.132 160.867C302.999 162.201 306.866 163.934 307.799 164.867C308.599 165.667 309.932 166.334 310.599 166.334C312.466 166.334 324.732 178.467 324.732 180.334C324.732 181.134 325.399 182.467 326.199 183.267C329.132 186.201 332.732 198.867 332.732 206.334C332.732 213.801 329.132 226.467 326.199 229.401C325.399 230.201 324.732 231.534 324.732 232.201C324.732 233.934 312.599 246.334 310.866 246.334C310.199 246.334 308.599 247.134 307.532 248.067C306.332 249.001 302.199 250.867 298.332 252.201C288.466 255.667 275.932 254.734 265.399 249.801C257.666 246.067 244.732 235.267 244.732 232.334C244.732 231.534 244.066 230.201 243.266 229.401C240.332 226.467 236.732 213.801 236.732 206.334C236.732 198.867 240.332 186.201 243.266 183.267C244.066 182.467 244.732 181.134 244.732 180.467C244.732 178.601 256.866 166.334 258.732 166.334C259.532 166.334 260.866 165.667 261.799 164.734C267.666 158.867 287.532 156.734 299.132 160.867Z"/><path fill="#fff" d="M200.466 360.333C200.066 360.733 195.666 361.533 190.6 362.333C159 366.733 121.666 381.133 106.466 394.867C90.8664 408.867 88.9998 422.333 99.9331 438.733C105.4 446.867 132.066 463.133 145.266 466.467C147.533 467 151.266 468.067 153.4 468.733C157.666 470.333 168.466 473.267 178.066 475.533C181.4 476.467 188.2 477.667 193.133 478.333C198.2 479 202.866 479.933 203.533 480.467C211.8 485.533 356.466 485.533 364.733 480.333C365.4 479.933 370.333 479 375.666 478.333C388.6 476.6 407.8 472.067 420.733 467.533C430.866 464.067 445.533 457.8 447.533 456.067C448.6 455.133 450.066 454.333 450.6 454.333C454.6 454.333 469.8 439.667 473.8 431.8C482.733 414.733 470.866 395.133 444.066 382.467C439 379.933 433.666 377.533 432.466 376.867C429.933 375.667 416.733 371.267 406.733 368.467C390.733 363.933 385.8 363 365.266 360.2L358.466 359.4L346.6 379C331.8 403.4 333.266 401.133 325.4 412.733C321.666 418.067 318.066 423.8 317.133 425.4C316.2 427 311.933 432.867 307.666 438.333C299.8 448.467 291.666 454.333 285 454.333C278.733 454.333 270.2 449 264.066 441.267C258.333 434.067 230.6 393.4 228.333 389C227.8 387.933 226.2 385.133 224.733 383C223.266 380.733 221.533 377.8 220.866 376.333C220.2 374.867 218.2 371.533 216.466 369C214.733 366.467 212.866 363.267 212.333 361.933C211.8 360.333 210.066 359.667 206.333 359.667C203.533 359.667 200.866 359.933 200.466 360.333Z"/></svg>