<svg xmlns="http://www.w3.org/2000/svg" width="570" height="570" fill="none" viewBox="0 0 570 570"><rect width="570" height="570" fill="#E86E34" rx="285"/><g clip-path="url(#clip0_1322_1888)"><path fill="#fff" d="M165.976 98.1698C166.371 98.7548 163.342 100.627 159.129 102.382C151.624 105.424 138.984 114.901 138.984 117.475C138.984 118.177 138.326 119.347 137.536 120.049C134.639 122.623 131.084 133.738 131.084 140.29C131.084 146.842 134.639 157.957 137.536 160.531C138.326 161.233 138.984 162.286 138.984 162.871C138.984 163.339 141.486 166.264 144.646 169.189C156.364 180.304 176.772 185.218 191.914 180.538C195.732 179.368 199.814 177.73 200.999 176.911C202.052 176.092 203.632 175.39 204.291 175.39C206.002 175.39 217.984 164.509 217.984 162.988C217.984 162.403 218.642 161.233 219.432 160.531C222.329 157.957 225.884 146.842 225.884 140.29C225.884 133.738 222.329 122.623 219.432 120.049C218.642 119.347 217.984 118.177 217.984 117.475C217.984 115.954 207.582 106.711 203.369 104.488C200.209 102.967 199.156 102.499 193.231 100.393C191.519 99.8078 190.597 98.7548 190.992 98.1698C191.519 97.4678 187.042 96.9998 178.484 96.9998C170.321 96.9998 165.449 97.4678 165.976 98.1698Z"/><path fill="#fff" d="M142.933 191.536C139.642 192.706 135.165 194.695 132.795 196.099C128.318 199.024 119.233 210.49 119.233 213.298C119.233 214.234 118.443 216.808 117.39 218.914C116.468 221.02 114.625 225.934 113.308 229.795C112.123 233.656 110.28 238.687 109.358 240.91C108.437 243.133 105.803 250.504 103.433 257.29C101.063 264.076 98.43 271.447 97.5083 273.67C96.5867 275.893 93.9533 283.264 91.5833 290.05C89.2133 296.836 86.8433 303.856 86.185 305.728C85.5267 307.6 85 311.461 85 314.269C85 320.119 88.95 324.448 95.5333 325.735C101.59 326.905 109.885 322.108 111.728 316.375C112.518 314.035 114.362 309.589 119.233 298.24C120.813 294.73 122.525 290.167 123.183 288.295C123.842 286.306 125.553 281.86 127.133 278.35C128.713 274.84 130.425 270.277 131.083 268.405C131.61 266.416 132.663 263.608 133.453 261.97C139.247 249.334 139.378 248.983 142.143 249.334C146.093 249.802 145.172 255.067 138.983 268.99C137.403 272.5 135.56 276.946 135.033 278.935C134.375 280.807 131.742 287.71 129.108 294.145C126.475 300.58 123.842 307.366 123.183 309.355C122.657 311.227 120.813 315.79 119.233 319.3C117.653 322.81 115.942 327.256 115.283 329.245C114.625 331.117 112.913 335.68 111.333 339.19C106.857 349.135 106.593 351.709 110.148 355.102L113.045 357.91H178.483H243.922L246.687 355.219C249.978 352.06 250.373 349.018 247.74 343.636C244.712 337.201 239.445 324.097 237.733 318.715C237.075 316.726 235.363 312.28 233.783 308.77C232.203 305.26 230.492 300.697 229.833 298.825C229.175 296.836 227.463 292.39 225.883 288.88C224.303 285.37 222.592 280.807 221.933 278.818C221.407 276.712 220.485 274.489 219.958 273.67C219.432 272.851 218.51 270.628 217.852 268.522C217.325 266.533 215.613 261.97 214.297 258.46C211.532 251.323 211.795 249.1 215.482 249.1C218.115 249.1 220.485 252.259 222.065 257.875C222.592 259.747 224.303 264.31 225.883 267.82C227.463 271.33 229.175 275.776 229.833 277.765C230.492 279.637 232.203 284.2 233.783 287.71C235.363 291.22 237.075 295.666 237.733 297.655C238.392 299.527 240.103 304.09 241.683 307.6C243.263 311.11 244.843 315.088 245.238 316.375C246.292 319.651 250.505 323.512 254.85 325.15C259.063 326.671 266.568 325.15 269.333 322.108C271.703 319.651 273.283 320.119 273.283 323.044C273.415 327.607 278.155 342.115 281.973 349.369C287.767 360.25 299.748 373.588 308.307 378.619L311.467 380.374L302.645 388.213C292.112 397.339 290.005 401.785 290.005 414.07C290.005 425.77 292.243 430.801 300.933 438.64C309.492 446.245 314.89 448 329.242 448C347.017 448 359.262 440.395 365.45 425.653C368.347 418.75 368.61 409.858 366.108 402.604C365.187 400.03 365.318 400.03 375.72 400.03C381.513 400.03 388.097 399.679 390.467 399.211L394.812 398.509L393.627 402.487C391.915 408.571 392.442 422.26 394.548 427.525C397.182 433.96 409.558 444.724 416.537 446.479C419.565 447.298 426.543 448 431.942 448C449.717 448 461.962 440.395 468.15 425.77C471.442 418.048 471.31 408.571 467.887 400.849C464.99 394.18 457.222 386.575 450.375 383.65C447.083 382.246 444.45 380.608 444.45 380.023C444.45 379.321 446.688 376.981 449.453 374.524C461.698 363.994 473.285 346.561 475.392 335.914C475.918 332.872 476.972 331 478.157 331C479.605 331 480 328.777 480 320.821C480 315.322 479.605 311.11 479.21 311.461C478.683 311.812 477.103 311.461 475.523 310.525C473.285 309.004 458.933 308.77 375.72 308.77C312.52 308.77 278.418 309.121 277.892 309.94C276.048 312.514 273.415 310.876 271.572 306.079C270.518 303.388 268.938 299.293 268.017 297.07C267.227 294.847 266.042 291.337 265.383 289.465C264.857 287.476 263.803 284.668 263.145 283.03C262.355 281.392 260.775 276.946 259.458 273.085C258.273 269.224 256.43 264.193 255.508 261.97C254.587 259.747 251.953 252.376 249.583 245.59C247.213 238.804 244.58 231.433 243.658 229.21C242.737 226.987 240.893 221.956 239.577 218.095C234.705 204.055 226.542 195.514 214.033 191.419C205.343 188.494 151.755 188.728 142.933 191.536ZM338.195 394.882C344.12 397.573 346.885 400.03 349.782 404.944C357.55 418.399 345.832 435.13 328.583 435.13C311.335 435.13 299.617 418.399 307.385 404.944C313.31 394.531 327.267 389.968 338.195 394.882ZM440.895 394.882C446.82 397.573 449.585 400.03 452.482 404.944C460.25 418.399 448.532 435.13 431.283 435.13C414.035 435.13 402.317 418.399 410.085 404.944C416.01 394.531 429.967 389.968 440.895 394.882Z"/><path fill="#fff" d="M390.863 234.124C389.414 235.645 385.201 242.314 381.383 249.1C377.564 255.886 374.009 262.204 373.351 263.14C372.693 264.076 371.903 265.714 371.376 266.65C370.981 267.586 367.426 273.904 363.476 280.573C359.526 287.359 356.629 293.209 357.024 293.794C357.419 294.262 384.016 294.73 416.274 294.73C467.756 294.73 474.734 294.496 474.734 292.975C474.734 287.476 460.119 266.299 450.508 257.875C438.921 247.813 422.068 238.687 406.004 233.773C396.393 230.965 394.154 230.965 390.863 234.124Z"/><path fill="#fff" d="M139.904 365.632C139.377 366.1 138.982 383.065 138.982 403.306V440.161L143.722 444.022C147.804 447.532 149.252 448 155.441 448C161.761 448 162.814 447.649 166.501 443.788L170.582 439.693L170.319 402.604L169.924 365.515L155.309 365.164C147.409 365.047 140.431 365.281 139.904 365.632Z"/><path fill="#fff" d="M179.404 365.632C178.877 366.1 178.482 383.065 178.482 403.306V440.161L183.222 444.022C187.304 447.532 188.752 448 194.941 448C201.261 448 202.314 447.649 206.001 443.788L210.082 439.693L209.819 402.604L209.424 365.515L194.809 365.164C186.909 365.047 179.931 365.281 179.404 365.632Z"/></g><defs><clipPath id="clip0_1322_1888"><rect width="395" height="351" fill="#fff" transform="translate(85 97)"/></clipPath></defs></svg>