<svg xmlns="http://www.w3.org/2000/svg" width="570" height="570" fill="none" viewBox="0 0 570 570"><rect width="570" height="570" fill="#E86E34" rx="285"/><path fill="#fff" d="M207.096 112.999C199.369 118.466 195.98 124.999 200.996 124.999C202.216 124.999 205.334 125.666 207.774 126.599C211.434 127.933 212.925 127.933 214.959 126.599C216.992 125.399 238.141 124.999 302.128 124.999C382.111 124.999 386.856 125.133 388.89 127.399C390.923 129.533 391.194 135.133 391.465 171.799L391.872 213.666L398.65 213.133C402.446 212.999 405.835 212.466 406.513 212.066C407.055 211.799 407.462 192.199 407.462 168.733C407.462 127.399 407.327 125.799 404.615 121.399C402.988 118.866 399.193 114.999 396.21 112.866L390.788 108.999H301.721H212.654L207.096 112.999Z"/><path fill="#fff" d="M185.134 143.534C182.423 145.001 178.627 147.667 176.594 149.667C173.476 152.734 161.546 169.401 159.377 173.667C158.97 174.334 155.039 180.334 150.701 187.001C146.227 193.534 140.669 201.934 138.364 205.667C135.924 209.267 131.586 215.934 128.739 220.334C125.892 224.734 123.181 228.867 122.774 229.667C122.367 230.334 118.707 236.067 114.505 242.334C105.015 256.467 104.473 257.667 96.4744 276.067C95.2543 278.867 94.3053 282.467 94.3053 284.067C94.3053 285.667 93.3564 289.934 92.2718 293.534C89.1538 303.534 89.2894 395.001 92.4074 405.134C96.3388 417.801 100.135 424.067 109.895 433.667C125.485 449.001 137.686 453.267 164.257 452.734C180.932 452.334 181.745 452.201 181.067 449.667C180.796 448.201 180.525 416.734 180.389 379.667C180.389 325.134 180.796 311.401 182.287 307.667C185.405 300.067 187.439 294.067 189.879 285.667C192.184 278.201 193.133 275.401 197.335 263.667C198.149 261.134 199.504 256.867 200.046 254.334C200.589 251.801 201.809 247.801 202.487 245.667C203.3 243.401 204.927 238.067 206.282 233.667C210.349 219.667 212.247 213.134 214.145 206.601C223.635 175.001 221.737 153.134 208.587 144.467C202.351 140.201 192.319 139.801 185.134 143.534Z"/><path fill="#fff" d="M392.82 232.067C379.67 240.733 379.941 257.4 393.498 266.067C397.7 268.867 399.462 269 427.796 269C456.129 269 457.891 268.867 462.094 266.067C475.921 257.267 475.921 240.733 462.094 231.933C457.891 229.133 456.264 229 427.525 229.133C398.785 229.133 397.022 229.267 392.82 232.067Z"/><path fill="#fff" d="M208.859 279.133C207.232 286.067 202.487 300.6 198.556 310.333C197.065 314.067 196.523 328.2 196.251 379.533C195.98 443.533 195.98 443.933 198.827 448.6C200.454 451.133 204.25 455 207.232 457.133L212.655 461H301.179C382.79 461 390.11 460.867 394.448 458.6C397.16 457.4 399.329 455.667 399.329 454.867C399.329 454.067 395.804 452.067 391.33 450.467C382.247 447 372.893 438.467 369.775 430.733C366.657 423 366.251 411.667 368.691 405.667C369.911 403 370.86 399.8 370.86 398.867C370.86 397.267 357.71 397 291.961 396.733L212.926 396.333L212.248 336.733C211.842 304.067 211.164 276.733 210.621 276.333C210.079 275.8 209.266 277.133 208.859 279.133ZM331.139 423.933C335.071 427.533 335.071 429.933 331.275 433.933C328.428 437 327.75 437 301.857 437C276.642 437 275.286 436.867 272.304 434.067C268.372 430.467 268.372 428.067 272.168 424.067C275.015 421 275.693 421 301.586 421C326.801 421 328.157 421.133 331.139 423.933Z"/><path fill="#fff" d="M376.552 288.067C363.402 296.733 363.673 313.4 377.23 322.067C381.568 324.867 382.788 325 423.729 325C464.67 325 465.89 324.867 470.228 322.067C484.056 313.267 484.056 296.733 470.228 287.933C465.89 285.133 464.67 285 423.458 285.133C382.11 285.133 380.89 285.267 376.552 288.067Z"/><path fill="#fff" d="M376.552 344.067C363.402 352.733 363.673 369.4 377.23 378.067C381.568 380.867 382.788 381 423.729 381C464.67 381 465.89 380.867 470.228 378.067C484.056 369.267 484.056 352.733 470.228 343.933C465.89 341.133 464.67 341 423.458 341.133C382.11 341.133 380.89 341.267 376.552 344.067Z"/><path fill="#fff" d="M392.82 400.067C379.67 408.733 379.941 425.4 393.498 434.067C397.7 436.867 399.462 437 427.796 437C456.129 437 457.891 436.867 462.094 434.067C475.921 425.267 475.921 408.733 462.094 399.933C457.891 397.133 456.264 397 427.525 397.133C398.785 397.133 397.022 397.267 392.82 400.067Z"/></svg>