<svg xmlns="http://www.w3.org/2000/svg" width="570" height="570" fill="none" viewBox="0 0 570 570"><rect width="570" height="570" fill="#E86E34" rx="285"/><path fill="#fff" d="M274.333 106.334L269 111.667V126.334C269 137.934 268.6 141.001 267.133 141.001C266.2 141.001 264.6 140.067 263.667 139.001C262.733 137.934 261.4 137.001 260.6 137.001C259.8 137.001 258.2 136.201 257.133 135.134C252.6 131.134 233.267 121.934 224.333 119.534C212.867 116.467 194.333 116.334 177.667 119.001C171.133 120.067 161.133 121.001 155.533 121.001C144.733 121.001 141 122.867 141 128.467C141 132.067 147.933 137.001 153 137.001C157.533 137.001 158.067 138.734 155.133 144.601C152.867 149.401 149.933 156.067 147 163.667C144.733 169.267 143.533 172.334 139.133 182.601C138.2 185.001 135.4 191.801 133 197.667C130.6 203.534 127.8 210.467 126.6 213.001C123.8 219.401 121.667 224.601 119 231.667C116.333 238.601 114.2 243.667 111.4 250.334C103.667 268.201 101 275.001 101 276.867C101 279.934 105 287.534 110.733 295.134C140.067 334.867 189.933 334.867 219.267 295.134C225 287.534 229 279.934 229 276.867C229 275.667 227.133 270.201 224.867 264.867C222.6 259.401 219.8 253.001 218.867 250.734C217.8 248.334 216.2 244.334 215.133 242.067C214.2 239.667 212.333 235.001 211 231.667C208.733 226.067 207.533 223.001 203.133 212.601C202.2 210.334 199.4 203.534 197 197.667C192.067 185.267 190.2 180.734 187.4 174.334C186.2 171.801 183.4 164.867 181 159.001C178.733 153.134 175.8 146.467 174.733 144.067C170.733 135.801 173 134.734 197.133 133.534C209.933 132.734 213.933 133.001 220.467 135.001C229.133 137.667 240.2 143.267 252.333 151.134C256.733 153.934 262.2 157.134 264.333 158.334L268.333 160.334L269 290.334L269.667 420.334H285H300.333L300.733 294.867L301 169.267L314.867 167.134C340.6 163.134 355.667 164.867 372.867 173.534C382.067 178.067 394.733 185.134 396.733 186.734C398.733 188.334 398.067 193.801 395.133 200.334C392.067 207.134 389.4 213.401 387 219.667C384.733 225.267 383.533 228.334 379.133 238.601C378.2 241.001 375.4 247.801 373 253.667C370.6 259.534 367.8 266.334 366.867 268.601C362.467 279.001 361.267 282.067 359 287.667C357.667 291.001 355.8 295.667 354.867 297.934C353.8 300.334 352.2 304.334 351.133 306.601C339.267 334.734 339.8 332.734 343.4 339.934C349.667 352.067 362.467 366.067 373 372.201C403 389.267 437.4 380.867 459.267 351.134C465 343.534 469 335.934 469 332.867C469 331.667 467.133 326.201 464.867 320.867C462.6 315.401 459.8 309.001 458.867 306.601C457.8 304.334 456.2 300.334 455.133 297.934C454.2 295.667 452.333 291.001 451 287.667C449.667 284.334 447.8 279.534 446.6 277.001C443.8 270.334 441.8 265.667 437 253.667C434.6 247.801 431.8 241.001 430.867 238.601C426.467 228.334 425.267 225.267 423 219.667C420.467 213.267 417.267 205.801 415.533 202.067C413.533 198.067 414.2 197.001 418.733 197.001C423.4 197.001 429 192.601 429 188.867C429 185.934 424.067 181.934 417 179.001C413.667 177.667 410.067 175.801 409 175.001C407.933 174.201 404.6 172.334 401.667 170.734C398.733 169.267 394.2 166.734 391.667 165.267C389.133 163.667 384.333 161.267 381 159.667C377.667 158.067 373.933 156.201 372.467 155.534C361.267 149.401 335.133 147.401 314.467 151.001C308.333 152.067 302.733 152.601 302.2 152.201C301.533 151.801 301 142.601 301 131.667V111.801L295.933 106.334C291.533 101.801 289.933 101.001 285.267 101.001C280.467 101.001 278.867 101.801 274.333 106.334ZM168.467 169.934C169 172.067 170.067 175.134 171 177.001C171.933 178.867 173.8 183.001 175 186.334C176.333 189.667 178.2 194.467 179.4 197.001C182.2 203.667 184.2 208.334 189 220.334C193.933 232.734 195.8 237.267 198.6 243.667C199.8 246.201 202.6 253.134 205 259.001C207.267 264.867 209.8 270.734 210.467 272.067C211.133 273.401 211.4 275.001 211 275.667C209.933 277.401 120.067 277.401 119 275.667C118.6 275.001 118.733 273.401 119.4 272.067C121.267 268.334 124.467 260.867 127 254.334C129.267 248.734 130.467 245.667 134.867 235.267C135.8 233.001 138.6 226.201 141 220.334C143.4 214.467 146.2 207.667 147.133 205.267C151.667 194.867 152.733 191.934 155 186.334C156.2 183.001 158.067 178.867 159 177.001C159.933 175.134 161 172.067 161.533 169.934C162.067 167.534 163.267 166.334 165 166.334C166.733 166.334 167.933 167.534 168.467 169.934ZM408.467 225.934C409 228.067 410.067 231.134 411 233.001C411.933 234.867 414.6 241.134 417 247.001C419.267 252.867 422.067 259.401 423 261.667C423.933 263.801 426.6 270.467 429 276.334C433.933 288.734 435.8 293.267 438.6 299.667C439.8 302.201 442.6 309.134 445 315.001C447.267 320.867 449.8 326.734 450.467 328.067C451.133 329.401 451.4 331.001 451 331.667C449.933 333.401 360.067 333.401 359 331.667C358.6 331.001 358.867 329.401 359.533 328.067C360.2 326.734 362.733 320.867 365 315.001C367.4 309.134 370.2 302.334 371.133 299.934C375.533 289.667 376.733 286.601 379 281.001C381.4 275.001 383 271.134 386.733 262.334C387.933 259.801 390.733 252.867 393 247.001C395.4 241.134 398.067 234.867 399 233.001C399.933 231.134 401 228.067 401.533 225.934C402.067 223.534 403.267 222.334 405 222.334C406.733 222.334 407.933 223.534 408.467 225.934Z"/><path fill="#fff" d="M203 439.601C193.533 444.535 188.6 452.668 189.267 462.401L189.667 468.668H285H380.333L380.733 462.401C381.4 452.801 376.467 444.535 367.4 439.868C362.733 437.468 358.467 437.335 284.733 437.335C216.467 437.468 206.467 437.735 203 439.601Z"/></svg>