<svg width="570" height="570" viewBox="0 0 570 570" fill="none" xmlns="http://www.w3.org/2000/svg">
<rect width="570" height="570" rx="285" fill="#E86E34"/>
<path d="M187.467 132.866C179.333 136.199 169.867 145.932 166.933 153.799C164.8 159.799 164.667 170.066 164.8 290.999C164.8 438.732 164 427.799 175.6 439.532C186.133 450.199 188.267 450.466 244 450.066L292 449.666L292.667 399.666C293.467 343.266 293.467 343.132 303.333 333.399C313.733 323.132 313.467 323.132 370 322.332L420 321.666L420.4 241.666C420.8 149.932 421.067 152.332 409.867 141.266C398.4 129.799 405.067 130.466 292.667 130.466C200.133 130.466 192.933 130.599 187.467 132.866ZM300.8 174.199C303.467 176.866 304.667 179.399 304.667 182.332C304.667 188.066 298.4 194.332 292.667 194.332C286.933 194.332 280.667 188.066 280.667 182.332C280.667 179.399 281.867 176.866 284.533 174.199C287.2 171.532 289.733 170.332 292.667 170.332C295.6 170.332 298.133 171.532 300.8 174.199Z" fill="white"/>
<path d="M320.533 350.198L316.666 354.065V397.531C316.666 426.331 317.066 440.998 317.999 440.998C319.866 440.998 411.333 349.531 411.333 347.798C411.333 346.731 397.466 346.331 367.866 346.331H324.399L320.533 350.198Z" fill="white"/>
</svg>
