<svg width="570" height="570" viewBox="0 0 570 570" fill="none" xmlns="http://www.w3.org/2000/svg">
<rect width="570" height="570" rx="285" fill="#E86E34"/>
<path d="M188.8 119.219C180.667 122.552 171.2 132.286 168.267 140.152C166.267 146.019 166 152.819 166 203.619V260.552L162.133 262.552C160 263.752 156.4 266.952 154.133 269.886L150 275.086V324.686V374.152L153.467 378.819C155.333 381.219 158.933 384.552 161.467 386.152C165.867 388.819 166 389.086 166 397.752C166 409.752 169.2 418.286 176.667 425.619C188.4 437.219 182.667 436.686 293.867 436.686C404.933 436.686 399.867 437.086 410.933 426.019C418.4 418.419 420.933 412.152 421.6 399.086C422.133 388.952 422.267 388.686 426.8 385.886C429.333 384.419 432.933 380.952 434.667 378.286L438 373.352V324.286V275.086L433.867 269.886C431.6 266.952 428 263.752 425.867 262.686C422.533 260.819 422.133 259.886 421.733 253.086L421.333 245.352L371.333 244.686C315.467 243.886 315.067 243.752 305.6 234.552C294.8 223.886 294.8 223.752 294 167.352L293.333 117.352L244 117.086C199.2 116.819 194.133 117.086 188.8 119.219ZM413.333 324.686V364.019H294H174.667L174.267 326.019C174.133 305.086 174.267 287.352 174.667 286.419C175.067 284.952 199.067 284.686 294.267 284.952L413.333 285.352V324.686Z" fill="white"/>
<path d="M224.933 295.752C222.133 298.686 222 300.019 222 324.819C222 350.286 222 350.952 225.067 353.752C226.8 355.352 229.067 356.686 230.133 356.686C233.467 356.686 237.733 350.952 238.267 346.019C238.667 341.352 238.8 341.352 246 340.686C253.733 339.886 259.867 337.219 263.467 333.219C274.4 320.686 271.067 302.686 256.4 295.219C252.667 293.352 248.533 292.686 239.6 292.686C228.933 292.686 227.467 292.952 224.933 295.752ZM250.933 311.619C254.8 315.219 254.8 318.152 250.8 321.886C248.533 324.019 246.4 324.819 243.2 324.419C238.933 324.019 238.667 323.752 238.267 318.152C238 314.952 238.133 311.486 238.533 310.552C239.6 307.619 247.467 308.286 250.933 311.619Z" fill="white"/>
<path d="M280.933 295.752C278.133 298.686 278 300.019 278 324.819C278 350.286 278 350.952 281.067 353.752C282.8 355.352 285.067 356.686 286.133 356.686C289.467 356.686 293.733 350.952 294.267 346.019C294.667 341.352 294.8 341.352 302 340.686C309.733 339.886 315.867 337.219 319.467 333.219C330.4 320.686 327.067 302.686 312.4 295.219C308.667 293.352 304.533 292.686 295.6 292.686C284.933 292.686 283.467 292.952 280.933 295.752ZM306.933 311.619C310.8 315.219 310.8 318.152 306.8 321.886C304.533 324.019 302.4 324.819 299.2 324.419C294.933 324.019 294.667 323.752 294.267 318.152C294 314.952 294.133 311.486 294.533 310.552C295.6 307.619 303.467 308.286 306.933 311.619Z" fill="white"/>
<path d="M336.933 295.752C335.333 297.486 334 299.752 334 300.819C334 304.152 339.733 308.419 344.667 308.952L349.333 309.352L349.733 330.019C350 348.952 350.267 350.819 352.933 353.619C354.533 355.352 356.8 356.686 358 356.686C359.2 356.686 361.467 355.352 363.067 353.619C365.733 350.819 366 348.952 366.267 330.019L366.667 309.352L371.333 308.952C376.4 308.419 382 304.152 382 300.686C382 299.486 380.667 297.219 378.933 295.619C376 292.952 374.533 292.686 357.867 292.686C340.667 292.686 339.6 292.819 336.933 295.752Z" fill="white"/>
<path d="M318 169.486V212.952L321.867 216.819L325.733 220.686H369.2C399.467 220.686 412.667 220.286 412.667 219.219C412.667 217.486 321.067 126.019 319.333 126.019C318.533 126.019 318 142.286 318 169.486Z" fill="white"/>
</svg>
