<svg width="570" height="570" viewBox="0 0 570 570" fill="none" xmlns="http://www.w3.org/2000/svg">
<rect width="570" height="570" rx="285" fill="#E86E34"/>
<path d="M221.32 132.126C218.12 134.926 217.454 136.659 216.92 143.859L216.254 152.259L199.587 153.059C180.254 153.859 175.987 155.326 167.454 163.992C156.387 175.459 157.054 166.926 157.054 296.259C156.92 426.259 156.254 418.659 167.587 429.859C179.32 441.459 173.587 440.926 284.787 440.926C395.854 440.926 390.787 441.459 401.854 430.259C413.587 418.392 412.92 426.259 412.92 296.926C412.92 188.392 412.787 182.659 410.387 176.259C405.187 162.392 390.12 152.259 376.12 153.192L369.587 153.592L369.187 168.259C368.92 181.059 368.52 183.192 365.987 185.859C362.387 189.726 359.454 189.726 355.854 185.859C353.054 182.926 352.92 181.592 352.92 159.726V136.659L349.054 132.792C344.12 127.992 338.52 127.726 333.32 132.126C330.12 134.926 329.454 136.659 328.92 143.859L328.254 152.259L320.92 152.926L313.587 153.592L313.187 168.259C312.92 181.059 312.52 183.192 309.987 185.859C306.387 189.726 303.454 189.726 299.854 185.859C297.054 182.926 296.92 181.592 296.92 159.726V136.659L293.054 132.792C288.12 127.992 282.52 127.726 277.32 132.126C274.12 134.926 273.454 136.659 272.92 143.859L272.254 152.259L264.92 152.926L257.587 153.592L257.187 168.259C256.92 181.059 256.52 183.192 253.987 185.859C250.387 189.726 247.454 189.726 243.854 185.859C241.054 182.926 240.92 181.592 240.92 159.726V136.659L237.054 132.792C232.12 127.992 226.52 127.726 221.32 132.126ZM353.054 236.792C358.254 242.126 358.254 247.726 353.054 253.059L349.187 256.926H284.92H220.654L216.787 253.059C214.12 250.392 212.92 247.859 212.92 244.926C212.92 241.992 214.12 239.459 216.787 236.792L220.654 232.926H284.92H349.187L353.054 236.792ZM289.054 300.792C291.72 303.459 292.92 305.992 292.92 308.926C292.92 311.859 291.72 314.392 289.054 317.059L285.187 320.926H252.92H220.654L216.787 317.059C214.12 314.392 212.92 311.859 212.92 308.926C212.92 305.992 214.12 303.459 216.787 300.792L220.654 296.926H252.92H285.187L289.054 300.792ZM321.054 364.792C326.254 370.126 326.254 375.726 321.054 381.059L317.187 384.926H268.92H220.654L216.787 381.059C214.12 378.392 212.92 375.859 212.92 372.926C212.92 369.992 214.12 367.459 216.787 364.792L220.654 360.926H268.92H317.187L321.054 364.792Z" fill="white"/>
</svg>
