<svg xmlns="http://www.w3.org/2000/svg" width="570" height="570" fill="none" viewBox="0 0 570 570"><rect width="570" height="570" fill="#E86E34" rx="285"/><path fill="#fff" d="M258.145 92.9199C238.939 99.3257 224.13 106.615 212.329 115.45C197.982 126.495 181.784 142.178 181.784 145.491C181.784 146.816 180.627 149.025 179.239 150.351C174.38 154.989 167.9 176.194 167.9 187.46C167.9 198.062 168.595 199.387 189.42 223.022C200.99 236.717 216.494 254.388 223.436 262.561L236.163 277.14L237.32 311.819L238.477 346.498H285.913H333.349L334.506 312.04L335.663 277.36L344.688 267.2C349.547 261.677 356.72 253.063 360.886 248.203C364.819 243.344 376.158 230.091 386.108 218.825C403 198.946 403.926 197.399 403.926 187.018C403.926 175.973 397.446 154.989 392.587 150.351C391.199 149.025 390.042 147.037 390.042 145.933C390.042 141.736 374.075 125.611 359.96 115.892C325.713 91.8155 287.301 83.2009 258.145 92.9199ZM312.524 105.952C319.003 107.94 325.713 110.37 327.564 111.474C329.416 112.358 335.663 115.671 341.217 118.322C356.026 125.611 375.695 145.712 382.174 159.849C382.868 161.616 384.951 166.254 386.802 170.23C388.653 173.985 390.042 179.728 390.042 182.821C390.042 187.901 389.116 188.564 382.406 188.564C373.844 188.564 355.332 193.644 345.613 198.725C342.374 200.492 337.283 201.817 334.506 201.817C331.73 201.817 326.639 200.492 323.399 198.725C313.218 193.423 294.937 188.564 285.913 188.564C276.888 188.564 258.608 193.423 248.427 198.725C245.187 200.492 240.096 201.817 237.32 201.817C234.543 201.817 229.452 200.492 226.212 198.725C216.494 193.644 197.982 188.564 189.42 188.564C182.71 188.564 181.784 187.901 181.784 182.821C181.784 179.728 183.173 173.985 185.024 170.23C186.875 166.254 188.958 161.616 189.652 159.849C203.304 129.587 247.732 102.86 284.756 102.418C293.78 102.418 306.044 103.964 312.524 105.952ZM305.582 206.014C312.524 208.444 319.928 211.978 322.011 213.966C325.713 217.279 325.482 218.605 318.309 231.195C314.143 238.705 308.821 247.762 306.507 251.517C303.962 255.051 301.185 260.352 299.797 263.003C297.946 267.421 295.863 268.083 285.913 268.083C276.888 268.083 273.88 267.2 272.723 264.107C271.798 262.119 266.938 253.284 261.616 244.89C245.418 218.384 245.187 217.5 249.121 213.966C253.749 209.327 276.194 202.038 285.45 201.817C289.615 201.817 298.64 203.805 305.582 206.014ZM375.926 208.886C373.381 213.303 366.671 221.255 359.729 228.103C357.877 230.091 352.787 236.055 348.39 241.577C335.432 257.922 324.556 268.083 320.391 268.083C314.606 268.083 312.755 263.886 316.689 259.69C318.309 257.702 320.623 254.388 321.548 252.621C322.242 250.854 325.019 246.215 327.564 242.681C329.878 238.926 334.275 231.858 337.052 226.556C343.762 214.408 348.39 210.653 361.811 206.235C375.001 201.817 379.397 202.48 375.926 208.886ZM215.105 208.223C224.593 212.199 231.997 220.151 238.014 232.741C238.939 234.508 241.716 238.926 244.261 242.681C246.807 246.215 249.584 250.854 250.278 252.621C251.203 254.388 253.517 257.702 255.137 259.69C259.071 264.107 257.22 268.083 251.435 268.083C247.038 268.083 236.625 258.143 222.973 240.693C218.114 234.729 210.709 226.336 206.544 221.697C202.147 217.279 197.288 211.536 195.899 208.886C193.354 204.468 193.817 204.026 198.908 204.026C201.916 204.026 209.32 206.014 215.105 208.223ZM319.466 307.843V333.245H285.913H252.36L251.666 310.273C251.435 297.461 251.666 285.754 252.129 284.208C253.055 281.778 260.459 281.336 286.376 281.778L319.466 282.441V307.843Z"/><path fill="#fff" d="M280.127 291.054C279.432 293.042 278.507 295.914 278.044 297.681C277.35 299.448 274.573 301.215 271.565 301.657C263.697 302.541 264.16 312.701 272.028 314.468C275.499 315.352 278.044 317.782 278.97 321.095C279.895 325.071 281.978 326.617 285.912 326.617C289.845 326.617 291.928 325.071 292.853 321.095C293.779 317.782 296.324 315.352 299.795 314.468C303.961 313.585 305.58 311.597 305.58 307.842C305.58 304.087 303.961 302.099 299.795 301.215C296.324 300.332 293.779 297.902 292.853 294.589C291.234 288.183 281.978 285.753 280.127 291.054Z"/><path fill="#fff" d="M186.641 293.043C174.608 298.786 170.212 304.308 174.377 308.284C176.46 310.272 179.699 309.83 189.186 306.075C195.897 303.424 206.078 301.216 211.863 300.774C221.351 300.111 222.276 299.669 222.276 294.589C222.276 289.509 221.351 289.067 209.549 288.625C200.294 288.183 194.046 289.509 186.641 293.043Z"/><path fill="#fff" d="M349.312 291.275C346.535 298.123 350.237 301.215 361.113 301.215C367.129 301.215 375.691 303.203 380.782 305.633C385.872 308.063 391.426 310.051 393.508 310.051C398.368 310.051 400.45 304.087 396.979 300.111C388.418 290.171 352.32 283.544 349.312 291.275Z"/><path fill="#fff" d="M161.882 324.188C159.568 329.931 162.808 334.791 168.362 333.907C172.295 333.466 173.684 331.699 173.684 327.723C173.684 323.747 172.295 321.98 168.362 321.538C165.353 321.096 162.577 322.2 161.882 324.188Z"/><path fill="#fff" d="M397.908 324.188C395.594 329.931 398.833 334.791 404.387 333.907C408.321 333.466 409.709 331.699 409.709 327.723C409.709 323.747 408.321 321.98 404.387 321.538C401.379 321.096 398.602 322.2 397.908 324.188Z"/><path fill="#fff" d="M107.272 338.321C68.3973 355.992 68.1659 405.913 107.041 422.921C146.378 439.929 188.261 399.949 170.443 362.398C159.105 338.984 130.18 327.94 107.272 338.321ZM143.139 352.016C152.394 357.097 160.956 371.013 160.956 380.511C160.956 397.519 144.064 413.865 126.478 413.865C101.256 413.865 84.1323 386.696 95.7021 365.932C104.958 349.145 126.709 342.739 143.139 352.016Z"/><path fill="#fff" d="M110.513 360.191C107.736 363.505 105.422 368.364 105.422 371.015C105.422 378.083 113.752 385.593 123.239 387.14C133.884 388.907 133.421 392.662 122.314 393.987C114.678 394.871 113.521 395.975 112.827 401.055C112.132 407.019 112.364 407.24 124.396 407.24C134.578 407.24 137.355 406.357 141.751 401.276C144.759 398.184 147.073 393.324 147.073 390.674C147.073 383.384 138.743 375.874 129.256 374.328C118.612 372.561 119.074 368.806 130.181 367.481C137.817 366.597 138.974 365.493 139.669 360.191C140.363 354.448 140.131 354.227 128.099 354.227C117.223 354.227 114.909 355.111 110.513 360.191Z"/><path fill="#fff" d="M406.471 358.645C402.074 361.075 397.446 363.947 396.058 365.272C394.901 366.377 390.736 367.481 387.265 367.481C378.472 367.481 365.282 375.875 362.043 383.606C360.423 387.14 356.72 391.337 353.712 393.325C346.076 398.184 347.002 402.823 358.803 413.867C364.357 419.168 369.216 425.574 369.679 428.004C370.373 432.643 371.53 432.643 417.809 432.643C463.395 432.643 465.246 432.422 465.94 428.225C466.403 425.795 471.725 419.168 477.51 413.425C487.228 403.927 487.923 402.381 485.84 396.859C483.526 390.674 483.989 388.023 490.468 368.806C494.633 356.878 493.939 354.228 486.303 354.228C481.212 354.228 478.435 358.866 471.956 378.304C471.262 380.513 468.948 379.63 463.395 374.549C459.229 370.573 454.601 367.481 453.444 367.481C452.056 367.481 448.122 364.389 444.42 360.854C438.635 355.111 436.09 354.228 426.14 354.449C418.966 354.449 411.099 356.216 406.471 358.645ZM443.957 377.421C450.668 382.943 456.684 387.361 457.61 387.361C458.767 387.361 459.461 388.907 459.461 390.674C459.461 393.546 453.213 393.987 418.041 393.987C374.075 393.987 368.29 392.662 378.472 384.71C381.249 382.501 386.339 380.734 389.81 380.734C393.05 380.734 400.455 377.642 406.239 374.108C421.743 364.609 429.611 365.272 443.957 377.421ZM459.461 409.449C459.461 410.554 457.378 413.646 454.833 416.076C450.668 420.052 447.197 420.494 417.809 420.494C388.422 420.494 384.951 420.052 380.786 416.076C378.24 413.646 376.158 410.554 376.158 409.449C376.158 408.124 391.661 407.241 417.809 407.241C443.957 407.241 459.461 408.124 459.461 409.449Z"/><path fill="#fff" d="M267.399 376.316C258.143 385.152 258.143 385.373 258.143 401.718C258.143 414.751 257.449 418.285 254.904 418.285C253.053 418.285 250.739 417.18 250.045 416.076C247.499 412.1 228.756 413.646 220.194 418.506C196.592 431.759 197.286 462.683 221.351 475.715C233.384 482.121 243.797 481.458 256.061 473.506C267.631 465.996 270.407 465.554 274.341 470.193C275.961 472.181 281.052 473.506 286.374 473.506C294.01 473.506 297.25 471.96 304.654 464.892L313.679 456.277V420.935V385.373L304.886 376.316C297.25 368.806 294.473 367.481 286.374 367.481C278.044 367.481 275.267 368.806 267.399 376.316ZM294.936 386.035C299.101 390.232 300.026 393.324 299.332 401.939L298.638 412.763H285.911H273.184L272.49 401.939C271.796 393.324 272.721 390.232 276.887 386.035C279.663 383.164 283.829 380.734 285.911 380.734C287.994 380.734 292.159 383.164 294.936 386.035ZM251.433 433.526C261.152 443.024 259.995 461.579 250.045 453.627C245.879 450.313 237.318 434.63 237.318 430.433C237.318 425.132 244.028 426.678 251.433 433.526ZM299.332 439.048C300.026 447.663 299.101 450.755 294.936 454.952C288.456 461.579 284.291 461.579 277.349 455.394C273.184 451.859 272.027 448.325 272.027 440.373C272.027 434.63 272.721 429.329 273.647 428.445C274.573 427.562 280.589 427.12 287.068 427.562L298.638 428.225L299.332 439.048ZM225.979 441.92C231.301 448.325 237.318 459.591 237.318 463.346C237.318 468.868 230.607 467.542 223.202 460.474C218.806 456.277 216.492 451.639 216.492 447.442C216.492 437.723 220.426 435.293 225.979 441.92Z"/></svg>