<svg width="570" height="570" viewBox="0 0 570 570" fill="none" xmlns="http://www.w3.org/2000/svg">
<rect width="570" height="570" rx="285" fill="#E86E34"/>
<path d="M242.667 121.468C226.533 125.201 220 127.468 211.333 132.401C210.267 132.935 207.867 134.135 206.133 134.801C195.333 139.468 175.2 157.201 164.667 171.468C157.467 181.068 156.267 183.068 152.667 190.801C151.067 194.135 149.2 197.868 148.4 199.335C143.2 209.068 138 235.068 138 251.868C138 279.335 144.933 298.801 163.6 323.601C172 334.801 172.933 336.668 172.133 340.535C170 351.868 166.4 366.935 163.867 374.801C162.8 378.135 162 382.001 162 383.601C162 385.068 161.067 389.201 159.733 392.801C157.733 398.935 157.733 399.601 160 406.401C162.4 413.468 167.467 419.335 173.333 421.468C174.8 422.001 179.867 423.601 184.667 424.801C189.467 426.001 196.4 427.868 200 428.801C203.733 429.868 210.4 431.601 215.067 432.668C219.6 433.868 227.067 435.735 231.733 436.935C236.267 438.001 243.067 439.735 246.667 440.801C259.733 444.268 265.467 445.601 270.667 446.668C273.6 447.335 277.733 448.401 279.733 449.335C285.867 451.735 298.533 451.201 303.6 448.135C311.333 443.601 314.133 438.135 320 416.135C324.533 398.935 326.267 394.935 329.867 393.601C331.733 392.801 344.8 392.135 358.8 391.868C387.333 391.468 386.267 391.735 394.133 380.935L398 375.735V353.468C398 337.735 398.533 330.668 399.733 329.201C401.467 326.935 406.133 324.401 414.933 320.801C423.467 317.201 429.733 310.268 430.8 303.335C432.533 291.201 431.733 289.735 406.133 257.601C398.667 248.135 398.267 247.335 397.467 238.268C396.667 228.535 394.133 216.401 391.2 208.135C388.133 199.468 380.267 183.468 377.2 179.201C375.467 176.935 374 174.401 374 173.601C374 172.801 367.867 166.135 360.4 158.535C350.8 148.935 343.2 142.668 334.933 137.735C328.533 134.001 322.4 130.801 321.333 130.801C320.4 130.801 319.2 130.268 318.8 129.601C317.733 127.868 305.733 124.135 292.133 121.335C277.067 118.135 257.2 118.268 242.667 121.468ZM292.267 137.601C298.667 139.068 304.533 140.935 305.333 141.601C306 142.268 307.467 142.801 308.667 142.801C309.867 142.801 313.6 144.268 316.8 146.135C320 148.001 323.6 149.868 324.667 150.401C328.533 152.135 340 160.668 345.2 165.335C350.267 170.135 364.667 188.268 366.4 192.135C366.933 193.201 367.867 195.068 368.533 196.135C374.933 206.935 382 231.201 382 242.668C382 250.135 385.867 259.068 392 266.135C399.467 274.668 401.333 276.935 408.267 285.868C412.133 290.935 415.333 296.268 415.333 297.868C415.333 301.201 410.4 306.801 407.333 306.801C406.133 306.801 404 307.735 402.533 308.801C401.2 309.868 399.067 310.801 398 310.801C394.933 310.801 386.933 318.935 384.4 324.535C382.4 328.668 382 333.335 382 350.801C382 377.868 383.867 376.135 354.4 376.135C329.467 376.135 322.4 377.468 316.133 383.601C311.867 387.735 310.133 392.135 303.733 414.801C302.667 418.801 300.667 424.801 299.467 428.135C297.467 433.468 296.8 434.135 292.667 434.535C290.133 434.801 284.667 434.135 280.667 433.068C276.667 431.868 269.467 430.001 264.667 428.801C259.867 427.601 253.333 425.735 250 424.668C246.667 423.601 242.933 422.801 241.467 422.801C240.133 422.801 236.267 421.868 232.8 420.801C229.467 419.735 222.933 418.001 218.4 416.801C181.067 407.601 178 406.668 176 402.935C174.667 400.268 174.667 398.401 176.267 392.268C180 377.868 184.8 358.535 187.2 347.735C188 344.268 188.667 339.735 188.667 337.601C188.667 332.268 184.4 323.068 179.733 318.135C145.333 281.868 145.467 221.468 180.133 177.601C187.333 168.535 204.667 153.335 211.333 150.401C212.4 149.868 214.267 148.935 215.333 148.268C217.867 146.801 225.067 143.601 232 141.068C249.867 134.401 272.933 133.068 292.267 137.601Z" fill="white"/>
<path d="M274.667 174.667C271.734 175.201 267.201 176.934 264.534 178.401L259.734 181.201L251.867 178.001C241.601 173.867 227.734 173.601 219.067 177.467C210.667 181.067 202.001 189.201 197.467 197.601C193.867 204.001 193.467 206.134 193.467 216.801C193.334 234.801 195.067 237.467 223.867 265.601C251.467 292.534 258.667 298.801 262.001 298.801C265.734 298.801 316.534 245.601 321.867 236.001C326.001 228.667 326.267 227.067 326.267 216.267C326.267 206.267 325.867 203.734 322.667 197.467C318.267 188.667 310.534 181.067 302.534 177.467C295.601 174.534 282.667 173.201 274.667 174.667ZM297.734 193.201C302.267 196.134 304.801 198.534 307.734 203.334C311.201 208.534 311.201 223.467 307.734 229.067C306.401 231.334 295.201 243.601 283.067 256.267L260.801 279.201L244.534 263.334C235.734 254.667 225.201 244.267 221.201 240.534C210.534 230.001 209.467 227.867 209.467 216.934C209.467 208.401 209.867 206.801 213.334 202.267C219.334 194.267 226.001 190.801 234.667 190.801C241.867 190.801 251.334 194.134 253.334 197.467C254.934 200.134 263.334 198.934 268.134 195.334C270.667 193.334 274.667 191.334 277.067 190.667C282.934 189.201 293.601 190.534 297.734 193.201Z" fill="white"/>
</svg>
