<svg xmlns="http://www.w3.org/2000/svg" width="570" height="570" fill="none" viewBox="0 0 570 570"><rect width="570" height="570" fill="#E86E34" rx="285"/><path fill="#fff" d="M360.087 131.809C347.287 135.009 337.554 140.075 329.821 147.542C313.154 163.942 309.287 195.009 320.754 219.809C322.887 224.609 329.821 234.475 332.087 236.075C334.087 237.409 336.754 235.809 337.554 232.742C340.221 223.409 356.221 194.875 366.754 180.475C370.487 175.409 375.021 169.009 376.887 166.342C380.887 160.609 392.221 146.075 396.754 141.275C401.687 135.942 403.821 132.075 402.887 130.475C401.421 128.209 370.887 129.142 360.087 131.809Z"/><path fill="#fff" d="M418.487 140.742C409.953 149.542 396.887 165.809 396.887 167.542C396.887 168.209 401.553 175.009 407.287 182.609C413.02 190.209 418.087 197.409 418.62 198.475C419.153 199.542 420.753 202.209 422.22 204.475C426.22 210.742 434.22 227.142 434.22 229.275C434.353 231.942 437.553 235.809 439.687 235.809C441.42 235.809 447.953 227.009 451.553 219.942C455.153 212.742 458.22 198.742 458.22 189.009C458.22 168.342 449.287 150.209 434.22 140.475C425.687 135.009 423.953 135.009 418.487 140.742Z"/><path fill="#fff" d="M158.219 147.808C135.152 154.208 119.419 169.808 112.486 193.142C108.086 208.075 107.152 215.808 106.486 241.542C105.952 264.608 106.219 268.742 108.219 274.208C111.152 281.675 117.952 291.008 123.819 295.408C143.419 310.075 176.752 317.008 198.752 311.008C212.352 307.275 212.086 305.275 197.686 302.475C181.552 299.275 168.619 294.075 156.619 285.942C150.086 281.675 139.686 265.408 139.552 259.542C139.552 259.008 142.086 261.008 145.286 263.942C148.352 266.875 153.419 270.875 156.619 272.742C163.552 276.875 179.152 281.142 187.286 281.142C193.686 281.142 209.419 277.942 216.886 275.142C219.419 274.208 222.619 273.008 223.819 272.608C225.152 272.208 227.819 269.408 229.819 266.342C231.952 263.275 237.286 256.742 241.819 251.808C249.552 243.675 250.219 242.475 250.219 237.008C250.219 233.808 249.552 228.742 248.886 225.808C248.086 222.875 247.019 216.875 246.219 212.475C242.619 190.608 235.819 175.808 223.686 163.675C213.419 153.542 209.286 151.142 195.552 147.675C183.286 144.608 169.686 144.608 158.219 147.808ZM191.552 168.208C197.686 170.342 200.752 172.742 205.686 179.142C213.952 190.208 216.219 206.208 211.686 223.142C206.086 244.075 191.952 261.142 180.086 261.142C168.752 261.142 156.086 246.475 148.752 224.742C145.552 215.142 145.686 195.942 149.152 187.275C151.952 180.075 161.019 171.142 167.819 168.742C174.886 166.208 185.419 165.942 191.552 168.208Z"/><path fill="#fff" d="M382.619 184.743C382.219 186.076 380.086 189.276 377.952 191.943C375.952 194.609 374.219 197.143 374.219 197.543C374.219 197.943 372.086 201.409 369.552 205.409C362.486 216.076 350.086 241.943 349.952 246.343C349.819 249.009 351.552 252.476 355.419 257.143C361.152 264.476 362.486 270.343 359.552 275.943C358.219 278.209 357.419 308.609 357.952 329.409L358.219 337.143H417.419C468.352 337.143 476.752 336.876 478.219 335.143C479.152 334.076 480.752 333.143 481.686 333.143C483.019 333.143 483.552 331.409 483.552 327.809C483.552 324.076 483.019 322.476 481.686 322.476C480.619 322.476 479.152 320.743 478.486 318.609C476.886 314.076 467.286 303.276 462.752 300.743C452.352 295.143 438.619 289.143 436.219 289.143C435.286 289.143 432.752 288.343 430.619 287.276C428.619 286.343 424.486 284.343 421.552 283.009C414.086 279.676 411.552 276.209 411.552 269.409C411.552 264.609 412.486 262.609 417.152 257.009C425.019 247.676 424.752 245.009 413.286 221.809C407.686 210.076 407.286 209.543 397.686 196.476C387.152 182.209 384.352 179.943 382.619 184.743Z"/><path fill="#fff" d="M271.419 251.809C255.419 257.009 245.819 266.076 240.219 281.409C238.352 286.609 238.085 290.209 238.752 301.409C239.819 318.209 239.819 320.209 238.752 328.209C237.819 335.676 240.352 343.009 246.485 350.209C248.485 352.609 250.219 355.143 250.219 355.943C250.219 356.743 253.552 361.676 257.552 366.876C263.019 373.943 264.885 377.409 264.885 380.609C264.885 389.676 262.485 392.076 245.552 399.143C243.419 399.943 239.285 401.809 236.485 403.009C233.685 404.209 230.619 405.143 229.685 405.143C228.752 405.143 225.285 406.609 222.085 408.476C218.885 410.209 215.019 412.343 213.552 413.009C206.619 416.076 194.219 434.076 194.219 441.143C194.219 442.343 195.552 444.609 197.285 446.209L200.352 449.143H290.352H380.485L383.285 446.076C384.885 444.343 386.219 442.076 386.219 440.876C386.219 434.209 374.219 416.743 366.885 412.876C356.085 407.143 342.619 401.143 340.219 401.143C339.285 401.143 336.752 400.343 334.619 399.276C332.619 398.209 328.352 396.343 325.285 395.009C318.352 392.209 315.552 388.209 315.552 381.143C315.552 376.743 316.619 374.476 321.685 368.209C325.152 363.943 328.752 358.743 329.685 356.476C330.619 354.209 332.485 351.276 333.952 350.076C338.752 345.676 342.619 334.876 341.552 327.943C340.485 319.943 340.485 316.209 341.685 302.076C343.552 278.343 336.885 267.409 313.685 255.943C300.352 249.409 299.285 249.143 289.285 249.276C283.285 249.409 275.819 250.476 271.419 251.809Z"/><path fill="#fff" d="M101.286 309.009C96.0862 312.742 88.6195 321.409 85.2862 327.409C82.7529 331.942 83.1529 340.342 85.9529 343.009C88.2195 345.009 94.6195 345.142 156.353 344.876C215.953 344.476 224.086 344.209 223.553 342.476C223.153 341.409 222.886 335.809 222.886 330.209C222.753 324.609 222.353 319.542 221.953 319.009C221.42 318.476 218.086 319.542 214.62 321.142C190.353 332.609 159.82 331.276 128.886 317.276C125.153 315.676 122.886 314.209 115.153 308.742C112.22 306.742 109.153 305.142 108.22 305.142C107.286 305.142 104.22 306.876 101.286 309.009Z"/></svg>