<svg xmlns="http://www.w3.org/2000/svg" width="570" height="570" fill="none" viewBox="0 0 570 570"><rect width="570" height="570" fill="#E86E34" rx="285"/><path fill="#fff" d="M243.72 127.086C235.054 130.553 227.187 138.953 223.587 148.42L220.654 156.553H203.72C183.187 156.553 176.654 158.42 167.854 167.353C156.387 178.953 157.054 170.153 157.054 299.886C156.92 429.886 156.254 422.286 167.587 433.486C179.32 445.086 173.587 444.553 284.787 444.553C395.854 444.553 390.787 444.953 401.854 433.886C412.92 422.82 412.12 431.486 412.654 302.553C413.054 171.886 413.587 178.953 402.12 167.486C392.92 158.42 387.454 156.686 366.787 156.686L349.187 156.553L346.254 148.686C342.92 139.62 334.654 130.686 326.787 127.486C322.52 125.753 315.054 125.22 285.587 125.086C253.987 124.82 248.92 125.086 243.72 127.086ZM321.054 152.42C323.72 155.086 324.92 157.62 324.92 160.553C324.92 163.486 323.72 166.02 321.054 168.686L317.187 172.553H284.92H252.654L248.787 168.686C246.12 166.02 244.92 163.486 244.92 160.553C244.92 157.62 246.12 155.086 248.787 152.42L252.654 148.553H284.92H317.187L321.054 152.42ZM305.054 256.42C307.72 259.086 308.92 261.62 308.92 264.553C308.92 267.486 307.72 270.02 305.054 272.686L301.187 276.553H256.92H212.654L208.787 272.686C206.12 270.02 204.92 267.486 204.92 264.553C204.92 261.62 206.12 259.086 208.787 256.42L212.654 252.553H256.92H301.187L305.054 256.42ZM361.054 256.42C363.72 259.086 364.92 261.62 364.92 264.553C364.92 267.486 363.72 270.02 361.054 272.686C357.32 276.42 356.654 276.553 344.92 276.553C333.187 276.553 332.52 276.42 328.787 272.686C326.12 270.02 324.92 267.486 324.92 264.553C324.92 261.62 326.12 259.086 328.787 256.42C332.52 252.686 333.187 252.553 344.92 252.553C356.654 252.553 357.32 252.686 361.054 256.42ZM305.054 304.42C307.72 307.086 308.92 309.62 308.92 312.553C308.92 315.486 307.72 318.02 305.054 320.686L301.187 324.553H256.92H212.654L208.787 320.686C206.12 318.02 204.92 315.486 204.92 312.553C204.92 309.62 206.12 307.086 208.787 304.42L212.654 300.553H256.92H301.187L305.054 304.42ZM361.054 304.42C363.72 307.086 364.92 309.62 364.92 312.553C364.92 315.486 363.72 318.02 361.054 320.686C357.32 324.42 356.654 324.553 344.92 324.553C333.187 324.553 332.52 324.42 328.787 320.686C326.12 318.02 324.92 315.486 324.92 312.553C324.92 309.62 326.12 307.086 328.787 304.42C332.52 300.686 333.187 300.553 344.92 300.553C356.654 300.553 357.32 300.686 361.054 304.42ZM305.054 352.42C307.72 355.086 308.92 357.62 308.92 360.553C308.92 363.486 307.72 366.02 305.054 368.686L301.187 372.553H256.92H212.654L208.787 368.686C206.12 366.02 204.92 363.486 204.92 360.553C204.92 357.62 206.12 355.086 208.787 352.42L212.654 348.553H256.92H301.187L305.054 352.42ZM361.054 352.42C363.72 355.086 364.92 357.62 364.92 360.553C364.92 363.486 363.72 366.02 361.054 368.686C357.32 372.42 356.654 372.553 344.92 372.553C333.187 372.553 332.52 372.42 328.787 368.686C326.12 366.02 324.92 363.486 324.92 360.553C324.92 357.62 326.12 355.086 328.787 352.42C332.52 348.686 333.187 348.553 344.92 348.553C356.654 348.553 357.32 348.686 361.054 352.42Z"/></svg>