<svg xmlns="http://www.w3.org/2000/svg" width="570" height="570" fill="none" viewBox="0 0 570 570"><rect width="570" height="570" fill="#E86E34" rx="285"/><path fill="#fff" d="M270.117 115.895C255.717 121.495 244.783 137.495 244.783 152.829C244.783 160.962 249.183 172.562 254.783 179.229C257.183 182.029 262.65 186.029 266.917 188.162C273.583 191.495 276.383 192.162 284.783 192.162C293.183 192.162 295.983 191.495 302.117 188.429C311.717 183.495 315.583 179.629 320.117 170.429C336.383 137.762 303.983 102.562 270.117 115.895Z"/><path fill="#fff" d="M237.851 211.229C218.117 220.563 214.784 247.229 231.451 263.363C255.317 286.563 314.517 286.429 338.117 263.096C355.051 246.296 351.451 220.296 331.051 211.096C326.651 209.096 320.784 208.829 284.384 208.829C247.451 208.963 242.251 209.229 237.851 211.229Z"/><path fill="#fff" d="M430.117 275.096C413.45 282.83 375.85 302.296 367.85 307.496C365.05 309.23 364.784 310.563 364.784 320.163C364.784 336.563 357.984 350.296 345.584 359.363C333.85 367.63 331.717 368.03 291.584 368.43C251.45 368.963 250.917 368.83 246.784 360.83C244.917 357.23 244.917 356.43 246.784 352.963C250.917 344.963 251.45 344.83 288.517 344.83C318.917 344.83 322.65 344.563 327.184 342.296C339.317 336.163 344.25 321.896 338.25 310.696C335.184 305.096 332.784 303.096 324.917 299.496C319.584 297.096 316.25 296.83 287.317 296.83C255.45 296.83 248.25 296.163 225.184 290.696C214.117 288.163 195.584 288.296 186.25 290.963C160.784 298.296 140.65 314.696 121.05 343.896C118.65 347.363 116.784 350.563 116.784 350.83C116.784 351.096 114.917 354.43 112.784 358.163C106.65 368.696 107.05 370.563 120.917 389.096C137.05 411.096 138.65 413.23 154.784 435.096C162.384 445.496 169.85 454.696 171.317 455.363C175.984 457.896 181.45 457.096 185.184 453.096C187.184 451.096 188.784 448.563 188.784 447.63C188.784 445.23 192.784 438.43 196.784 433.763C204.517 424.83 219.85 422.563 245.45 426.83C252.117 427.896 260.117 428.83 263.45 428.83C266.784 428.83 275.984 429.763 283.85 430.963C292.25 432.163 303.584 432.83 310.517 432.563C320.917 432.163 324.117 431.496 331.45 427.896C336.25 425.496 342.784 421.363 346.117 418.696C356.384 410.163 420.917 344.696 446.25 317.23C460.784 301.496 463.717 292.696 457.984 282.83C452.65 273.896 440.25 270.43 430.117 275.096Z"/></svg>