<svg width="570" height="570" viewBox="0 0 570 570" fill="none" xmlns="http://www.w3.org/2000/svg">
<rect width="570" height="570" rx="285" fill="#E86E34"/>
<path d="M289 78.8664C289 79.7997 288.067 81.3997 287 82.333C285.533 83.533 285 86.733 285 94.1997C285 103.266 285.4 104.866 288.067 107.4C289.8 109.133 292.867 110.333 295.267 110.333C299.4 110.333 307.933 113.8 315 118.333C317.267 119.8 319.933 121.266 321 121.8C322.067 122.2 325 123.4 327.4 124.466C334.333 127.4 342.6 126.866 346.067 123.266C348.6 120.6 349 118.6 349 110.2C349 101.4 348.6 99.7997 345.933 97.2664C344.2 95.533 341.133 94.333 338.733 94.333C334.067 94.333 321.267 88.733 315.533 84.0664C314.467 83.3997 312.067 82.333 310.067 81.7997C307.933 81.3997 306.333 80.0664 306.333 78.9997C306.333 77.3997 304.467 76.9997 297.667 76.9997C291.133 76.9997 289 77.3997 289 78.8664Z" fill="white"/>
<path d="M235 179.667L189.667 225.001L189 243.267L188.333 261.667L177.667 262.467C155.4 264.067 143.133 272.867 135 293.534C133.267 297.934 133 308.867 133 368.601V438.601L136.867 442.467L140.733 446.334H189H237.267L241.133 442.467L245 438.601V412.201C245 379.001 246.067 374.734 257.667 363.001C267.4 353.267 275.8 349.667 287.4 350.601C298.067 351.401 309.667 357.401 315.8 365.401C324.067 376.467 325 381.001 325 411.401V438.601L328.867 442.467L332.733 446.334H381H429.267L433.133 442.467L437 438.601V368.601C437 308.867 436.733 297.934 435 293.534C426.867 272.867 414.6 264.067 392.333 262.467L381.667 261.667L381 243.534L380.333 225.401L375.8 220.201C368.867 212.334 296.867 140.734 292.467 137.267C283.933 130.601 284.733 130.067 235 179.667ZM297.4 225.001C323.533 236.601 323 272.201 296.6 284.067C281.8 290.734 262.733 282.601 255.667 266.734C244.333 241.001 271.667 213.667 297.4 225.001ZM209.933 313.267C212.6 315.801 213 317.401 213 326.201C213 334.601 212.6 336.601 210.067 339.267C207.533 341.934 205.933 342.334 197.133 342.334C188.733 342.334 186.733 341.934 184.067 339.401C181.4 336.867 181 335.267 181 326.467C181 318.067 181.4 316.067 183.933 313.401C186.467 310.734 188.067 310.334 196.867 310.334C205.267 310.334 207.267 310.734 209.933 313.267ZM393.933 313.267C396.6 315.801 397 317.401 397 326.201C397 334.601 396.6 336.601 394.067 339.267C391.533 341.934 389.933 342.334 381.133 342.334C372.733 342.334 370.733 341.934 368.067 339.401C365.4 336.867 365 335.267 365 326.467C365 318.067 365.4 316.067 367.933 313.401C370.467 310.734 372.067 310.334 380.867 310.334C389.267 310.334 391.267 310.734 393.933 313.267ZM209.933 369.267C212.6 371.801 213 373.401 213 382.201C213 390.601 212.6 392.601 210.067 395.267C207.533 397.934 205.933 398.334 197.133 398.334C188.733 398.334 186.733 397.934 184.067 395.401C181.4 392.867 181 391.267 181 382.467C181 374.067 181.4 372.067 183.933 369.401C186.467 366.734 188.067 366.334 196.867 366.334C205.267 366.334 207.267 366.734 209.933 369.267ZM393.933 369.267C396.6 371.801 397 373.401 397 382.201C397 390.601 396.6 392.601 394.067 395.267C391.533 397.934 389.933 398.334 381.133 398.334C372.733 398.334 370.733 397.934 368.067 395.401C365.4 392.867 365 391.267 365 382.467C365 374.067 365.4 372.067 367.933 369.401C370.467 366.734 372.067 366.334 380.867 366.334C389.267 366.334 391.267 366.734 393.933 369.267Z" fill="white"/>
</svg>
