<svg xmlns="http://www.w3.org/2000/svg" width="293" height="293" fill="none" viewBox="0 0 293 293"><path fill="#E86E34" d="M51.7332 23.5023C48.6811 25.6388 45.1712 28.8435 43.7978 30.9799C41.6613 34.3372 33.7259 55.5492 30.5212 66.3841C29.9108 68.8258 27.7743 74.7773 25.9431 79.3555C24.1118 83.9336 22.128 89.8851 21.365 92.4794C20.7545 95.2263 19.6863 98.1258 19.0759 99.194C18.4655 100.262 17.3972 103.162 16.6342 105.909C16.0238 108.503 14.3452 113.539 13.1243 117.049C10.6827 123.611 11.1405 131.241 15.1082 152.605C16.0238 157.184 17.8551 167.866 19.0759 176.259C20.4493 184.652 22.5858 196.555 23.8066 202.507C25.6379 211.968 25.6379 214.41 23.8066 218.53C20.9071 225.398 18.3129 233.333 16.9394 238.827C16.329 241.421 14.9556 244.931 14.04 246.762C12.9717 248.593 12.2087 251.798 12.2087 253.935V257.902L55.8535 257.597L99.3457 257.139L101.33 253.324C103.466 249.357 106.06 243.252 110.638 232.265C112.622 227.534 113.385 221.735 113.385 210.595C113.385 195.945 112.317 190.299 106.06 172.444C104.992 169.545 103.313 164.661 102.398 161.762C101.33 158.862 99.9561 154.284 99.1931 151.842C94.4624 133.988 85.4587 125.289 71.5717 124.831C61.9577 124.679 61.1946 123 64.7045 111.555C69.2827 97.3627 71.1139 91.2586 74.0134 81.6445C79.0493 64.4003 81.3384 57.2278 83.3222 51.1237C86.3743 41.9674 85.9165 37.8471 81.0332 31.1325C72.4874 19.2294 62.1103 16.4825 51.7332 23.5023Z"/><path fill="#E86E34" d="M215.629 23.3497C209.83 27.3174 204.489 36.1685 204.489 41.8148C204.489 43.9513 205.405 48.3768 206.626 51.4289C207.694 54.6336 209.83 61.3482 211.357 66.3841C216.24 83.018 220.971 98.431 225.091 111.708C228.753 123.153 227.99 124.679 218.071 124.984C202.811 125.289 196.859 131.851 188.924 157.184C187.245 162.677 184.956 169.545 183.888 172.444C177.021 191.367 176.41 194.877 176.41 209.985C176.41 221.43 177.173 227.382 179.157 232.112C183.125 242.032 186.177 249.051 188.313 253.324L190.145 257.139L233.942 257.597L277.739 257.902V253.935C277.739 251.798 276.976 248.593 275.908 246.762C274.992 244.931 273.619 241.421 273.009 238.827C271.635 233.333 268.888 225.398 265.989 218.53C264.158 214.105 264.158 211.663 266.141 201.744C267.362 195.182 269.499 183.126 270.872 174.733C272.246 166.34 274.382 154.284 275.603 147.875C278.35 133.072 278.655 119.033 276.061 114.302C275.145 112.318 273.619 108.655 273.009 106.061C272.398 103.62 270.414 97.668 268.583 93.0898C266.752 88.5117 264.615 82.5602 264.005 80.1185C263.242 77.5242 260.19 68.6732 257.138 60.2799C254.086 51.8867 251.186 43.3409 250.728 41.2044C246.761 24.2654 228.143 14.8039 215.629 23.3497Z"/><path fill="#E86E34" d="M104.992 56.4648C92.0205 64.5529 86.0689 83.1706 92.6309 95.0737C96.2934 101.636 142.075 148.027 144.974 148.027C148.484 148.027 194.265 100.873 197.317 94.1581C203.727 79.9659 197.928 65.3159 181.599 54.481C173.969 49.2924 159.472 51.5815 147.721 59.9747C145.585 61.3482 144.364 61.3482 142.38 59.9747C128.798 50.3607 116.59 49.1398 104.992 56.4648Z"/></svg>