<svg width="321" height="256" viewBox="0 0 321 256" fill="none" xmlns="http://www.w3.org/2000/svg">
<path d="M60.7186 19.3008C28.0371 29.7139 0.668308 39.5717 0.024337 41.2378C-0.458641 42.7651 6.30305 53.5948 15.3186 64.9798L31.5789 85.8062L15.4796 107.327C6.46405 118.989 -0.297648 130.097 0.346323 131.624C1.63426 134.956 117.871 172.305 123.989 171.333C126.243 171.055 135.58 160.92 144.918 148.84L161.983 126.903L224.77 106.91L287.557 86.9169L304.462 64.9798C329.255 32.7684 333.601 33.3238 255.52 59.0096L194.665 79.1417L177.921 102.745C168.101 116.49 159.407 126.07 156.831 125.515C147.655 123.988 34.7988 87.4723 34.7988 86.0838C34.7988 85.2508 63.1335 75.6707 97.586 64.5633L160.373 44.57L186.454 52.9006L212.696 61.2311L253.427 48.1799C275.644 41.099 295.124 34.4346 296.573 33.3238C298.666 31.6577 203.036 0.00169373 195.953 0.00169373C194.504 0.00169373 186.454 9.30411 178.243 20.828C169.872 32.2131 161.822 41.6543 160.373 41.6543C158.924 41.6543 150.875 32.2131 142.503 20.828C124.633 -4.02473 133.165 -3.88589 60.7186 19.3008Z" fill="#E86E34"/>
<path d="M227.187 117.878L166.814 137.455V196.324V255.332L201.428 244.502C220.425 238.671 246.989 230.34 260.19 226.314C273.553 222.149 285.466 217.845 286.754 216.734C288.203 215.762 288.847 188.688 288.364 156.615L287.559 98.4404L227.187 117.878Z" fill="#E86E34"/>
<path d="M32.2229 186.466L33.1889 217.289L71.8271 229.507C93.0782 236.311 120.286 244.78 132.199 248.529L153.933 255.332V206.46V157.448L144.113 169.111C128.819 187.299 132.843 187.438 67.6413 167.028L31.418 155.643L32.2229 186.466Z" fill="#E86E34"/>
</svg>
