<svg xmlns="http://www.w3.org/2000/svg" width="238" height="238" fill="none" viewBox="0 0 238 238"><g clip-path="url(#clip0_1246_1000)"><path fill="#E86E34" d="M74.7573 1.83076C74.7573 2.89871 58.7381 11.7474 39.2099 21.359C19.8342 30.9705 2.89963 39.6667 1.83168 40.7346C-0.30422 42.8705 -0.609348 53.3974 1.37399 60.1102C3.20475 66.3654 6.10347 77.6551 7.01886 82.3846C9.15475 92.9115 13.274 102.828 16.4778 104.964C19.5291 106.947 21.5124 106.947 30.056 105.422C35.7009 104.354 40.7355 104.201 41.4983 104.964C42.2612 105.727 41.956 113.203 41.0407 122.204C39.0573 139.596 39.8201 166.753 42.7189 184.603C45.3125 201.079 44.7022 200.164 59.5009 205.962C64.0778 207.792 69.265 210.386 70.9432 211.759C76.4355 216.183 80.8599 223.812 80.8599 228.388C80.8599 237.39 83.1483 238 117.78 238C146.157 238 149.209 237.695 151.497 235.254C153.023 233.728 154.091 230.524 154.091 228.236C154.091 224.117 158.515 216.183 163.245 212.369C166.143 209.928 181.4 202.91 183.841 202.91C187.807 202.91 190.401 197.113 191.927 183.84C195.13 158.209 195.588 144.173 193.757 122.204C192.842 110.151 192.384 100.082 192.689 99.6244C193.452 98.8615 203.979 102.218 210.845 105.269C218.473 108.778 224.27 100.997 227.932 82.3846C228.695 78.1128 231.593 66.6705 233.271 61.0256C233.882 58.8897 235.255 57.3641 236.17 57.5167C237.391 57.8218 238.001 55.3808 238.001 50.3461C238.001 46.0744 237.391 42.7179 236.628 42.7179C235.865 42.7179 234.187 41.8026 233.119 40.7346C232.051 39.6667 215.116 30.9705 195.741 21.359C176.212 11.7474 160.193 2.89871 160.193 1.83076C160.193 0.762817 158.057 -1.52588e-05 154.853 -1.52588e-05C151.65 -1.52588e-05 149.514 0.762817 149.514 1.83076C149.514 5.64487 139.597 14.9513 133.037 17.3923C129.528 18.7654 122.51 19.8333 117.475 19.8333C112.441 19.8333 105.423 18.7654 101.914 17.3923C95.3535 14.9513 85.4368 5.64487 85.4368 1.83076C85.4368 0.762817 83.3009 -1.52588e-05 80.0971 -1.52588e-05C76.8932 -1.52588e-05 74.7573 0.762817 74.7573 1.83076ZM85.7419 28.5295C99.1676 41.3449 133.037 41.4974 149.971 28.5295C153.023 26.241 156.532 24.4102 158.057 24.4102C161.261 24.4102 212.675 49.7359 214.964 52.482C216.032 53.7026 216.032 55.8385 215.116 58.8897C214.353 61.3308 212.523 67.891 210.997 73.5359C209.471 79.3333 207.488 83.9102 206.42 83.9102C205.505 83.9102 202.759 82.9949 200.318 81.7744C183.841 73.5359 178.196 72.9256 174.534 78.7231C172.093 82.232 172.093 84.8256 173.924 109.083C175.145 125.713 175.602 143.258 174.839 156.683C173.314 188.112 173.771 186.738 161.719 193.146C149.971 199.249 144.021 204.894 139.597 214.047L136.546 220.455H117.475H98.4048L95.3535 214.047C90.9291 204.894 84.9791 199.249 73.2317 193.146L62.8573 187.654L61.0266 174.533C59.1958 161.718 59.6535 123.577 61.9419 98.8615C62.8573 89.0974 62.7048 88.6397 58.8907 86.1987C54.7714 83.4526 46.2278 83.6051 32.4971 86.3513C28.8355 87.1141 27.3099 86.809 26.8522 85.2833C26.5471 84.0628 25.174 78.7231 23.8009 73.2308C22.2753 67.7384 20.5971 61.3308 19.6817 58.7372C18.6137 55.3808 18.9189 53.7026 20.4445 52.1769C24.4112 48.2103 72.3163 24.8679 76.8932 24.5628C79.9445 24.4102 82.8432 25.7833 85.7419 28.5295Z"/></g><defs><clipPath id="clip0_1246_1000"><rect width="238" height="238" fill="#fff"/></clipPath></defs></svg>