<svg width="364" height="85" viewBox="0 0 364 85" fill="none" xmlns="http://www.w3.org/2000/svg">
<path d="M90.9722 12.3076V32.0643H99.4953V52.4949H90.9722C90.9722 56.6 91.6043 59.4375 92.8686 61.0077C94.1328 62.5778 96.453 63.3534 99.8292 63.3345V83.6232C98.849 83.6658 98.1174 83.68 97.6487 83.68C93.4178 83.6911 89.2517 82.6423 85.5316 80.6296C81.8387 78.6833 78.699 75.8354 76.4047 72.3509C73.4974 67.9006 72.0461 62.0056 72.0508 54.6657V12.3076H90.9722Z" fill="#738C4B"/>
<path d="M137.186 64.0391V83.7178C135.655 83.9724 134.107 84.1099 132.555 84.1292C124.273 84.1292 117.374 81.6179 111.858 76.5954C109.185 74.2437 107.059 71.3371 105.628 68.0788C104.198 64.8206 103.497 61.2895 103.576 57.7326C103.576 50.3738 106.363 44.1358 111.936 39.0187C117.509 33.9016 124.29 31.3407 132.278 31.3359C141.18 31.3359 148.2 33.7361 153.337 38.5363C158.475 43.3366 161.041 49.8866 161.037 58.1866V83.0509H140.439V59.5628C140.549 57.244 139.789 54.9675 138.308 53.1782C137.593 52.391 136.713 51.7701 135.731 51.3595C134.75 50.9489 133.69 50.7585 132.626 50.8018C130.534 50.7649 128.51 51.5465 126.987 52.9796C126.26 53.6287 125.674 54.4203 125.267 55.3051C124.86 56.1899 124.64 57.1489 124.62 58.1226C124.6 59.0962 124.78 60.0634 125.151 60.9642C125.522 61.8649 126.074 62.6798 126.773 63.3581C128.258 64.7274 130.223 65.4565 132.242 65.387C134.002 65.4009 135.733 64.9454 137.257 64.0675" fill="#738C4B"/>
<path d="M200.222 35.6108L196.358 53.8281C195.101 53.1187 191.387 51.2884 190.335 51.2884C187.047 51.2884 184.135 54.2182 184.135 59.4536V83.268H166.059V55.8427C166.059 48.5927 167.953 42.8111 171.741 38.498C175.529 34.1849 180.605 32.0283 186.969 32.0283C191.55 32.4471 196.025 33.6468 200.201 35.5753" fill="#738C4B"/>
<path d="M223.622 33.4053H204.594V83.0134H223.622V33.4053Z" fill="#738C4B"/>
<path d="M270.78 60.0713L294.488 59.3619C293.811 66.7349 290.383 72.7884 284.204 77.5224C278.024 82.2565 270.503 84.6211 261.639 84.6164C252.268 84.6164 244.353 82.0153 237.895 76.813C231.436 71.6108 228.192 65.212 228.164 57.6168C228.164 50.4235 231.427 44.2754 237.951 39.1725C244.476 34.0696 252.289 31.5134 261.39 31.5039C269.359 31.5039 276.391 33.5139 282.485 37.5338C288.579 41.5702 292.372 46.685 293.849 52.9348L269.629 53.6442C268.612 52.5723 267.379 51.727 266.012 51.1635C264.645 50.5999 263.174 50.3309 261.696 50.3738C259.277 50.2673 256.898 51.0215 254.984 52.502C254.153 53.1381 253.482 53.9596 253.026 54.9006C252.57 55.8417 252.34 56.8763 252.356 57.9218C252.354 59.0039 252.606 60.0713 253.092 61.0384C253.578 62.0055 254.284 62.8453 255.154 63.4906C257.132 65.0353 259.591 65.8363 262.1 65.7536C266.135 65.7536 269.018 63.8524 270.723 60.0784" fill="#738C4B"/>
<path d="M322.986 83.496H299.902V12.457H322.986V83.496ZM358.329 31.6107L347.05 50.5019L363.826 83.496H338.257L323.845 49.6152L334.329 31.6107H358.329Z" fill="#738C4B"/>
<path d="M20.1217 64.1638C20.9461 65.7201 22.1056 67.0744 23.5168 68.1294C24.9611 69.1856 26.5891 69.9649 28.3182 70.4278C30.1518 70.9085 32.0406 71.147 33.9363 71.1372C35.4088 71.1303 36.8761 70.9614 38.3116 70.6335C39.7762 70.3077 41.1822 69.7598 42.4808 69.009C43.7344 68.2748 44.809 67.2716 45.6273 66.0721C46.4983 64.6852 46.9314 63.0687 46.8702 61.4327C46.8702 58.2971 44.9004 55.9325 40.9608 54.3387C35.5998 52.3592 30.0961 50.7893 24.497 49.6425C21.6228 48.9567 18.822 48.148 16.0945 47.2164C13.4922 46.3523 11.0319 45.1093 8.79305 43.5275C6.67388 42.0184 4.91935 40.0551 3.65785 37.7814C2.28766 35.1758 1.61715 32.2599 1.71173 29.3183C1.71173 24.4093 2.61613 20.3894 4.42493 17.2586C6.13138 14.2014 8.59384 11.632 11.5773 9.79572C14.6577 7.93296 18.047 6.63561 21.5849 5.96498C25.3275 5.22628 29.134 4.85798 32.9491 4.86541C36.7537 4.85567 40.5487 5.24802 44.2707 6.03592C47.7533 6.75138 51.0753 8.09779 54.0723 10.0085C56.9935 11.9208 59.4475 14.4639 61.253 17.4501C63.1471 20.5525 64.2811 24.4589 64.6552 29.1693H45.8901C45.6273 25.14 44.2067 22.4159 41.5859 20.99C38.7596 19.5151 35.6041 18.7828 32.4164 18.8618C31.2081 18.8663 30.001 18.9397 28.8011 19.0817C27.5735 19.2083 26.3744 19.5317 25.2498 20.0394C24.1891 20.5236 23.259 21.2531 22.5366 22.1676C21.7725 23.2646 21.3998 24.5863 21.4783 25.9203C21.4496 26.7778 21.6081 27.6314 21.943 28.4215C22.2778 29.2117 22.7809 29.9196 23.4174 30.4959C24.9034 31.7749 26.6333 32.7401 28.5028 33.3335C30.8294 34.1589 33.2036 34.8435 35.6126 35.3836C38.2973 35.9653 41.0248 36.618 43.8019 37.3061C46.646 37.9825 49.451 38.8137 52.2043 39.7961C54.8209 40.7157 57.2828 42.0265 59.5058 43.6836C61.8289 45.4012 63.6924 47.6644 64.9312 50.2727C66.17 52.8809 66.7461 55.754 66.6084 58.6376C66.6084 63.6365 65.6614 67.8338 63.7674 71.2294C61.9537 74.5081 59.3883 77.3111 56.2812 79.4088C53.1024 81.5212 49.5413 82.9936 45.7977 83.7432C41.8451 84.5847 37.8144 85.0056 33.773 84.9988C29.6644 85.0064 25.5674 84.5616 21.5565 83.6722C17.7605 82.8787 14.1469 81.382 10.9025 79.2598C7.76527 77.1539 5.15521 74.3552 3.27431 71.0805C1.27137 67.6895 0.179933 63.4332 0 58.3113H18.8006C18.744 60.335 19.1983 62.3404 20.1217 64.1426" fill="#738C4B"/>
<path d="M144.164 11.3503C144.164 17.6214 138.368 22.7007 131.23 22.7007C124.092 22.7007 118.289 17.6498 118.289 11.3503C118.289 5.0509 124.078 0 131.23 0C138.382 0 144.164 5.08637 144.164 11.3503Z" fill="#726658"/>
<path d="M185.414 11.3503C185.414 17.6214 179.618 22.7007 172.48 22.7007C165.342 22.7007 159.539 17.6214 159.539 11.3503C159.539 5.07928 165.335 0 172.48 0C179.625 0 185.414 5.08637 185.414 11.3503Z" fill="#E86E34"/>
<path d="M226.668 11.3503C226.668 17.6214 220.879 22.7007 213.734 22.7007C206.589 22.7007 200.793 17.6214 200.793 11.3503C200.793 5.07928 206.589 0 213.734 0C220.879 0 226.668 5.08637 226.668 11.3503Z" fill="#C3C9A0"/>
</svg>
