<svg xmlns="http://www.w3.org/2000/svg" id="Layer_1" data-name="Layer 1" viewBox="0 0 364 85"><defs><style>.cls-1{fill:#fff}</style></defs><path d="m90.97,12.31v19.76h8.52v20.43h-8.52c0,4.11.63,6.94,1.9,8.51,1.26,1.57,3.58,2.35,6.96,2.33v20.29c-.98.04-1.71.06-2.18.06-4.23.01-8.4-1.04-12.12-3.05-3.69-1.95-6.83-4.79-9.13-8.28-2.91-4.45-4.36-10.35-4.35-17.69V12.31h18.92Z" class="cls-1"/><path d="m137.19,64.04v19.68c-1.53.25-3.08.39-4.63.41-8.28,0-15.18-2.51-20.7-7.53-2.67-2.35-4.8-5.26-6.23-8.52-1.43-3.26-2.13-6.79-2.05-10.35,0-7.36,2.79-13.6,8.36-18.71,5.57-5.12,12.35-7.68,20.34-7.68,8.9,0,15.92,2.4,21.06,7.2,5.14,4.8,7.7,11.35,7.7,19.65v24.86h-20.6v-23.49c.11-2.32-.65-4.6-2.13-6.38-.71-.79-1.6-1.41-2.58-1.82-.98-.41-2.04-.6-3.1-.56-2.09-.04-4.12.74-5.64,2.18-.73.65-1.31,1.44-1.72,2.33-.41.88-.63,1.84-.65,2.82-.02.97.16,1.94.53,2.84.37.9.92,1.72,1.62,2.39,1.48,1.37,3.45,2.1,5.47,2.03,1.76.01,3.49-.44,5.01-1.32" class="cls-1"/><path d="m200.22,35.61l-3.86,18.22c-1.26-.71-4.97-2.54-6.02-2.54-3.29,0-6.2,2.93-6.2,8.17v23.81h-18.08v-27.43c0-7.25,1.89-13.03,5.68-17.34,3.79-4.31,8.86-6.47,15.23-6.47,4.58.42,9.06,1.62,13.23,3.55" class="cls-1"/><path d="m223.62,33.41h-19.03v49.61h19.03v-49.61Z" class="cls-1"/><path d="m270.78,60.07l23.71-.71c-.68,7.37-4.11,13.43-10.28,18.16-6.18,4.73-13.7,7.1-22.57,7.09-9.37,0-17.29-2.6-23.74-7.8-6.46-5.2-9.7-11.6-9.73-19.2,0-7.19,3.26-13.34,9.79-18.44,6.52-5.1,14.34-7.66,23.44-7.67,7.97,0,15,2.01,21.09,6.03,6.09,4.04,9.89,9.15,11.36,15.4l-24.22.71c-1.02-1.07-2.25-1.92-3.62-2.48-1.37-.56-2.84-.83-4.32-.79-2.42-.11-4.8.65-6.71,2.13-.83.64-1.5,1.46-1.96,2.4-.46.94-.69,1.98-.67,3.02,0,1.08.25,2.15.74,3.12.49.97,1.19,1.81,2.06,2.45,1.98,1.54,4.44,2.35,6.95,2.26,4.04,0,6.92-1.9,8.62-5.68" class="cls-1"/><path d="m322.99,83.5h-23.08V12.46h23.08v71.04Zm35.34-51.89l-11.28,18.89,16.78,32.99h-25.57l-14.41-33.88,10.48-18h24Z" class="cls-1"/><path d="m20.12,64.16c.82,1.56,1.98,2.91,3.4,3.97,1.44,1.06,3.07,1.84,4.8,2.3,1.83.48,3.72.72,5.62.71,1.47,0,2.94-.18,4.38-.5,1.46-.33,2.87-.87,4.17-1.62,1.25-.73,2.33-1.74,3.15-2.94.87-1.39,1.3-3,1.24-4.64,0-3.14-1.97-5.5-5.91-7.09-5.36-1.98-10.86-3.55-16.46-4.7-2.87-.69-5.67-1.49-8.4-2.43-2.6-.86-5.06-2.11-7.3-3.69-2.12-1.51-3.87-3.47-5.14-5.75-1.37-2.61-2.04-5.52-1.95-8.46,0-4.91.9-8.93,2.71-12.06,1.71-3.06,4.17-5.63,7.15-7.46,3.08-1.86,6.47-3.16,10.01-3.83,3.74-.74,7.55-1.11,11.36-1.1,3.8,0,7.6.38,11.32,1.17,3.48.72,6.8,2.06,9.8,3.97,2.92,1.91,5.38,4.46,7.18,7.44,1.89,3.1,3.03,7.01,3.4,11.72h-18.77c-.26-4.03-1.68-6.75-4.3-8.18-2.83-1.47-5.98-2.21-9.17-2.13-1.21,0-2.42.08-3.62.22-1.23.13-2.43.45-3.55.96-1.06.48-1.99,1.21-2.71,2.13-.76,1.1-1.14,2.42-1.06,3.75-.03.86.13,1.71.46,2.5.33.79.84,1.5,1.47,2.07,1.49,1.28,3.22,2.24,5.09,2.84,2.33.83,4.7,1.51,7.11,2.05,2.68.58,5.41,1.23,8.19,1.92,2.84.68,5.65,1.51,8.4,2.49,2.62.92,5.08,2.23,7.3,3.89,2.32,1.72,4.19,3.98,5.43,6.59,1.24,2.61,1.81,5.48,1.68,8.36,0,5-.95,9.2-2.84,12.59-1.81,3.28-4.38,6.08-7.49,8.18-3.18,2.11-6.74,3.58-10.48,4.33-3.95.84-7.98,1.26-12.02,1.26-4.11,0-8.21-.44-12.22-1.33-3.8-.79-7.41-2.29-10.65-4.41-3.14-2.11-5.75-4.9-7.63-8.18-2-3.39-3.09-7.65-3.27-12.77h18.8c-.06,2.02.4,4.03,1.32,5.83" class="cls-1"/><path d="m144.16,11.35c0,6.27-5.8,11.35-12.93,11.35s-12.94-5.05-12.94-11.35,5.79-11.35,12.94-11.35,12.93,5.09,12.93,11.35Z" class="cls-1"/><path d="m185.41,11.35c0,6.27-5.8,11.35-12.93,11.35s-12.94-5.08-12.94-11.35,5.8-11.35,12.94-11.35,12.93,5.09,12.93,11.35Z" class="cls-1"/><path d="m226.67,11.35c0,6.27-5.79,11.35-12.93,11.35s-12.94-5.08-12.94-11.35,5.8-11.35,12.94-11.35,12.93,5.09,12.93,11.35Z" class="cls-1"/></svg>