<svg xmlns="http://www.w3.org/2000/svg" width="570" height="570" fill="none" viewBox="0 0 570 570"><rect width="570" height="570" fill="#E86E34" rx="285"/><path fill="#fff" d="M190 117.868C190 119.068 187.733 120.268 184.4 121.068C169.333 124.668 156.133 132.268 143.867 144.535C125.467 163.068 118 181.601 118 209.335C118 224.535 119.2 232.268 123.6 244.001C131.333 264.668 153.333 286.668 174 294.401C198.667 303.468 218.667 303.468 243.333 294.401C263.733 286.801 286.133 264.401 293.733 244.001C302.8 219.335 302.8 199.335 293.733 174.668C284.533 149.868 258.8 127.201 233.067 121.068C229.6 120.268 227.333 119.068 227.333 117.868C227.333 116.401 223.867 116.001 208.667 116.001C193.467 116.001 190 116.401 190 117.868ZM226.667 143.868C239.2 147.868 248.4 153.201 256.533 161.468C283.2 188.001 283.2 230.401 256.533 257.201C230 283.868 187.467 283.868 160.8 257.201C148.133 244.535 140.667 226.935 140.667 209.335C140.667 172.401 170.933 141.868 208 141.468C215.067 141.468 221.333 142.268 226.667 143.868Z"/><path fill="#fff" d="M200.533 161.201L196.666 165.067V189.467V213.867L208.399 225.601C218.533 235.734 220.799 237.334 224.666 237.334C230.799 237.334 236.666 231.734 236.666 225.734C236.666 221.334 232.266 215.067 224.399 208.267L220.666 205.067V185.067V165.067L216.799 161.201C214.133 158.534 211.599 157.334 208.666 157.334C205.733 157.334 203.199 158.534 200.533 161.201Z"/><path fill="#fff" d="M308.666 168.001C308.666 169.335 309.466 172.535 310.533 174.935C314.666 184.535 316.933 199.601 316.533 214.268L315.999 228.668H383.999H451.999L452.399 219.601C452.799 210.401 450.533 201.335 445.199 190.935C442.666 185.601 432.399 175.068 428.266 173.201C426.666 172.535 424.399 171.468 423.333 170.801C422.266 170.135 418.399 168.668 414.666 167.468C408.933 165.601 400.533 165.335 358.399 165.335C309.866 165.335 308.666 165.335 308.666 168.001Z"/><path fill="#fff" d="M306.399 254.934C305.733 255.867 303.866 259.334 301.999 262.667C300.266 266.001 297.999 269.467 297.066 270.401C296.133 271.467 293.466 274.801 291.333 278.001C283.599 289.201 261.466 304.667 243.999 311.067C221.599 319.201 193.066 319.201 174.266 311.201C171.866 310.134 168.666 309.334 167.333 309.334C164.666 309.334 164.666 310.534 164.666 358.934C164.666 401.201 164.933 409.601 166.799 415.334C167.999 418.934 169.466 422.934 170.133 424.001C170.799 425.067 171.866 427.334 172.533 428.934C174.399 433.067 184.933 443.334 190.266 445.867C192.666 447.201 197.999 449.334 201.999 450.801C208.933 453.201 213.733 453.334 308.666 453.334C403.599 453.334 408.399 453.201 415.333 450.801C426.666 446.801 431.066 444.134 437.333 438.001C443.599 431.734 446.133 427.201 450.133 416.001C452.533 408.934 452.666 404.801 452.399 331.334L451.999 254.001L379.866 253.601C323.066 253.334 307.466 253.734 306.399 254.934ZM318.399 296.267C328.266 302.667 331.199 313.067 325.999 322.534C317.999 336.534 300.533 336.801 291.599 323.067C280.799 306.801 302.133 285.467 318.399 296.267ZM386.399 296.267C396.266 302.667 399.199 313.067 393.866 322.667C386.133 336.401 368.399 336.534 359.599 323.067C348.799 306.801 370.133 285.467 386.399 296.267ZM250.399 368.267C260.266 374.667 263.199 385.067 257.866 394.667C250.133 408.401 232.399 408.534 223.599 395.067C212.799 378.801 234.133 357.467 250.399 368.267ZM318.399 368.267C328.266 374.667 331.199 385.067 325.866 394.667C318.133 408.401 300.399 408.534 291.599 395.067C280.799 378.801 302.133 357.467 318.399 368.267Z"/></svg>