<svg xmlns="http://www.w3.org/2000/svg" width="570" height="570" fill="none" viewBox="0 0 570 570"><rect width="570" height="570" fill="#E86E34" rx="285"/><path fill="#fff" d="M348.087 141.534C343.287 143.534 341.287 147.8 342.087 154.734L342.754 161.4L332.487 167.4C326.754 170.6 321.287 173.667 320.087 174.334C319.021 174.867 316.354 176.467 314.087 177.934C311.954 179.4 309.154 181 308.087 181.534C307.021 182.067 301.687 185 296.354 188.2C291.021 191.4 286.354 193.934 285.954 193.934C284.754 193.934 274.354 202.334 271.954 205.267C270.754 206.734 269.021 210.867 268.221 214.6C266.487 222.2 268.087 229.534 273.154 237.934C274.754 240.467 276.487 243.534 277.021 244.6C277.554 245.667 280.487 250.734 283.421 255.934C286.487 261 289.287 266.2 289.821 267.267C290.354 268.334 291.954 271 293.421 273.267C294.887 275.4 296.487 278.2 297.021 279.267C303.821 292.867 310.354 301.8 315.954 305.667C321.421 309.4 323.287 309.934 331.021 309.934C338.487 309.934 341.021 309.267 346.354 306.2C349.821 304.067 353.687 302.067 354.754 301.534C355.821 301 358.621 299.4 360.754 297.934C363.021 296.467 365.687 294.867 366.754 294.334C367.821 293.8 374.487 290.067 381.421 285.934C388.354 281.8 395.021 278.067 396.087 277.534C397.154 277 400.087 275.4 402.621 273.8L407.154 271.134L410.621 274.467C419.954 283.4 434.487 274.6 430.354 262.734C429.554 260.467 426.487 254.467 423.421 249.267C420.354 244.2 417.554 239 417.021 237.934C416.487 236.867 414.887 234.067 413.421 231.934C411.954 229.667 410.354 227 409.821 225.934C409.287 224.867 406.487 219.667 403.421 214.6C400.487 209.4 397.554 204.334 397.021 203.267C396.487 202.2 394.887 199.4 393.421 197.267C391.954 195 390.354 192.334 389.821 191.267C389.287 190.2 386.354 185 383.421 179.934C380.354 174.734 377.554 169.667 377.021 168.6C376.487 167.534 374.887 164.734 373.421 162.6C372.087 160.334 369.687 156.2 368.087 153.267C363.287 144.334 360.487 141.667 355.154 141.134C352.354 140.867 349.154 141 348.087 141.534Z"/><path fill="#fff" d="M245.421 237.933C242.888 239.267 239.021 241.267 236.754 242.467C234.621 243.533 229.821 246.333 226.088 248.467C222.488 250.733 218.221 253.133 216.754 253.8C210.754 256.467 201.821 265.8 200.354 271C197.154 281.533 198.488 287.4 207.421 302.6C210.488 307.667 213.288 312.867 213.821 313.933C214.354 315 215.954 317.667 217.421 319.933C218.888 322.067 220.621 325.133 221.288 326.6C224.488 333.667 237.421 341.933 245.554 341.933C249.554 341.933 268.621 333.667 270.088 331.267C272.088 327.933 273.421 332.2 273.421 342.333C273.421 353.133 272.088 357.267 267.554 361.267C266.621 361.933 263.021 366.467 259.554 371.267C255.954 376.067 252.354 380.467 251.554 381.267C250.621 381.933 247.021 386.467 243.554 391.267C239.954 396.067 236.354 400.467 235.421 401.267C231.288 404.867 225.421 414.733 225.421 418.2C225.421 423.667 231.821 429.933 237.421 429.933C242.754 429.933 249.821 422.867 265.021 402.333C268.488 397.8 271.688 394.333 272.354 394.733C272.888 395.133 273.421 401.4 273.421 408.733C273.421 421.8 273.554 422.2 277.288 426.067C282.621 431.267 288.221 431.267 293.554 426.067C297.288 422.2 297.421 421.8 297.421 408.733C297.421 401.4 297.954 395.133 298.488 394.733C299.154 394.333 302.354 397.8 305.821 402.333C321.021 422.867 328.088 429.933 333.421 429.933C339.021 429.933 345.421 423.667 345.421 418.2C345.421 414.733 340.221 405.933 335.154 400.867C334.221 399.933 330.621 395.4 327.154 390.867C323.688 386.333 320.221 381.933 319.288 381.267C318.488 380.467 314.888 376.067 311.288 371.267C307.821 366.467 304.221 361.933 303.288 361.267C298.088 356.6 297.421 353.667 297.421 333.533V313.667L293.421 308.6C291.288 305.8 289.421 303.267 289.421 302.733C289.421 302.333 286.888 297.667 283.688 292.333C280.488 287 277.554 281.667 277.021 280.6C276.488 279.533 274.888 276.733 273.554 274.6C272.088 272.333 269.421 267.933 267.688 264.6C265.821 261.267 263.154 256.467 261.688 253.933C260.088 251.4 257.288 246.067 255.421 242.2C253.421 238.467 251.421 235.267 251.021 235.267C250.488 235.4 247.954 236.467 245.421 237.933Z"/><path fill="#fff" d="M142.22 298.067C137.153 304.067 137.953 309.8 145.42 321.267C146.887 323.4 148.62 326.467 149.42 327.934C150.087 329.4 151.287 331.534 152.087 332.6C153.953 335.534 164.753 354.334 165.82 356.6C166.353 357.667 167.953 360.334 169.42 362.6C170.887 364.734 172.487 367.534 172.887 368.6C173.42 369.667 175.287 372.2 177.153 374.2C179.82 377.134 181.82 377.934 186.087 377.934C190.62 377.934 192.087 377.267 194.487 373.934C197.687 369.667 198.22 365.4 196.087 360.067C195.02 357 195.287 356.334 199.82 353.267C202.487 351.4 205.42 349.934 206.22 349.934C207.02 349.934 208.62 348.6 209.687 347C211.553 344.2 211.287 343.4 206.887 336.6C200.487 326.734 199.02 324.467 197.42 321.267C196.62 319.8 194.22 315.534 191.953 311.934C189.82 308.2 186.887 302.734 185.42 299.534C182.887 294.2 178.753 291.934 176.887 295.134C175.953 296.6 165.82 301.934 164.087 301.934C163.42 301.934 161.02 300.067 158.753 297.934C153.153 292.334 146.887 292.467 142.22 298.067Z"/></svg>