<svg width="570" height="570" viewBox="0 0 570 570" fill="none" xmlns="http://www.w3.org/2000/svg">
<rect width="570" height="570" rx="285" fill="#E86E34"/>
<path d="M269.665 83.6527C253.063 90.3655 246.134 97.5067 239.349 114.36C232.419 131.785 242.525 158.636 259.559 167.777C277.749 177.632 291.897 177.632 310.087 167.777C322.502 161.064 332.463 143.354 332.463 128.214C332.463 116.36 326.4 102.22 317.738 94.3646C304.601 82.0816 284.246 77.654 269.665 83.6527Z" fill="white"/>
<path d="M233.574 194.773C215.384 200.2 201.959 209.056 192.142 221.91C185.212 231.336 182.758 234.907 181.459 238.049C180.881 239.192 177.705 245.904 174.385 253.046C170.92 260.044 166.734 268.899 165.001 272.756C161.104 281.039 159.227 282.468 126.745 301.606C97.006 319.174 96.8616 319.317 92.8194 326.886C86.323 339.312 91.3758 354.023 104.657 360.879C112.742 365.021 120.249 364.592 130.065 359.308C146.09 350.453 188.821 324.744 191.853 322.173C193.585 320.602 195.751 315.746 196.761 311.176C197.772 306.748 199.504 301.464 200.515 299.464C201.381 297.464 203.691 292.751 205.568 289.038C209.321 281.611 224.046 263.186 226.356 263.044C228.521 263.044 228.955 285.039 226.789 287.609C222.603 292.608 216.539 305.177 213.652 315.318C211.92 320.888 211.198 328.743 211.198 341.026C211.198 350.738 210.62 359.451 210.043 360.308C209.465 361.164 203.835 364.592 197.483 368.02C182.325 376.304 178.283 378.446 175.251 380.16C138.438 401.584 132.519 406.012 127.611 415.152C119.96 429.578 127.034 448.145 142.914 455.286C148.4 457.714 152.442 458 183.624 458C202.825 458 218.416 457.429 218.416 456.857C218.416 456.143 216.972 452.858 215.24 449.288C210.187 439.718 210.62 424.15 215.962 413.724C218.272 409.439 221.736 404.155 223.613 402.155C229.676 395.871 242.525 390.586 254.507 389.301C270.098 387.873 291.753 385.445 310.809 383.017C319.904 381.874 329.143 380.874 331.164 380.874C335.206 380.874 341.125 386.159 341.125 389.73C341.125 396.299 331.309 398.87 294.207 402.155C279.626 403.441 253.352 406.44 247.866 407.44C242.669 408.297 235.162 414.295 231.842 420.151C224.624 432.863 229.676 448.431 243.247 455.286C248.299 457.857 253.063 458 334.629 458C416.483 458 420.959 457.857 426.733 455.286C442.324 448.145 449.11 430.863 442.18 415.867C438.571 408.011 431.064 401.727 412.008 390.586C393.529 379.732 393.529 379.589 384.868 375.019C381.114 372.876 375.628 369.877 372.885 368.163C370.143 366.592 366.245 364.449 364.224 363.592C362.347 362.878 360.181 361.307 359.604 360.45C359.026 359.451 358.449 350.738 358.449 341.026C358.449 328.743 357.727 320.888 355.995 315.318C353.108 305.177 347.044 292.608 342.858 287.609C340.692 285.039 341.125 263.044 343.291 263.044C345.601 263.186 360.326 281.611 364.079 289.038C365.956 292.751 368.266 297.464 369.132 299.464C370.143 301.464 371.875 306.748 372.885 311.176C373.896 315.746 376.061 320.602 377.794 322.03C380.681 324.744 422.98 350.024 439.582 359.165C449.398 364.592 456.905 365.021 464.99 360.879C478.271 354.023 483.324 339.312 476.827 326.886C472.785 319.317 472.641 319.174 442.902 301.606C410.42 282.468 408.543 281.039 404.645 272.756C396.128 254.474 388.477 238.62 387.177 236.621C386.456 235.478 385.445 233.479 384.868 232.336C384.435 231.193 381.114 226.48 377.505 221.91C367.4 208.627 353.829 199.915 335.206 194.63C323.802 191.345 244.546 191.488 233.574 194.773ZM278.471 305.891C279.915 307.034 282.802 307.891 284.823 307.891C286.845 307.891 289.732 307.034 291.175 305.891C299.549 299.607 314.995 308.319 315.14 319.174C315.14 325.887 311.675 331.6 301.425 341.597C289.587 353.023 286.123 354.88 280.926 352.166C275.729 349.453 260.137 334.028 257.106 328.457C255.662 326.029 254.507 321.888 254.507 319.174C254.651 308.319 270.098 299.607 278.471 305.891Z" fill="white"/>
</svg>
